%TF.GenerationSoftware,KiCad,Pcbnew,9.0.6*%
%TF.CreationDate,2026-08-18T17:14:54-04:00*%
%TF.ProjectId,OLED_Display_PCB,4f4c4544-5f44-4697-9370-6c61795f5043,rev?*%
%TF.SameCoordinates,Original*%
%TF.FileFunction,Profile,NP*%
%FSLAX46Y46*%
G04 Gerber Fmt 4.6, Leading zero omitted, Abs format (unit mm)*
G04 Created by KiCad (PCBNEW 9.0.6) date 2026-08-18 17:14:54*
%MOMM*%
%LPD*%
G01*
G04 APERTURE LIST*
%TA.AperFunction,Profile*%
%ADD10C,0.200000*%
%TD*%
%TA.AperFunction,Profile*%
%ADD11C,0.050000*%
%TD*%
G04 APERTURE END LIST*
D10*
X166200000Y-72000000D02*
G75*
G02*
X168200000Y-74000000I0J-2000000D01*
G01*
X166200000Y-123700000D02*
X93999998Y-123700000D01*
X166700000Y-75000000D02*
G75*
G02*
X163700000Y-75000000I-1500000J0D01*
G01*
X163700000Y-75000000D02*
G75*
G02*
X166700000Y-75000000I1500000J0D01*
G01*
X92000000Y-73999998D02*
G75*
G02*
X93999998Y-72000000I2000000J-2D01*
G01*
X96500000Y-120700000D02*
G75*
G02*
X93500000Y-120700000I-1500000J0D01*
G01*
X93500000Y-120700000D02*
G75*
G02*
X96500000Y-120700000I1500000J0D01*
G01*
X166200000Y-72000000D02*
X93999998Y-72000000D01*
X96500000Y-75000000D02*
G75*
G02*
X93500000Y-75000000I-1500000J0D01*
G01*
X93500000Y-75000000D02*
G75*
G02*
X96500000Y-75000000I1500000J0D01*
G01*
X92000000Y-73999998D02*
X92000000Y-121700002D01*
X93999998Y-123700000D02*
G75*
G02*
X92000000Y-121700002I2J2000000D01*
G01*
X168200000Y-121700000D02*
G75*
G02*
X166200000Y-123700000I-2000000J0D01*
G01*
X168200000Y-74000000D02*
X168200000Y-121700000D01*
X166700000Y-120700000D02*
G75*
G02*
X163700000Y-120700000I-1500000J0D01*
G01*
X163700000Y-120700000D02*
G75*
G02*
X166700000Y-120700000I1500000J0D01*
G01*
D11*
%TO.C,OLED1*%
X127800000Y-83850000D02*
G75*
G02*
X124800000Y-83850000I-1500000J0D01*
G01*
X124800000Y-83850000D02*
G75*
G02*
X127800000Y-83850000I1500000J0D01*
G01*
X127800000Y-111850000D02*
G75*
G02*
X124800000Y-111850000I-1500000J0D01*
G01*
X124800000Y-111850000D02*
G75*
G02*
X127800000Y-111850000I1500000J0D01*
G01*
X158100000Y-83850000D02*
G75*
G02*
X155100000Y-83850000I-1500000J0D01*
G01*
X155100000Y-83850000D02*
G75*
G02*
X158100000Y-83850000I1500000J0D01*
G01*
X158100000Y-111850000D02*
G75*
G02*
X155100000Y-111850000I-1500000J0D01*
G01*
X155100000Y-111850000D02*
G75*
G02*
X158100000Y-111850000I1500000J0D01*
G01*
%TD*%
M02*
