%TF.GenerationSoftware,KiCad,Pcbnew,9.0.6*%
%TF.CreationDate,2026-08-18T17:14:54-04:00*%
%TF.ProjectId,OLED_Display_PCB,4f4c4544-5f44-4697-9370-6c61795f5043,rev?*%
%TF.SameCoordinates,Original*%
%TF.FileFunction,Legend,Bot*%
%TF.FilePolarity,Positive*%
%FSLAX46Y46*%
G04 Gerber Fmt 4.6, Leading zero omitted, Abs format (unit mm)*
G04 Created by KiCad (PCBNEW 9.0.6) date 2026-08-18 17:14:54*
%MOMM*%
%LPD*%
G01*
G04 APERTURE LIST*
%ADD10C,0.150000*%
%ADD11C,0.120000*%
G04 APERTURE END LIST*
D10*
X108783333Y-107954819D02*
X108783333Y-108669104D01*
X108783333Y-108669104D02*
X108830952Y-108811961D01*
X108830952Y-108811961D02*
X108926190Y-108907200D01*
X108926190Y-108907200D02*
X109069047Y-108954819D01*
X109069047Y-108954819D02*
X109164285Y-108954819D01*
X108402380Y-107954819D02*
X107783333Y-107954819D01*
X107783333Y-107954819D02*
X108116666Y-108335771D01*
X108116666Y-108335771D02*
X107973809Y-108335771D01*
X107973809Y-108335771D02*
X107878571Y-108383390D01*
X107878571Y-108383390D02*
X107830952Y-108431009D01*
X107830952Y-108431009D02*
X107783333Y-108526247D01*
X107783333Y-108526247D02*
X107783333Y-108764342D01*
X107783333Y-108764342D02*
X107830952Y-108859580D01*
X107830952Y-108859580D02*
X107878571Y-108907200D01*
X107878571Y-108907200D02*
X107973809Y-108954819D01*
X107973809Y-108954819D02*
X108259523Y-108954819D01*
X108259523Y-108954819D02*
X108354761Y-108907200D01*
X108354761Y-108907200D02*
X108402380Y-108859580D01*
D11*
%TO.C,J3*%
X100390000Y-109590000D02*
X116510000Y-109590000D01*
X100390000Y-110900000D02*
X101000000Y-110900000D01*
X100390000Y-112200000D02*
X101000000Y-112200000D01*
X100390000Y-114310000D02*
X100390000Y-109590000D01*
X101000000Y-110200000D02*
X102950000Y-110200000D01*
X101000000Y-113700000D02*
X101000000Y-110200000D01*
X102950000Y-110200000D02*
X102950000Y-109590000D01*
X103350000Y-113200000D02*
X103350000Y-113700000D01*
X103450000Y-113700000D02*
X103450000Y-113200000D01*
X103550000Y-113200000D02*
X103350000Y-113200000D01*
X103550000Y-113700000D02*
X103550000Y-113200000D01*
X105350000Y-113200000D02*
X105350000Y-113700000D01*
X105450000Y-113700000D02*
X105450000Y-113200000D01*
X105550000Y-113200000D02*
X105350000Y-113200000D01*
X105550000Y-113700000D02*
X105550000Y-113200000D01*
X107350000Y-113200000D02*
X107350000Y-113700000D01*
X107450000Y-113700000D02*
X107450000Y-113200000D01*
X107550000Y-113200000D02*
X107350000Y-113200000D01*
X107550000Y-113700000D02*
X107550000Y-113200000D01*
X109350000Y-113200000D02*
X109350000Y-113700000D01*
X109450000Y-113700000D02*
X109450000Y-113200000D01*
X109550000Y-113200000D02*
X109350000Y-113200000D01*
X109550000Y-113700000D02*
X109550000Y-113200000D01*
X111350000Y-113200000D02*
X111350000Y-113700000D01*
X111450000Y-113700000D02*
X111450000Y-113200000D01*
X111550000Y-113200000D02*
X111350000Y-113200000D01*
X111550000Y-113700000D02*
X111550000Y-113200000D01*
X113350000Y-113200000D02*
X113350000Y-113700000D01*
X113450000Y-113700000D02*
X113450000Y-113200000D01*
X113550000Y-113200000D02*
X113350000Y-113200000D01*
X113550000Y-113700000D02*
X113550000Y-113200000D01*
X113950000Y-109590000D02*
X113950000Y-110200000D01*
X113950000Y-110200000D02*
X115900000Y-110200000D01*
X114750000Y-109390000D02*
X115050000Y-109390000D01*
X114750000Y-109490000D02*
X115050000Y-109490000D01*
X114750000Y-109590000D02*
X114750000Y-109390000D01*
X115050000Y-109390000D02*
X115050000Y-109590000D01*
X115560000Y-109290000D02*
X116810000Y-109290000D01*
X115900000Y-110200000D02*
X115900000Y-113700000D01*
X115900000Y-113700000D02*
X101000000Y-113700000D01*
X116510000Y-109590000D02*
X116510000Y-114310000D01*
X116510000Y-110900000D02*
X115900000Y-110900000D01*
X116510000Y-112200000D02*
X115900000Y-112200000D01*
X116510000Y-114310000D02*
X100390000Y-114310000D01*
X116810000Y-109290000D02*
X116810000Y-110540000D01*
%TD*%
M02*
