%TF.GenerationSoftware,KiCad,Pcbnew,9.0.6*%
%TF.CreationDate,2026-08-18T17:14:54-04:00*%
%TF.ProjectId,OLED_Display_PCB,4f4c4544-5f44-4697-9370-6c61795f5043,rev?*%
%TF.SameCoordinates,Original*%
%TF.FileFunction,Legend,Top*%
%TF.FilePolarity,Positive*%
%FSLAX46Y46*%
G04 Gerber Fmt 4.6, Leading zero omitted, Abs format (unit mm)*
G04 Created by KiCad (PCBNEW 9.0.6) date 2026-08-18 17:14:54*
%MOMM*%
%LPD*%
G01*
G04 APERTURE LIST*
%ADD10C,0.100000*%
%ADD11C,0.150000*%
%ADD12C,0.120000*%
G04 APERTURE END LIST*
D10*
X140094360Y-112872419D02*
X140284836Y-112872419D01*
X140284836Y-112872419D02*
X140380074Y-112920038D01*
X140380074Y-112920038D02*
X140475312Y-113015276D01*
X140475312Y-113015276D02*
X140522931Y-113205752D01*
X140522931Y-113205752D02*
X140522931Y-113539085D01*
X140522931Y-113539085D02*
X140475312Y-113729561D01*
X140475312Y-113729561D02*
X140380074Y-113824800D01*
X140380074Y-113824800D02*
X140284836Y-113872419D01*
X140284836Y-113872419D02*
X140094360Y-113872419D01*
X140094360Y-113872419D02*
X139999122Y-113824800D01*
X139999122Y-113824800D02*
X139903884Y-113729561D01*
X139903884Y-113729561D02*
X139856265Y-113539085D01*
X139856265Y-113539085D02*
X139856265Y-113205752D01*
X139856265Y-113205752D02*
X139903884Y-113015276D01*
X139903884Y-113015276D02*
X139999122Y-112920038D01*
X139999122Y-112920038D02*
X140094360Y-112872419D01*
X141427693Y-113872419D02*
X140951503Y-113872419D01*
X140951503Y-113872419D02*
X140951503Y-112872419D01*
X141761027Y-113348609D02*
X142094360Y-113348609D01*
X142237217Y-113872419D02*
X141761027Y-113872419D01*
X141761027Y-113872419D02*
X141761027Y-112872419D01*
X141761027Y-112872419D02*
X142237217Y-112872419D01*
X142665789Y-113872419D02*
X142665789Y-112872419D01*
X142665789Y-112872419D02*
X142903884Y-112872419D01*
X142903884Y-112872419D02*
X143046741Y-112920038D01*
X143046741Y-112920038D02*
X143141979Y-113015276D01*
X143141979Y-113015276D02*
X143189598Y-113110514D01*
X143189598Y-113110514D02*
X143237217Y-113300990D01*
X143237217Y-113300990D02*
X143237217Y-113443847D01*
X143237217Y-113443847D02*
X143189598Y-113634323D01*
X143189598Y-113634323D02*
X143141979Y-113729561D01*
X143141979Y-113729561D02*
X143046741Y-113824800D01*
X143046741Y-113824800D02*
X142903884Y-113872419D01*
X142903884Y-113872419D02*
X142665789Y-113872419D01*
D11*
X101354819Y-105395238D02*
X100878628Y-105728571D01*
X101354819Y-105966666D02*
X100354819Y-105966666D01*
X100354819Y-105966666D02*
X100354819Y-105585714D01*
X100354819Y-105585714D02*
X100402438Y-105490476D01*
X100402438Y-105490476D02*
X100450057Y-105442857D01*
X100450057Y-105442857D02*
X100545295Y-105395238D01*
X100545295Y-105395238D02*
X100688152Y-105395238D01*
X100688152Y-105395238D02*
X100783390Y-105442857D01*
X100783390Y-105442857D02*
X100831009Y-105490476D01*
X100831009Y-105490476D02*
X100878628Y-105585714D01*
X100878628Y-105585714D02*
X100878628Y-105966666D01*
X101354819Y-104823809D02*
X101307200Y-104919047D01*
X101307200Y-104919047D02*
X101259580Y-104966666D01*
X101259580Y-104966666D02*
X101164342Y-105014285D01*
X101164342Y-105014285D02*
X100878628Y-105014285D01*
X100878628Y-105014285D02*
X100783390Y-104966666D01*
X100783390Y-104966666D02*
X100735771Y-104919047D01*
X100735771Y-104919047D02*
X100688152Y-104823809D01*
X100688152Y-104823809D02*
X100688152Y-104680952D01*
X100688152Y-104680952D02*
X100735771Y-104585714D01*
X100735771Y-104585714D02*
X100783390Y-104538095D01*
X100783390Y-104538095D02*
X100878628Y-104490476D01*
X100878628Y-104490476D02*
X101164342Y-104490476D01*
X101164342Y-104490476D02*
X101259580Y-104538095D01*
X101259580Y-104538095D02*
X101307200Y-104585714D01*
X101307200Y-104585714D02*
X101354819Y-104680952D01*
X101354819Y-104680952D02*
X101354819Y-104823809D01*
X100688152Y-104204761D02*
X100688152Y-103823809D01*
X100354819Y-104061904D02*
X101211961Y-104061904D01*
X101211961Y-104061904D02*
X101307200Y-104014285D01*
X101307200Y-104014285D02*
X101354819Y-103919047D01*
X101354819Y-103919047D02*
X101354819Y-103823809D01*
X101354819Y-103061904D02*
X100831009Y-103061904D01*
X100831009Y-103061904D02*
X100735771Y-103109523D01*
X100735771Y-103109523D02*
X100688152Y-103204761D01*
X100688152Y-103204761D02*
X100688152Y-103395237D01*
X100688152Y-103395237D02*
X100735771Y-103490475D01*
X101307200Y-103061904D02*
X101354819Y-103157142D01*
X101354819Y-103157142D02*
X101354819Y-103395237D01*
X101354819Y-103395237D02*
X101307200Y-103490475D01*
X101307200Y-103490475D02*
X101211961Y-103538094D01*
X101211961Y-103538094D02*
X101116723Y-103538094D01*
X101116723Y-103538094D02*
X101021485Y-103490475D01*
X101021485Y-103490475D02*
X100973866Y-103395237D01*
X100973866Y-103395237D02*
X100973866Y-103157142D01*
X100973866Y-103157142D02*
X100926247Y-103061904D01*
X101354819Y-102585713D02*
X100688152Y-102585713D01*
X100878628Y-102585713D02*
X100783390Y-102538094D01*
X100783390Y-102538094D02*
X100735771Y-102490475D01*
X100735771Y-102490475D02*
X100688152Y-102395237D01*
X100688152Y-102395237D02*
X100688152Y-102299999D01*
X100688152Y-102061903D02*
X101354819Y-101823808D01*
X100688152Y-101585713D02*
X101354819Y-101823808D01*
X101354819Y-101823808D02*
X101592914Y-101919046D01*
X101592914Y-101919046D02*
X101640533Y-101966665D01*
X101640533Y-101966665D02*
X101688152Y-102061903D01*
X101307200Y-101252379D02*
X101354819Y-101109522D01*
X101354819Y-101109522D02*
X101354819Y-100871427D01*
X101354819Y-100871427D02*
X101307200Y-100776189D01*
X101307200Y-100776189D02*
X101259580Y-100728570D01*
X101259580Y-100728570D02*
X101164342Y-100680951D01*
X101164342Y-100680951D02*
X101069104Y-100680951D01*
X101069104Y-100680951D02*
X100973866Y-100728570D01*
X100973866Y-100728570D02*
X100926247Y-100776189D01*
X100926247Y-100776189D02*
X100878628Y-100871427D01*
X100878628Y-100871427D02*
X100831009Y-101061903D01*
X100831009Y-101061903D02*
X100783390Y-101157141D01*
X100783390Y-101157141D02*
X100735771Y-101204760D01*
X100735771Y-101204760D02*
X100640533Y-101252379D01*
X100640533Y-101252379D02*
X100545295Y-101252379D01*
X100545295Y-101252379D02*
X100450057Y-101204760D01*
X100450057Y-101204760D02*
X100402438Y-101157141D01*
X100402438Y-101157141D02*
X100354819Y-101061903D01*
X100354819Y-101061903D02*
X100354819Y-100823808D01*
X100354819Y-100823808D02*
X100402438Y-100680951D01*
X100354819Y-100347617D02*
X101354819Y-100109522D01*
X101354819Y-100109522D02*
X100640533Y-99919046D01*
X100640533Y-99919046D02*
X101354819Y-99728570D01*
X101354819Y-99728570D02*
X100354819Y-99490475D01*
X101354819Y-98585713D02*
X101354819Y-99157141D01*
X101354819Y-98871427D02*
X100354819Y-98871427D01*
X100354819Y-98871427D02*
X100497676Y-98966665D01*
X100497676Y-98966665D02*
X100592914Y-99061903D01*
X100592914Y-99061903D02*
X100640533Y-99157141D01*
%TO.C,OLED1*%
D10*
X123700000Y-81000000D02*
X159200000Y-81000000D01*
X159200000Y-114700000D01*
X123700000Y-114700000D01*
X123700000Y-81000000D01*
D12*
%TO.C,RotarySW1*%
X102200000Y-91500000D02*
X104600000Y-91500000D01*
X102200000Y-95600000D02*
X102200000Y-91500000D01*
X102200000Y-99600000D02*
X102200000Y-103700000D01*
X102200000Y-103700000D02*
X114000000Y-103700000D01*
X104000000Y-104800000D02*
X104300000Y-105100000D01*
X104000000Y-105400000D02*
X104000000Y-104800000D01*
X104300000Y-105100000D02*
X104000000Y-105400000D01*
X106800000Y-91500000D02*
X109400000Y-91500000D01*
X107600000Y-97600000D02*
X108600000Y-97600000D01*
X108100000Y-98100000D02*
X108100000Y-97100000D01*
X111600000Y-91500000D02*
X114000000Y-91500000D01*
X114000000Y-91500000D02*
X114000000Y-95600000D01*
X114000000Y-99600000D02*
X114000000Y-103700000D01*
X111100000Y-97600000D02*
G75*
G02*
X105100000Y-97600000I-3000000J0D01*
G01*
X105100000Y-97600000D02*
G75*
G02*
X111100000Y-97600000I3000000J0D01*
G01*
%TD*%
M02*
