M48
; DRILL file {KiCad 9.0.6} date 2026-08-18T17:11:33-0400
; FORMAT={-:-/ absolute / metric / decimal}
; #@! TF.CreationDate,2026-08-18T17:11:33-04:00
; #@! TF.GenerationSoftware,Kicad,Pcbnew,9.0.6
; #@! TF.FileFunction,Plated,1,2,PTH
FMAT,2
METRIC
; #@! TA.AperFunction,Plated,PTH,ComponentDrill
T1C0.750
; #@! TA.AperFunction,Plated,PTH,ComponentDrill
T2C0.800
; #@! TA.AperFunction,Plated,PTH,ComponentDrill
T3C0.900
; #@! TA.AperFunction,Plated,PTH,ComponentDrill
T4C1.000
; #@! TA.AperFunction,Plated,PTH,ComponentDrill
T5C1.500
%
G90
G05
T1
X222.0Y-118.45
X224.0Y-118.45
X226.0Y-118.45
X228.0Y-118.45
X230.0Y-118.45
X232.0Y-118.45
X234.0Y-118.45
T2
X83.27Y-100.0
X93.43Y-100.0
X113.27Y-100.0
X123.43Y-100.0
X143.27Y-100.0
X153.43Y-100.0
X173.27Y-100.0
X183.43Y-100.0
X203.27Y-100.0
X213.43Y-100.0
T3
X76.73Y-100.0
X79.27Y-100.0
X106.73Y-100.0
X109.27Y-100.0
X136.73Y-100.0
X139.27Y-100.0
X166.73Y-100.0
X169.27Y-100.0
X196.73Y-100.0
X199.27Y-100.0
T5
X74.19Y-108.46
X80.54Y-105.92
X104.19Y-108.46
X110.54Y-105.92
X134.19Y-108.46
X140.54Y-105.92
X164.19Y-108.46
X170.54Y-105.92
X194.19Y-108.46
X200.54Y-105.92
T4
X223.3Y-103.75G85X223.3Y-102.25
G05
X228.0Y-103.75G85X228.0Y-102.25
G05
M30
