%TF.GenerationSoftware,KiCad,Pcbnew,9.0.6*%
%TF.CreationDate,2026-08-18T17:11:30-04:00*%
%TF.ProjectId,Administrative_Button_PCB,41646d69-6e69-4737-9472-61746976655f,rev?*%
%TF.SameCoordinates,Original*%
%TF.FileFunction,Copper,L2,Bot*%
%TF.FilePolarity,Positive*%
%FSLAX46Y46*%
G04 Gerber Fmt 4.6, Leading zero omitted, Abs format (unit mm)*
G04 Created by KiCad (PCBNEW 9.0.6) date 2026-08-18 17:11:30*
%MOMM*%
%LPD*%
G01*
G04 APERTURE LIST*
G04 Aperture macros list*
%AMRoundRect*
0 Rectangle with rounded corners*
0 $1 Rounding radius*
0 $2 $3 $4 $5 $6 $7 $8 $9 X,Y pos of 4 corners*
0 Add a 4 corners polygon primitive as box body*
4,1,4,$2,$3,$4,$5,$6,$7,$8,$9,$2,$3,0*
0 Add four circle primitives for the rounded corners*
1,1,$1+$1,$2,$3*
1,1,$1+$1,$4,$5*
1,1,$1+$1,$6,$7*
1,1,$1+$1,$8,$9*
0 Add four rect primitives between the rounded corners*
20,1,$1+$1,$2,$3,$4,$5,0*
20,1,$1+$1,$4,$5,$6,$7,0*
20,1,$1+$1,$6,$7,$8,$9,0*
20,1,$1+$1,$8,$9,$2,$3,0*%
G04 Aperture macros list end*
%TA.AperFunction,ComponentPad*%
%ADD10C,1.600000*%
%TD*%
%TA.AperFunction,ComponentPad*%
%ADD11C,2.200000*%
%TD*%
%TA.AperFunction,ComponentPad*%
%ADD12R,1.800000X1.800000*%
%TD*%
%TA.AperFunction,ComponentPad*%
%ADD13C,1.800000*%
%TD*%
%TA.AperFunction,ComponentPad*%
%ADD14RoundRect,0.225000X0.525000X1.275000X-0.525000X1.275000X-0.525000X-1.275000X0.525000X-1.275000X0*%
%TD*%
%TA.AperFunction,ComponentPad*%
%ADD15RoundRect,0.250000X0.350000X0.625000X-0.350000X0.625000X-0.350000X-0.625000X0.350000X-0.625000X0*%
%TD*%
%TA.AperFunction,ComponentPad*%
%ADD16O,1.200000X1.750000*%
%TD*%
%TA.AperFunction,Conductor*%
%ADD17C,0.200000*%
%TD*%
G04 APERTURE END LIST*
D10*
%TO.P,R3,1*%
%TO.N,Net-(D3-A)*%
X143270000Y-100000000D03*
%TO.P,R3,2*%
%TO.N,/3V3*%
X153430000Y-100000000D03*
%TD*%
%TO.P,R2,1*%
%TO.N,Net-(D2-A)*%
X173270000Y-100000000D03*
%TO.P,R2,2*%
%TO.N,/3V3*%
X183430000Y-100000000D03*
%TD*%
D11*
%TO.P,START1,1,A*%
%TO.N,/Start*%
X200540000Y-105920000D03*
%TO.P,START1,2,B*%
%TO.N,Net-(BACK1-B)*%
X194190000Y-108460000D03*
%TD*%
D12*
%TO.P,D3,1,K*%
%TO.N,/Guide*%
X136730000Y-100000000D03*
D13*
%TO.P,D3,2,A*%
%TO.N,Net-(D3-A)*%
X139270000Y-100000000D03*
%TD*%
D10*
%TO.P,R1,1*%
%TO.N,Net-(D1-A)*%
X203270000Y-100000000D03*
%TO.P,R1,2*%
%TO.N,/3V3*%
X213430000Y-100000000D03*
%TD*%
D12*
%TO.P,D2,1,K*%
%TO.N,/Options*%
X166730000Y-100000000D03*
D13*
%TO.P,D2,2,A*%
%TO.N,Net-(D2-A)*%
X169270000Y-100000000D03*
%TD*%
D10*
%TO.P,R4,1*%
%TO.N,Net-(D4-A)*%
X83270000Y-100000000D03*
%TO.P,R4,2*%
%TO.N,/3V3*%
X93430000Y-100000000D03*
%TD*%
D12*
%TO.P,D5,1,K*%
%TO.N,/R3*%
X106730000Y-100000000D03*
D13*
%TO.P,D5,2,A*%
%TO.N,Net-(D5-A)*%
X109270000Y-100000000D03*
%TD*%
D10*
%TO.P,R5,1*%
%TO.N,Net-(D5-A)*%
X113270000Y-100000000D03*
%TO.P,R5,2*%
%TO.N,/3V3*%
X123430000Y-100000000D03*
%TD*%
D11*
%TO.P,R3SW1,1,A*%
%TO.N,/R3*%
X110540000Y-105920000D03*
%TO.P,R3SW1,2,B*%
%TO.N,Net-(BACK1-B)*%
X104190000Y-108460000D03*
%TD*%
%TO.P,GUIDE1,1,A*%
%TO.N,/Guide*%
X140540000Y-105920000D03*
%TO.P,GUIDE1,2,B*%
%TO.N,Net-(BACK1-B)*%
X134190000Y-108460000D03*
%TD*%
D12*
%TO.P,D4,1,K*%
%TO.N,/L3*%
X76730000Y-100000000D03*
D13*
%TO.P,D4,2,A*%
%TO.N,Net-(D4-A)*%
X79270000Y-100000000D03*
%TD*%
D11*
%TO.P,BACK1,1,A*%
%TO.N,/Options*%
X170540000Y-105920000D03*
%TO.P,BACK1,2,B*%
%TO.N,Net-(BACK1-B)*%
X164190000Y-108460000D03*
%TD*%
D12*
%TO.P,D1,1,K*%
%TO.N,/Start*%
X196730000Y-100000000D03*
D13*
%TO.P,D1,2,A*%
%TO.N,Net-(D1-A)*%
X199270000Y-100000000D03*
%TD*%
D11*
%TO.P,L3SW1,1,A*%
%TO.N,/L3*%
X80540000Y-105920000D03*
%TO.P,L3SW1,2,B*%
%TO.N,Net-(BACK1-B)*%
X74190000Y-108460000D03*
%TD*%
D14*
%TO.P,Tournament_Lockout1,1,A*%
%TO.N,Net-(BACK1-B)*%
X228000000Y-103000002D03*
%TO.P,Tournament_Lockout1,2,B*%
%TO.N,/Gnd*%
X223300000Y-103000002D03*
%TD*%
D15*
%TO.P,J1,1,Pin_1*%
%TO.N,/Gnd*%
X234000000Y-118450000D03*
D16*
%TO.P,J1,2,Pin_2*%
%TO.N,/3V3*%
X232000000Y-118450000D03*
%TO.P,J1,3,Pin_3*%
%TO.N,/R3*%
X230000000Y-118450000D03*
%TO.P,J1,4,Pin_4*%
%TO.N,/L3*%
X228000000Y-118450000D03*
%TO.P,J1,5,Pin_5*%
%TO.N,/Guide*%
X226000000Y-118450000D03*
%TO.P,J1,6,Pin_6*%
%TO.N,/Options*%
X224000000Y-118450000D03*
%TO.P,J1,7,Pin_7*%
%TO.N,/Start*%
X222000000Y-118450000D03*
%TD*%
D17*
%TO.N,Net-(BACK1-B)*%
X104190000Y-110514816D02*
X118675186Y-125000002D01*
X238000000Y-122000002D02*
X235000000Y-125000002D01*
X164190000Y-108460000D02*
X164190000Y-110514816D01*
X134190000Y-108460000D02*
X134190000Y-110514816D01*
X194190000Y-111190002D02*
X208000000Y-125000002D01*
X88675186Y-125000002D02*
X74190000Y-110514816D01*
X74190000Y-110514816D02*
X74190000Y-108460000D01*
X134190000Y-110514816D02*
X148675186Y-125000002D01*
X194190000Y-108460000D02*
X194190000Y-111190002D01*
X208000000Y-125000002D02*
X178675186Y-125000002D01*
X178675186Y-125000002D02*
X148675186Y-125000002D01*
X118675186Y-125000002D02*
X88675186Y-125000002D01*
X164190000Y-110514816D02*
X178675186Y-125000002D01*
X228000000Y-103000002D02*
X238000000Y-113000002D01*
X238000000Y-113000002D02*
X238000000Y-122000002D01*
X235000000Y-125000002D02*
X208000000Y-125000002D01*
X148675186Y-125000002D02*
X118675186Y-125000002D01*
X104190000Y-108460000D02*
X104190000Y-110514816D01*
%TO.N,/R3*%
X111729998Y-95000002D02*
X214000000Y-95000002D01*
X217000000Y-98000002D02*
X217000000Y-104000002D01*
X214000000Y-95000002D02*
X217000000Y-98000002D01*
X230000000Y-117000002D02*
X230000000Y-118450000D01*
X217000000Y-104000002D02*
X230000000Y-117000002D01*
X106730000Y-100000000D02*
X111729998Y-95000002D01*
%TD*%
M02*
