%TF.GenerationSoftware,KiCad,Pcbnew,9.0.6*%
%TF.CreationDate,2026-08-18T17:13:03-04:00*%
%TF.ProjectId,Movement_Button_PCB,4d6f7665-6d65-46e7-945f-427574746f6e,rev?*%
%TF.SameCoordinates,Original*%
%TF.FileFunction,Profile,NP*%
%FSLAX46Y46*%
G04 Gerber Fmt 4.6, Leading zero omitted, Abs format (unit mm)*
G04 Created by KiCad (PCBNEW 9.0.6) date 2026-08-18 17:13:03*
%MOMM*%
%LPD*%
G01*
G04 APERTURE LIST*
%TA.AperFunction,Profile*%
%ADD10C,0.200000*%
%TD*%
G04 APERTURE END LIST*
D10*
X209000000Y-90416876D02*
X209000000Y-45416876D01*
X102500000Y-46416876D02*
G75*
G02*
X99500000Y-46416876I-1500000J0D01*
G01*
X99500000Y-46416876D02*
G75*
G02*
X102500000Y-46416876I1500000J0D01*
G01*
X154000000Y-157000000D02*
X154000000Y-94416875D01*
X99999999Y-159000000D02*
X152000001Y-159000000D01*
X99999998Y-43416876D02*
X207000000Y-43416876D01*
X154000000Y-157000000D02*
G75*
G02*
X152000001Y-159000000I-2000000J0D01*
G01*
X154000000Y-94416875D02*
G75*
G02*
X155999999Y-92416900I2000000J-25D01*
G01*
X102500000Y-156000000D02*
G75*
G02*
X99500000Y-156000000I-1500000J0D01*
G01*
X99500000Y-156000000D02*
G75*
G02*
X102500000Y-156000000I1500000J0D01*
G01*
X99999999Y-159000000D02*
G75*
G02*
X98000000Y-157000002I1J2000000D01*
G01*
X98000000Y-45416875D02*
G75*
G02*
X99999998Y-43416900I2000000J-25D01*
G01*
X152500000Y-156000000D02*
G75*
G02*
X149500000Y-156000000I-1500000J0D01*
G01*
X149500000Y-156000000D02*
G75*
G02*
X152500000Y-156000000I1500000J0D01*
G01*
X209000000Y-90416876D02*
G75*
G02*
X207000000Y-92416900I-2000000J-24D01*
G01*
X155999999Y-92416876D02*
X207000000Y-92416876D01*
X207500000Y-89416876D02*
G75*
G02*
X204500000Y-89416876I-1500000J0D01*
G01*
X204500000Y-89416876D02*
G75*
G02*
X207500000Y-89416876I1500000J0D01*
G01*
X207000000Y-43416876D02*
G75*
G02*
X209000024Y-45416876I0J-2000024D01*
G01*
X98000000Y-157000002D02*
X98000000Y-45416875D01*
X207500000Y-46416876D02*
G75*
G02*
X204500000Y-46416876I-1500000J0D01*
G01*
X204500000Y-46416876D02*
G75*
G02*
X207500000Y-46416876I1500000J0D01*
G01*
M02*
