%TF.GenerationSoftware,KiCad,Pcbnew,9.0.6*%
%TF.CreationDate,2026-08-18T17:13:03-04:00*%
%TF.ProjectId,Movement_Button_PCB,4d6f7665-6d65-46e7-945f-427574746f6e,rev?*%
%TF.SameCoordinates,Original*%
%TF.FileFunction,Legend,Top*%
%TF.FilePolarity,Positive*%
%FSLAX46Y46*%
G04 Gerber Fmt 4.6, Leading zero omitted, Abs format (unit mm)*
G04 Created by KiCad (PCBNEW 9.0.6) date 2026-08-18 17:13:03*
%MOMM*%
%LPD*%
G01*
G04 APERTURE LIST*
%ADD10C,0.150000*%
%ADD11C,0.120000*%
G04 APERTURE END LIST*
D10*
X149292857Y-63521695D02*
X149292857Y-62521695D01*
X149292857Y-62521695D02*
X149530952Y-62521695D01*
X149530952Y-62521695D02*
X149673809Y-62569314D01*
X149673809Y-62569314D02*
X149769047Y-62664552D01*
X149769047Y-62664552D02*
X149816666Y-62759790D01*
X149816666Y-62759790D02*
X149864285Y-62950266D01*
X149864285Y-62950266D02*
X149864285Y-63093123D01*
X149864285Y-63093123D02*
X149816666Y-63283599D01*
X149816666Y-63283599D02*
X149769047Y-63378837D01*
X149769047Y-63378837D02*
X149673809Y-63474076D01*
X149673809Y-63474076D02*
X149530952Y-63521695D01*
X149530952Y-63521695D02*
X149292857Y-63521695D01*
X150483333Y-62521695D02*
X150673809Y-62521695D01*
X150673809Y-62521695D02*
X150769047Y-62569314D01*
X150769047Y-62569314D02*
X150864285Y-62664552D01*
X150864285Y-62664552D02*
X150911904Y-62855028D01*
X150911904Y-62855028D02*
X150911904Y-63188361D01*
X150911904Y-63188361D02*
X150864285Y-63378837D01*
X150864285Y-63378837D02*
X150769047Y-63474076D01*
X150769047Y-63474076D02*
X150673809Y-63521695D01*
X150673809Y-63521695D02*
X150483333Y-63521695D01*
X150483333Y-63521695D02*
X150388095Y-63474076D01*
X150388095Y-63474076D02*
X150292857Y-63378837D01*
X150292857Y-63378837D02*
X150245238Y-63188361D01*
X150245238Y-63188361D02*
X150245238Y-62855028D01*
X150245238Y-62855028D02*
X150292857Y-62664552D01*
X150292857Y-62664552D02*
X150388095Y-62569314D01*
X150388095Y-62569314D02*
X150483333Y-62521695D01*
X151245238Y-62521695D02*
X151483333Y-63521695D01*
X151483333Y-63521695D02*
X151673809Y-62807409D01*
X151673809Y-62807409D02*
X151864285Y-63521695D01*
X151864285Y-63521695D02*
X152102381Y-62521695D01*
X152483333Y-63521695D02*
X152483333Y-62521695D01*
X152483333Y-62521695D02*
X153054761Y-63521695D01*
X153054761Y-63521695D02*
X153054761Y-62521695D01*
X154054761Y-63521695D02*
X153483333Y-63521695D01*
X153769047Y-63521695D02*
X153769047Y-62521695D01*
X153769047Y-62521695D02*
X153673809Y-62664552D01*
X153673809Y-62664552D02*
X153578571Y-62759790D01*
X153578571Y-62759790D02*
X153483333Y-62807409D01*
X121261905Y-120494819D02*
X121261905Y-119494819D01*
X121261905Y-119494819D02*
X121500000Y-119494819D01*
X121500000Y-119494819D02*
X121642857Y-119542438D01*
X121642857Y-119542438D02*
X121738095Y-119637676D01*
X121738095Y-119637676D02*
X121785714Y-119732914D01*
X121785714Y-119732914D02*
X121833333Y-119923390D01*
X121833333Y-119923390D02*
X121833333Y-120066247D01*
X121833333Y-120066247D02*
X121785714Y-120256723D01*
X121785714Y-120256723D02*
X121738095Y-120351961D01*
X121738095Y-120351961D02*
X121642857Y-120447200D01*
X121642857Y-120447200D02*
X121500000Y-120494819D01*
X121500000Y-120494819D02*
X121261905Y-120494819D01*
X122690476Y-119494819D02*
X122500000Y-119494819D01*
X122500000Y-119494819D02*
X122404762Y-119542438D01*
X122404762Y-119542438D02*
X122357143Y-119590057D01*
X122357143Y-119590057D02*
X122261905Y-119732914D01*
X122261905Y-119732914D02*
X122214286Y-119923390D01*
X122214286Y-119923390D02*
X122214286Y-120304342D01*
X122214286Y-120304342D02*
X122261905Y-120399580D01*
X122261905Y-120399580D02*
X122309524Y-120447200D01*
X122309524Y-120447200D02*
X122404762Y-120494819D01*
X122404762Y-120494819D02*
X122595238Y-120494819D01*
X122595238Y-120494819D02*
X122690476Y-120447200D01*
X122690476Y-120447200D02*
X122738095Y-120399580D01*
X122738095Y-120399580D02*
X122785714Y-120304342D01*
X122785714Y-120304342D02*
X122785714Y-120066247D01*
X122785714Y-120066247D02*
X122738095Y-119971009D01*
X122738095Y-119971009D02*
X122690476Y-119923390D01*
X122690476Y-119923390D02*
X122595238Y-119875771D01*
X122595238Y-119875771D02*
X122404762Y-119875771D01*
X122404762Y-119875771D02*
X122309524Y-119923390D01*
X122309524Y-119923390D02*
X122261905Y-119971009D01*
X122261905Y-119971009D02*
X122214286Y-120066247D01*
X124571428Y-80104819D02*
X124095238Y-80104819D01*
X124095238Y-80104819D02*
X124095238Y-79104819D01*
X124904762Y-79581009D02*
X125238095Y-79581009D01*
X125380952Y-80104819D02*
X124904762Y-80104819D01*
X124904762Y-80104819D02*
X124904762Y-79104819D01*
X124904762Y-79104819D02*
X125380952Y-79104819D01*
X126142857Y-79581009D02*
X125809524Y-79581009D01*
X125809524Y-80104819D02*
X125809524Y-79104819D01*
X125809524Y-79104819D02*
X126285714Y-79104819D01*
X126523810Y-79104819D02*
X127095238Y-79104819D01*
X126809524Y-80104819D02*
X126809524Y-79104819D01*
X127952381Y-80104819D02*
X127380953Y-80104819D01*
X127666667Y-80104819D02*
X127666667Y-79104819D01*
X127666667Y-79104819D02*
X127571429Y-79247676D01*
X127571429Y-79247676D02*
X127476191Y-79342914D01*
X127476191Y-79342914D02*
X127380953Y-79390533D01*
X129261905Y-70494819D02*
X129261905Y-69494819D01*
X129261905Y-69494819D02*
X129500000Y-69494819D01*
X129500000Y-69494819D02*
X129642857Y-69542438D01*
X129642857Y-69542438D02*
X129738095Y-69637676D01*
X129738095Y-69637676D02*
X129785714Y-69732914D01*
X129785714Y-69732914D02*
X129833333Y-69923390D01*
X129833333Y-69923390D02*
X129833333Y-70066247D01*
X129833333Y-70066247D02*
X129785714Y-70256723D01*
X129785714Y-70256723D02*
X129738095Y-70351961D01*
X129738095Y-70351961D02*
X129642857Y-70447200D01*
X129642857Y-70447200D02*
X129500000Y-70494819D01*
X129500000Y-70494819D02*
X129261905Y-70494819D01*
X130309524Y-70494819D02*
X130500000Y-70494819D01*
X130500000Y-70494819D02*
X130595238Y-70447200D01*
X130595238Y-70447200D02*
X130642857Y-70399580D01*
X130642857Y-70399580D02*
X130738095Y-70256723D01*
X130738095Y-70256723D02*
X130785714Y-70066247D01*
X130785714Y-70066247D02*
X130785714Y-69685295D01*
X130785714Y-69685295D02*
X130738095Y-69590057D01*
X130738095Y-69590057D02*
X130690476Y-69542438D01*
X130690476Y-69542438D02*
X130595238Y-69494819D01*
X130595238Y-69494819D02*
X130404762Y-69494819D01*
X130404762Y-69494819D02*
X130309524Y-69542438D01*
X130309524Y-69542438D02*
X130261905Y-69590057D01*
X130261905Y-69590057D02*
X130214286Y-69685295D01*
X130214286Y-69685295D02*
X130214286Y-69923390D01*
X130214286Y-69923390D02*
X130261905Y-70018628D01*
X130261905Y-70018628D02*
X130309524Y-70066247D01*
X130309524Y-70066247D02*
X130404762Y-70113866D01*
X130404762Y-70113866D02*
X130595238Y-70113866D01*
X130595238Y-70113866D02*
X130690476Y-70066247D01*
X130690476Y-70066247D02*
X130738095Y-70018628D01*
X130738095Y-70018628D02*
X130785714Y-69923390D01*
X154261905Y-53911695D02*
X154261905Y-52911695D01*
X154261905Y-52911695D02*
X154500000Y-52911695D01*
X154500000Y-52911695D02*
X154642857Y-52959314D01*
X154642857Y-52959314D02*
X154738095Y-53054552D01*
X154738095Y-53054552D02*
X154785714Y-53149790D01*
X154785714Y-53149790D02*
X154833333Y-53340266D01*
X154833333Y-53340266D02*
X154833333Y-53483123D01*
X154833333Y-53483123D02*
X154785714Y-53673599D01*
X154785714Y-53673599D02*
X154738095Y-53768837D01*
X154738095Y-53768837D02*
X154642857Y-53864076D01*
X154642857Y-53864076D02*
X154500000Y-53911695D01*
X154500000Y-53911695D02*
X154261905Y-53911695D01*
X155166667Y-52911695D02*
X155833333Y-52911695D01*
X155833333Y-52911695D02*
X155404762Y-53911695D01*
X195183333Y-54501695D02*
X194850000Y-54025504D01*
X194611905Y-54501695D02*
X194611905Y-53501695D01*
X194611905Y-53501695D02*
X194992857Y-53501695D01*
X194992857Y-53501695D02*
X195088095Y-53549314D01*
X195088095Y-53549314D02*
X195135714Y-53596933D01*
X195135714Y-53596933D02*
X195183333Y-53692171D01*
X195183333Y-53692171D02*
X195183333Y-53835028D01*
X195183333Y-53835028D02*
X195135714Y-53930266D01*
X195135714Y-53930266D02*
X195088095Y-53977885D01*
X195088095Y-53977885D02*
X194992857Y-54025504D01*
X194992857Y-54025504D02*
X194611905Y-54025504D01*
X195754762Y-53930266D02*
X195659524Y-53882647D01*
X195659524Y-53882647D02*
X195611905Y-53835028D01*
X195611905Y-53835028D02*
X195564286Y-53739790D01*
X195564286Y-53739790D02*
X195564286Y-53692171D01*
X195564286Y-53692171D02*
X195611905Y-53596933D01*
X195611905Y-53596933D02*
X195659524Y-53549314D01*
X195659524Y-53549314D02*
X195754762Y-53501695D01*
X195754762Y-53501695D02*
X195945238Y-53501695D01*
X195945238Y-53501695D02*
X196040476Y-53549314D01*
X196040476Y-53549314D02*
X196088095Y-53596933D01*
X196088095Y-53596933D02*
X196135714Y-53692171D01*
X196135714Y-53692171D02*
X196135714Y-53739790D01*
X196135714Y-53739790D02*
X196088095Y-53835028D01*
X196088095Y-53835028D02*
X196040476Y-53882647D01*
X196040476Y-53882647D02*
X195945238Y-53930266D01*
X195945238Y-53930266D02*
X195754762Y-53930266D01*
X195754762Y-53930266D02*
X195659524Y-53977885D01*
X195659524Y-53977885D02*
X195611905Y-54025504D01*
X195611905Y-54025504D02*
X195564286Y-54120742D01*
X195564286Y-54120742D02*
X195564286Y-54311218D01*
X195564286Y-54311218D02*
X195611905Y-54406456D01*
X195611905Y-54406456D02*
X195659524Y-54454076D01*
X195659524Y-54454076D02*
X195754762Y-54501695D01*
X195754762Y-54501695D02*
X195945238Y-54501695D01*
X195945238Y-54501695D02*
X196040476Y-54454076D01*
X196040476Y-54454076D02*
X196088095Y-54406456D01*
X196088095Y-54406456D02*
X196135714Y-54311218D01*
X196135714Y-54311218D02*
X196135714Y-54120742D01*
X196135714Y-54120742D02*
X196088095Y-54025504D01*
X196088095Y-54025504D02*
X196040476Y-53977885D01*
X196040476Y-53977885D02*
X195945238Y-53930266D01*
X132183333Y-122084819D02*
X131850000Y-121608628D01*
X131611905Y-122084819D02*
X131611905Y-121084819D01*
X131611905Y-121084819D02*
X131992857Y-121084819D01*
X131992857Y-121084819D02*
X132088095Y-121132438D01*
X132088095Y-121132438D02*
X132135714Y-121180057D01*
X132135714Y-121180057D02*
X132183333Y-121275295D01*
X132183333Y-121275295D02*
X132183333Y-121418152D01*
X132183333Y-121418152D02*
X132135714Y-121513390D01*
X132135714Y-121513390D02*
X132088095Y-121561009D01*
X132088095Y-121561009D02*
X131992857Y-121608628D01*
X131992857Y-121608628D02*
X131611905Y-121608628D01*
X133040476Y-121084819D02*
X132850000Y-121084819D01*
X132850000Y-121084819D02*
X132754762Y-121132438D01*
X132754762Y-121132438D02*
X132707143Y-121180057D01*
X132707143Y-121180057D02*
X132611905Y-121322914D01*
X132611905Y-121322914D02*
X132564286Y-121513390D01*
X132564286Y-121513390D02*
X132564286Y-121894342D01*
X132564286Y-121894342D02*
X132611905Y-121989580D01*
X132611905Y-121989580D02*
X132659524Y-122037200D01*
X132659524Y-122037200D02*
X132754762Y-122084819D01*
X132754762Y-122084819D02*
X132945238Y-122084819D01*
X132945238Y-122084819D02*
X133040476Y-122037200D01*
X133040476Y-122037200D02*
X133088095Y-121989580D01*
X133088095Y-121989580D02*
X133135714Y-121894342D01*
X133135714Y-121894342D02*
X133135714Y-121656247D01*
X133135714Y-121656247D02*
X133088095Y-121561009D01*
X133088095Y-121561009D02*
X133040476Y-121513390D01*
X133040476Y-121513390D02*
X132945238Y-121465771D01*
X132945238Y-121465771D02*
X132754762Y-121465771D01*
X132754762Y-121465771D02*
X132659524Y-121513390D01*
X132659524Y-121513390D02*
X132611905Y-121561009D01*
X132611905Y-121561009D02*
X132564286Y-121656247D01*
X184261905Y-52911695D02*
X184261905Y-51911695D01*
X184261905Y-51911695D02*
X184500000Y-51911695D01*
X184500000Y-51911695D02*
X184642857Y-51959314D01*
X184642857Y-51959314D02*
X184738095Y-52054552D01*
X184738095Y-52054552D02*
X184785714Y-52149790D01*
X184785714Y-52149790D02*
X184833333Y-52340266D01*
X184833333Y-52340266D02*
X184833333Y-52483123D01*
X184833333Y-52483123D02*
X184785714Y-52673599D01*
X184785714Y-52673599D02*
X184738095Y-52768837D01*
X184738095Y-52768837D02*
X184642857Y-52864076D01*
X184642857Y-52864076D02*
X184500000Y-52911695D01*
X184500000Y-52911695D02*
X184261905Y-52911695D01*
X185404762Y-52340266D02*
X185309524Y-52292647D01*
X185309524Y-52292647D02*
X185261905Y-52245028D01*
X185261905Y-52245028D02*
X185214286Y-52149790D01*
X185214286Y-52149790D02*
X185214286Y-52102171D01*
X185214286Y-52102171D02*
X185261905Y-52006933D01*
X185261905Y-52006933D02*
X185309524Y-51959314D01*
X185309524Y-51959314D02*
X185404762Y-51911695D01*
X185404762Y-51911695D02*
X185595238Y-51911695D01*
X185595238Y-51911695D02*
X185690476Y-51959314D01*
X185690476Y-51959314D02*
X185738095Y-52006933D01*
X185738095Y-52006933D02*
X185785714Y-52102171D01*
X185785714Y-52102171D02*
X185785714Y-52149790D01*
X185785714Y-52149790D02*
X185738095Y-52245028D01*
X185738095Y-52245028D02*
X185690476Y-52292647D01*
X185690476Y-52292647D02*
X185595238Y-52340266D01*
X185595238Y-52340266D02*
X185404762Y-52340266D01*
X185404762Y-52340266D02*
X185309524Y-52387885D01*
X185309524Y-52387885D02*
X185261905Y-52435504D01*
X185261905Y-52435504D02*
X185214286Y-52530742D01*
X185214286Y-52530742D02*
X185214286Y-52721218D01*
X185214286Y-52721218D02*
X185261905Y-52816456D01*
X185261905Y-52816456D02*
X185309524Y-52864076D01*
X185309524Y-52864076D02*
X185404762Y-52911695D01*
X185404762Y-52911695D02*
X185595238Y-52911695D01*
X185595238Y-52911695D02*
X185690476Y-52864076D01*
X185690476Y-52864076D02*
X185738095Y-52816456D01*
X185738095Y-52816456D02*
X185785714Y-52721218D01*
X185785714Y-52721218D02*
X185785714Y-52530742D01*
X185785714Y-52530742D02*
X185738095Y-52435504D01*
X185738095Y-52435504D02*
X185690476Y-52387885D01*
X185690476Y-52387885D02*
X185595238Y-52340266D01*
X140183333Y-72084819D02*
X139850000Y-71608628D01*
X139611905Y-72084819D02*
X139611905Y-71084819D01*
X139611905Y-71084819D02*
X139992857Y-71084819D01*
X139992857Y-71084819D02*
X140088095Y-71132438D01*
X140088095Y-71132438D02*
X140135714Y-71180057D01*
X140135714Y-71180057D02*
X140183333Y-71275295D01*
X140183333Y-71275295D02*
X140183333Y-71418152D01*
X140183333Y-71418152D02*
X140135714Y-71513390D01*
X140135714Y-71513390D02*
X140088095Y-71561009D01*
X140088095Y-71561009D02*
X139992857Y-71608628D01*
X139992857Y-71608628D02*
X139611905Y-71608628D01*
X140659524Y-72084819D02*
X140850000Y-72084819D01*
X140850000Y-72084819D02*
X140945238Y-72037200D01*
X140945238Y-72037200D02*
X140992857Y-71989580D01*
X140992857Y-71989580D02*
X141088095Y-71846723D01*
X141088095Y-71846723D02*
X141135714Y-71656247D01*
X141135714Y-71656247D02*
X141135714Y-71275295D01*
X141135714Y-71275295D02*
X141088095Y-71180057D01*
X141088095Y-71180057D02*
X141040476Y-71132438D01*
X141040476Y-71132438D02*
X140945238Y-71084819D01*
X140945238Y-71084819D02*
X140754762Y-71084819D01*
X140754762Y-71084819D02*
X140659524Y-71132438D01*
X140659524Y-71132438D02*
X140611905Y-71180057D01*
X140611905Y-71180057D02*
X140564286Y-71275295D01*
X140564286Y-71275295D02*
X140564286Y-71513390D01*
X140564286Y-71513390D02*
X140611905Y-71608628D01*
X140611905Y-71608628D02*
X140659524Y-71656247D01*
X140659524Y-71656247D02*
X140754762Y-71703866D01*
X140754762Y-71703866D02*
X140945238Y-71703866D01*
X140945238Y-71703866D02*
X141040476Y-71656247D01*
X141040476Y-71656247D02*
X141088095Y-71608628D01*
X141088095Y-71608628D02*
X141135714Y-71513390D01*
X165183333Y-55501695D02*
X164850000Y-55025504D01*
X164611905Y-55501695D02*
X164611905Y-54501695D01*
X164611905Y-54501695D02*
X164992857Y-54501695D01*
X164992857Y-54501695D02*
X165088095Y-54549314D01*
X165088095Y-54549314D02*
X165135714Y-54596933D01*
X165135714Y-54596933D02*
X165183333Y-54692171D01*
X165183333Y-54692171D02*
X165183333Y-54835028D01*
X165183333Y-54835028D02*
X165135714Y-54930266D01*
X165135714Y-54930266D02*
X165088095Y-54977885D01*
X165088095Y-54977885D02*
X164992857Y-55025504D01*
X164992857Y-55025504D02*
X164611905Y-55025504D01*
X165516667Y-54501695D02*
X166183333Y-54501695D01*
X166183333Y-54501695D02*
X165754762Y-55501695D01*
X116388095Y-129104819D02*
X116388095Y-129914342D01*
X116388095Y-129914342D02*
X116435714Y-130009580D01*
X116435714Y-130009580D02*
X116483333Y-130057200D01*
X116483333Y-130057200D02*
X116578571Y-130104819D01*
X116578571Y-130104819D02*
X116769047Y-130104819D01*
X116769047Y-130104819D02*
X116864285Y-130057200D01*
X116864285Y-130057200D02*
X116911904Y-130009580D01*
X116911904Y-130009580D02*
X116959523Y-129914342D01*
X116959523Y-129914342D02*
X116959523Y-129104819D01*
X117435714Y-130104819D02*
X117435714Y-129104819D01*
X117435714Y-129104819D02*
X117816666Y-129104819D01*
X117816666Y-129104819D02*
X117911904Y-129152438D01*
X117911904Y-129152438D02*
X117959523Y-129200057D01*
X117959523Y-129200057D02*
X118007142Y-129295295D01*
X118007142Y-129295295D02*
X118007142Y-129438152D01*
X118007142Y-129438152D02*
X117959523Y-129533390D01*
X117959523Y-129533390D02*
X117911904Y-129581009D01*
X117911904Y-129581009D02*
X117816666Y-129628628D01*
X117816666Y-129628628D02*
X117435714Y-129628628D01*
X118959523Y-130104819D02*
X118388095Y-130104819D01*
X118673809Y-130104819D02*
X118673809Y-129104819D01*
X118673809Y-129104819D02*
X118578571Y-129247676D01*
X118578571Y-129247676D02*
X118483333Y-129342914D01*
X118483333Y-129342914D02*
X118388095Y-129390533D01*
X179840476Y-62521695D02*
X179507143Y-62045504D01*
X179269048Y-62521695D02*
X179269048Y-61521695D01*
X179269048Y-61521695D02*
X179650000Y-61521695D01*
X179650000Y-61521695D02*
X179745238Y-61569314D01*
X179745238Y-61569314D02*
X179792857Y-61616933D01*
X179792857Y-61616933D02*
X179840476Y-61712171D01*
X179840476Y-61712171D02*
X179840476Y-61855028D01*
X179840476Y-61855028D02*
X179792857Y-61950266D01*
X179792857Y-61950266D02*
X179745238Y-61997885D01*
X179745238Y-61997885D02*
X179650000Y-62045504D01*
X179650000Y-62045504D02*
X179269048Y-62045504D01*
X180269048Y-62521695D02*
X180269048Y-61521695D01*
X181269047Y-61569314D02*
X181173809Y-61521695D01*
X181173809Y-61521695D02*
X181030952Y-61521695D01*
X181030952Y-61521695D02*
X180888095Y-61569314D01*
X180888095Y-61569314D02*
X180792857Y-61664552D01*
X180792857Y-61664552D02*
X180745238Y-61759790D01*
X180745238Y-61759790D02*
X180697619Y-61950266D01*
X180697619Y-61950266D02*
X180697619Y-62093123D01*
X180697619Y-62093123D02*
X180745238Y-62283599D01*
X180745238Y-62283599D02*
X180792857Y-62378837D01*
X180792857Y-62378837D02*
X180888095Y-62474076D01*
X180888095Y-62474076D02*
X181030952Y-62521695D01*
X181030952Y-62521695D02*
X181126190Y-62521695D01*
X181126190Y-62521695D02*
X181269047Y-62474076D01*
X181269047Y-62474076D02*
X181316666Y-62426456D01*
X181316666Y-62426456D02*
X181316666Y-62093123D01*
X181316666Y-62093123D02*
X181126190Y-62093123D01*
X181745238Y-62521695D02*
X181745238Y-61521695D01*
X181745238Y-61997885D02*
X182316666Y-61997885D01*
X182316666Y-62521695D02*
X182316666Y-61521695D01*
X182650000Y-61521695D02*
X183221428Y-61521695D01*
X182935714Y-62521695D02*
X182935714Y-61521695D01*
X184078571Y-62521695D02*
X183507143Y-62521695D01*
X183792857Y-62521695D02*
X183792857Y-61521695D01*
X183792857Y-61521695D02*
X183697619Y-61664552D01*
X183697619Y-61664552D02*
X183602381Y-61759790D01*
X183602381Y-61759790D02*
X183507143Y-61807409D01*
D11*
%TO.C,DOWN1*%
X148015000Y-61431876D02*
X161985000Y-61431876D01*
X148015000Y-75401876D02*
X148015000Y-61431876D01*
X161985000Y-61431876D02*
X161985000Y-75401876D01*
X161985000Y-75401876D02*
X148015000Y-75401876D01*
%TO.C,D6*%
X119440000Y-122455000D02*
X119440000Y-125545000D01*
X119440000Y-122455170D02*
G75*
G02*
X124990000Y-124000000I2560000J-1544830D01*
G01*
X124990000Y-124000000D02*
G75*
G02*
X119440000Y-125544830I-2990000J0D01*
G01*
X124500000Y-124000000D02*
G75*
G02*
X119500000Y-124000000I-2500000J0D01*
G01*
X119500000Y-124000000D02*
G75*
G02*
X124500000Y-124000000I2500000J0D01*
G01*
%TO.C,LEFT1*%
X123015000Y-78015000D02*
X136985000Y-78015000D01*
X123015000Y-91985000D02*
X123015000Y-78015000D01*
X136985000Y-78015000D02*
X136985000Y-91985000D01*
X136985000Y-91985000D02*
X123015000Y-91985000D01*
%TO.C,D9*%
X127440000Y-72455000D02*
X127440000Y-75545000D01*
X127440000Y-72455170D02*
G75*
G02*
X132990000Y-74000000I2560000J-1544830D01*
G01*
X132990000Y-74000000D02*
G75*
G02*
X127440000Y-75544830I-2990000J0D01*
G01*
X132500000Y-74000000D02*
G75*
G02*
X127500000Y-74000000I-2500000J0D01*
G01*
X127500000Y-74000000D02*
G75*
G02*
X132500000Y-74000000I2500000J0D01*
G01*
%TO.C,D7*%
X152440000Y-55871876D02*
X152440000Y-58961876D01*
X152440000Y-55872046D02*
G75*
G02*
X157990000Y-57416876I2560000J-1544830D01*
G01*
X157990000Y-57416876D02*
G75*
G02*
X152440000Y-58961706I-2990000J0D01*
G01*
X157500000Y-57416876D02*
G75*
G02*
X152500000Y-57416876I-2500000J0D01*
G01*
X152500000Y-57416876D02*
G75*
G02*
X157500000Y-57416876I2500000J0D01*
G01*
%TO.C,R8*%
X191310000Y-56416876D02*
X192080000Y-56416876D01*
X199390000Y-56416876D02*
X198620000Y-56416876D01*
X192080000Y-55046876D02*
X198620000Y-55046876D01*
X198620000Y-57786876D01*
X192080000Y-57786876D01*
X192080000Y-55046876D01*
%TO.C,R6*%
X128310000Y-124000000D02*
X129080000Y-124000000D01*
X136390000Y-124000000D02*
X135620000Y-124000000D01*
X129080000Y-122630000D02*
X135620000Y-122630000D01*
X135620000Y-125370000D01*
X129080000Y-125370000D01*
X129080000Y-122630000D01*
%TO.C,D8*%
X182440000Y-54871876D02*
X182440000Y-57961876D01*
X182440000Y-54872046D02*
G75*
G02*
X187990000Y-56416876I2560000J-1544830D01*
G01*
X187990000Y-56416876D02*
G75*
G02*
X182440000Y-57961706I-2990000J0D01*
G01*
X187500000Y-56416876D02*
G75*
G02*
X182500000Y-56416876I-2500000J0D01*
G01*
X182500000Y-56416876D02*
G75*
G02*
X187500000Y-56416876I2500000J0D01*
G01*
%TO.C,R9*%
X136310000Y-74000000D02*
X137080000Y-74000000D01*
X144390000Y-74000000D02*
X143620000Y-74000000D01*
X137080000Y-72630000D02*
X143620000Y-72630000D01*
X143620000Y-75370000D01*
X137080000Y-75370000D01*
X137080000Y-72630000D01*
%TO.C,R7*%
X161310000Y-57416876D02*
X162080000Y-57416876D01*
X169390000Y-57416876D02*
X168620000Y-57416876D01*
X162080000Y-56046876D02*
X168620000Y-56046876D01*
X168620000Y-58786876D01*
X162080000Y-58786876D01*
X162080000Y-56046876D01*
%TO.C,UP1*%
X115015000Y-128015000D02*
X128985000Y-128015000D01*
X115015000Y-141985000D02*
X115015000Y-128015000D01*
X128985000Y-128015000D02*
X128985000Y-141985000D01*
X128985000Y-141985000D02*
X115015000Y-141985000D01*
%TO.C,RIGHT1*%
X178015000Y-60431876D02*
X191985000Y-60431876D01*
X178015000Y-74401876D02*
X178015000Y-60431876D01*
X191985000Y-60431876D02*
X191985000Y-74401876D01*
X191985000Y-74401876D02*
X178015000Y-74401876D01*
%TD*%
M02*
