%TF.GenerationSoftware,KiCad,Pcbnew,9.0.6*%
%TF.CreationDate,2026-08-18T17:08:37-04:00*%
%TF.ProjectId,Administrative_Button_PCB,41646d69-6e69-4737-9472-61746976655f,rev?*%
%TF.SameCoordinates,Original*%
%TF.FileFunction,Soldermask,Top*%
%TF.FilePolarity,Negative*%
%FSLAX46Y46*%
G04 Gerber Fmt 4.6, Leading zero omitted, Abs format (unit mm)*
G04 Created by KiCad (PCBNEW 9.0.6) date 2026-08-18 17:08:37*
%MOMM*%
%LPD*%
G01*
G04 APERTURE LIST*
G04 Aperture macros list*
%AMRoundRect*
0 Rectangle with rounded corners*
0 $1 Rounding radius*
0 $2 $3 $4 $5 $6 $7 $8 $9 X,Y pos of 4 corners*
0 Add a 4 corners polygon primitive as box body*
4,1,4,$2,$3,$4,$5,$6,$7,$8,$9,$2,$3,0*
0 Add four circle primitives for the rounded corners*
1,1,$1+$1,$2,$3*
1,1,$1+$1,$4,$5*
1,1,$1+$1,$6,$7*
1,1,$1+$1,$8,$9*
0 Add four rect primitives between the rounded corners*
20,1,$1+$1,$2,$3,$4,$5,0*
20,1,$1+$1,$4,$5,$6,$7,0*
20,1,$1+$1,$6,$7,$8,$9,0*
20,1,$1+$1,$8,$9,$2,$3,0*%
G04 Aperture macros list end*
%ADD10C,1.600000*%
%ADD11C,1.700000*%
%ADD12C,4.000000*%
%ADD13C,2.200000*%
%ADD14R,1.800000X1.800000*%
%ADD15C,1.800000*%
%ADD16RoundRect,0.225000X0.525000X1.275000X-0.525000X1.275000X-0.525000X-1.275000X0.525000X-1.275000X0*%
%ADD17RoundRect,0.250000X0.350000X0.625000X-0.350000X0.625000X-0.350000X-0.625000X0.350000X-0.625000X0*%
%ADD18O,1.200000X1.750000*%
G04 APERTURE END LIST*
D10*
%TO.C,R3*%
X143270000Y-100000000D03*
X153430000Y-100000000D03*
%TD*%
%TO.C,R2*%
X173270000Y-100000000D03*
X183430000Y-100000000D03*
%TD*%
D11*
%TO.C,START1*%
X192920000Y-111000000D03*
D12*
X198000000Y-111000000D03*
D11*
X203080000Y-111000000D03*
D13*
X200540000Y-105920000D03*
X194190000Y-108460000D03*
%TD*%
D14*
%TO.C,D3*%
X136730000Y-100000000D03*
D15*
X139270000Y-100000000D03*
%TD*%
D10*
%TO.C,R1*%
X203270000Y-100000000D03*
X213430000Y-100000000D03*
%TD*%
D14*
%TO.C,D2*%
X166730000Y-100000000D03*
D15*
X169270000Y-100000000D03*
%TD*%
D10*
%TO.C,R4*%
X83270000Y-100000000D03*
X93430000Y-100000000D03*
%TD*%
D14*
%TO.C,D5*%
X106730000Y-100000000D03*
D15*
X109270000Y-100000000D03*
%TD*%
D10*
%TO.C,R5*%
X113270000Y-100000000D03*
X123430000Y-100000000D03*
%TD*%
D11*
%TO.C,R3SW1*%
X102920000Y-111000000D03*
D12*
X108000000Y-111000000D03*
D11*
X113080000Y-111000000D03*
D13*
X110540000Y-105920000D03*
X104190000Y-108460000D03*
%TD*%
D11*
%TO.C,GUIDE1*%
X132920000Y-111000000D03*
D12*
X138000000Y-111000000D03*
D11*
X143080000Y-111000000D03*
D13*
X140540000Y-105920000D03*
X134190000Y-108460000D03*
%TD*%
D14*
%TO.C,D4*%
X76730000Y-100000000D03*
D15*
X79270000Y-100000000D03*
%TD*%
D11*
%TO.C,BACK1*%
X162920000Y-111000000D03*
D12*
X168000000Y-111000000D03*
D11*
X173080000Y-111000000D03*
D13*
X170540000Y-105920000D03*
X164190000Y-108460000D03*
%TD*%
D14*
%TO.C,D1*%
X196730000Y-100000000D03*
D15*
X199270000Y-100000000D03*
%TD*%
D11*
%TO.C,L3SW1*%
X72920000Y-111000000D03*
D12*
X78000000Y-111000000D03*
D11*
X83080000Y-111000000D03*
D13*
X80540000Y-105920000D03*
X74190000Y-108460000D03*
%TD*%
D16*
%TO.C,Tournament_Lockout1*%
X228000000Y-103000002D03*
X223300000Y-103000002D03*
%TD*%
D17*
%TO.C,J1*%
X234000000Y-118450000D03*
D18*
X232000000Y-118450000D03*
X230000000Y-118450000D03*
X228000000Y-118450000D03*
X226000000Y-118450000D03*
X224000000Y-118450000D03*
X222000000Y-118450000D03*
%TD*%
M02*
