%TF.GenerationSoftware,KiCad,Pcbnew,9.0.6*%
%TF.CreationDate,2026-08-18T17:08:37-04:00*%
%TF.ProjectId,Administrative_Button_PCB,41646d69-6e69-4737-9472-61746976655f,rev?*%
%TF.SameCoordinates,Original*%
%TF.FileFunction,Legend,Top*%
%TF.FilePolarity,Positive*%
%FSLAX46Y46*%
G04 Gerber Fmt 4.6, Leading zero omitted, Abs format (unit mm)*
G04 Created by KiCad (PCBNEW 9.0.6) date 2026-08-18 17:08:37*
%MOMM*%
%LPD*%
G01*
G04 APERTURE LIST*
%ADD10C,0.150000*%
%ADD11C,0.100000*%
%ADD12C,0.120000*%
G04 APERTURE END LIST*
D10*
X148183333Y-98084819D02*
X147850000Y-97608628D01*
X147611905Y-98084819D02*
X147611905Y-97084819D01*
X147611905Y-97084819D02*
X147992857Y-97084819D01*
X147992857Y-97084819D02*
X148088095Y-97132438D01*
X148088095Y-97132438D02*
X148135714Y-97180057D01*
X148135714Y-97180057D02*
X148183333Y-97275295D01*
X148183333Y-97275295D02*
X148183333Y-97418152D01*
X148183333Y-97418152D02*
X148135714Y-97513390D01*
X148135714Y-97513390D02*
X148088095Y-97561009D01*
X148088095Y-97561009D02*
X147992857Y-97608628D01*
X147992857Y-97608628D02*
X147611905Y-97608628D01*
X148516667Y-97084819D02*
X149135714Y-97084819D01*
X149135714Y-97084819D02*
X148802381Y-97465771D01*
X148802381Y-97465771D02*
X148945238Y-97465771D01*
X148945238Y-97465771D02*
X149040476Y-97513390D01*
X149040476Y-97513390D02*
X149088095Y-97561009D01*
X149088095Y-97561009D02*
X149135714Y-97656247D01*
X149135714Y-97656247D02*
X149135714Y-97894342D01*
X149135714Y-97894342D02*
X149088095Y-97989580D01*
X149088095Y-97989580D02*
X149040476Y-98037200D01*
X149040476Y-98037200D02*
X148945238Y-98084819D01*
X148945238Y-98084819D02*
X148659524Y-98084819D01*
X148659524Y-98084819D02*
X148564286Y-98037200D01*
X148564286Y-98037200D02*
X148516667Y-97989580D01*
X178183333Y-98084819D02*
X177850000Y-97608628D01*
X177611905Y-98084819D02*
X177611905Y-97084819D01*
X177611905Y-97084819D02*
X177992857Y-97084819D01*
X177992857Y-97084819D02*
X178088095Y-97132438D01*
X178088095Y-97132438D02*
X178135714Y-97180057D01*
X178135714Y-97180057D02*
X178183333Y-97275295D01*
X178183333Y-97275295D02*
X178183333Y-97418152D01*
X178183333Y-97418152D02*
X178135714Y-97513390D01*
X178135714Y-97513390D02*
X178088095Y-97561009D01*
X178088095Y-97561009D02*
X177992857Y-97608628D01*
X177992857Y-97608628D02*
X177611905Y-97608628D01*
X178564286Y-97180057D02*
X178611905Y-97132438D01*
X178611905Y-97132438D02*
X178707143Y-97084819D01*
X178707143Y-97084819D02*
X178945238Y-97084819D01*
X178945238Y-97084819D02*
X179040476Y-97132438D01*
X179040476Y-97132438D02*
X179088095Y-97180057D01*
X179088095Y-97180057D02*
X179135714Y-97275295D01*
X179135714Y-97275295D02*
X179135714Y-97370533D01*
X179135714Y-97370533D02*
X179088095Y-97513390D01*
X179088095Y-97513390D02*
X178516667Y-98084819D01*
X178516667Y-98084819D02*
X179135714Y-98084819D01*
X192197619Y-106057200D02*
X192340476Y-106104819D01*
X192340476Y-106104819D02*
X192578571Y-106104819D01*
X192578571Y-106104819D02*
X192673809Y-106057200D01*
X192673809Y-106057200D02*
X192721428Y-106009580D01*
X192721428Y-106009580D02*
X192769047Y-105914342D01*
X192769047Y-105914342D02*
X192769047Y-105819104D01*
X192769047Y-105819104D02*
X192721428Y-105723866D01*
X192721428Y-105723866D02*
X192673809Y-105676247D01*
X192673809Y-105676247D02*
X192578571Y-105628628D01*
X192578571Y-105628628D02*
X192388095Y-105581009D01*
X192388095Y-105581009D02*
X192292857Y-105533390D01*
X192292857Y-105533390D02*
X192245238Y-105485771D01*
X192245238Y-105485771D02*
X192197619Y-105390533D01*
X192197619Y-105390533D02*
X192197619Y-105295295D01*
X192197619Y-105295295D02*
X192245238Y-105200057D01*
X192245238Y-105200057D02*
X192292857Y-105152438D01*
X192292857Y-105152438D02*
X192388095Y-105104819D01*
X192388095Y-105104819D02*
X192626190Y-105104819D01*
X192626190Y-105104819D02*
X192769047Y-105152438D01*
X193054762Y-105104819D02*
X193626190Y-105104819D01*
X193340476Y-106104819D02*
X193340476Y-105104819D01*
X193911905Y-105819104D02*
X194388095Y-105819104D01*
X193816667Y-106104819D02*
X194150000Y-105104819D01*
X194150000Y-105104819D02*
X194483333Y-106104819D01*
X195388095Y-106104819D02*
X195054762Y-105628628D01*
X194816667Y-106104819D02*
X194816667Y-105104819D01*
X194816667Y-105104819D02*
X195197619Y-105104819D01*
X195197619Y-105104819D02*
X195292857Y-105152438D01*
X195292857Y-105152438D02*
X195340476Y-105200057D01*
X195340476Y-105200057D02*
X195388095Y-105295295D01*
X195388095Y-105295295D02*
X195388095Y-105438152D01*
X195388095Y-105438152D02*
X195340476Y-105533390D01*
X195340476Y-105533390D02*
X195292857Y-105581009D01*
X195292857Y-105581009D02*
X195197619Y-105628628D01*
X195197619Y-105628628D02*
X194816667Y-105628628D01*
X195673810Y-105104819D02*
X196245238Y-105104819D01*
X195959524Y-106104819D02*
X195959524Y-105104819D01*
X197102381Y-106104819D02*
X196530953Y-106104819D01*
X196816667Y-106104819D02*
X196816667Y-105104819D01*
X196816667Y-105104819D02*
X196721429Y-105247676D01*
X196721429Y-105247676D02*
X196626191Y-105342914D01*
X196626191Y-105342914D02*
X196530953Y-105390533D01*
X137261905Y-96494819D02*
X137261905Y-95494819D01*
X137261905Y-95494819D02*
X137500000Y-95494819D01*
X137500000Y-95494819D02*
X137642857Y-95542438D01*
X137642857Y-95542438D02*
X137738095Y-95637676D01*
X137738095Y-95637676D02*
X137785714Y-95732914D01*
X137785714Y-95732914D02*
X137833333Y-95923390D01*
X137833333Y-95923390D02*
X137833333Y-96066247D01*
X137833333Y-96066247D02*
X137785714Y-96256723D01*
X137785714Y-96256723D02*
X137738095Y-96351961D01*
X137738095Y-96351961D02*
X137642857Y-96447200D01*
X137642857Y-96447200D02*
X137500000Y-96494819D01*
X137500000Y-96494819D02*
X137261905Y-96494819D01*
X138166667Y-95494819D02*
X138785714Y-95494819D01*
X138785714Y-95494819D02*
X138452381Y-95875771D01*
X138452381Y-95875771D02*
X138595238Y-95875771D01*
X138595238Y-95875771D02*
X138690476Y-95923390D01*
X138690476Y-95923390D02*
X138738095Y-95971009D01*
X138738095Y-95971009D02*
X138785714Y-96066247D01*
X138785714Y-96066247D02*
X138785714Y-96304342D01*
X138785714Y-96304342D02*
X138738095Y-96399580D01*
X138738095Y-96399580D02*
X138690476Y-96447200D01*
X138690476Y-96447200D02*
X138595238Y-96494819D01*
X138595238Y-96494819D02*
X138309524Y-96494819D01*
X138309524Y-96494819D02*
X138214286Y-96447200D01*
X138214286Y-96447200D02*
X138166667Y-96399580D01*
X208183333Y-98084819D02*
X207850000Y-97608628D01*
X207611905Y-98084819D02*
X207611905Y-97084819D01*
X207611905Y-97084819D02*
X207992857Y-97084819D01*
X207992857Y-97084819D02*
X208088095Y-97132438D01*
X208088095Y-97132438D02*
X208135714Y-97180057D01*
X208135714Y-97180057D02*
X208183333Y-97275295D01*
X208183333Y-97275295D02*
X208183333Y-97418152D01*
X208183333Y-97418152D02*
X208135714Y-97513390D01*
X208135714Y-97513390D02*
X208088095Y-97561009D01*
X208088095Y-97561009D02*
X207992857Y-97608628D01*
X207992857Y-97608628D02*
X207611905Y-97608628D01*
X209135714Y-98084819D02*
X208564286Y-98084819D01*
X208850000Y-98084819D02*
X208850000Y-97084819D01*
X208850000Y-97084819D02*
X208754762Y-97227676D01*
X208754762Y-97227676D02*
X208659524Y-97322914D01*
X208659524Y-97322914D02*
X208564286Y-97370533D01*
X167261905Y-96494819D02*
X167261905Y-95494819D01*
X167261905Y-95494819D02*
X167500000Y-95494819D01*
X167500000Y-95494819D02*
X167642857Y-95542438D01*
X167642857Y-95542438D02*
X167738095Y-95637676D01*
X167738095Y-95637676D02*
X167785714Y-95732914D01*
X167785714Y-95732914D02*
X167833333Y-95923390D01*
X167833333Y-95923390D02*
X167833333Y-96066247D01*
X167833333Y-96066247D02*
X167785714Y-96256723D01*
X167785714Y-96256723D02*
X167738095Y-96351961D01*
X167738095Y-96351961D02*
X167642857Y-96447200D01*
X167642857Y-96447200D02*
X167500000Y-96494819D01*
X167500000Y-96494819D02*
X167261905Y-96494819D01*
X168214286Y-95590057D02*
X168261905Y-95542438D01*
X168261905Y-95542438D02*
X168357143Y-95494819D01*
X168357143Y-95494819D02*
X168595238Y-95494819D01*
X168595238Y-95494819D02*
X168690476Y-95542438D01*
X168690476Y-95542438D02*
X168738095Y-95590057D01*
X168738095Y-95590057D02*
X168785714Y-95685295D01*
X168785714Y-95685295D02*
X168785714Y-95780533D01*
X168785714Y-95780533D02*
X168738095Y-95923390D01*
X168738095Y-95923390D02*
X168166667Y-96494819D01*
X168166667Y-96494819D02*
X168785714Y-96494819D01*
X88183333Y-98084819D02*
X87850000Y-97608628D01*
X87611905Y-98084819D02*
X87611905Y-97084819D01*
X87611905Y-97084819D02*
X87992857Y-97084819D01*
X87992857Y-97084819D02*
X88088095Y-97132438D01*
X88088095Y-97132438D02*
X88135714Y-97180057D01*
X88135714Y-97180057D02*
X88183333Y-97275295D01*
X88183333Y-97275295D02*
X88183333Y-97418152D01*
X88183333Y-97418152D02*
X88135714Y-97513390D01*
X88135714Y-97513390D02*
X88088095Y-97561009D01*
X88088095Y-97561009D02*
X87992857Y-97608628D01*
X87992857Y-97608628D02*
X87611905Y-97608628D01*
X89040476Y-97418152D02*
X89040476Y-98084819D01*
X88802381Y-97037200D02*
X88564286Y-97751485D01*
X88564286Y-97751485D02*
X89183333Y-97751485D01*
X107261905Y-96494819D02*
X107261905Y-95494819D01*
X107261905Y-95494819D02*
X107500000Y-95494819D01*
X107500000Y-95494819D02*
X107642857Y-95542438D01*
X107642857Y-95542438D02*
X107738095Y-95637676D01*
X107738095Y-95637676D02*
X107785714Y-95732914D01*
X107785714Y-95732914D02*
X107833333Y-95923390D01*
X107833333Y-95923390D02*
X107833333Y-96066247D01*
X107833333Y-96066247D02*
X107785714Y-96256723D01*
X107785714Y-96256723D02*
X107738095Y-96351961D01*
X107738095Y-96351961D02*
X107642857Y-96447200D01*
X107642857Y-96447200D02*
X107500000Y-96494819D01*
X107500000Y-96494819D02*
X107261905Y-96494819D01*
X108738095Y-95494819D02*
X108261905Y-95494819D01*
X108261905Y-95494819D02*
X108214286Y-95971009D01*
X108214286Y-95971009D02*
X108261905Y-95923390D01*
X108261905Y-95923390D02*
X108357143Y-95875771D01*
X108357143Y-95875771D02*
X108595238Y-95875771D01*
X108595238Y-95875771D02*
X108690476Y-95923390D01*
X108690476Y-95923390D02*
X108738095Y-95971009D01*
X108738095Y-95971009D02*
X108785714Y-96066247D01*
X108785714Y-96066247D02*
X108785714Y-96304342D01*
X108785714Y-96304342D02*
X108738095Y-96399580D01*
X108738095Y-96399580D02*
X108690476Y-96447200D01*
X108690476Y-96447200D02*
X108595238Y-96494819D01*
X108595238Y-96494819D02*
X108357143Y-96494819D01*
X108357143Y-96494819D02*
X108261905Y-96447200D01*
X108261905Y-96447200D02*
X108214286Y-96399580D01*
X118183333Y-98084819D02*
X117850000Y-97608628D01*
X117611905Y-98084819D02*
X117611905Y-97084819D01*
X117611905Y-97084819D02*
X117992857Y-97084819D01*
X117992857Y-97084819D02*
X118088095Y-97132438D01*
X118088095Y-97132438D02*
X118135714Y-97180057D01*
X118135714Y-97180057D02*
X118183333Y-97275295D01*
X118183333Y-97275295D02*
X118183333Y-97418152D01*
X118183333Y-97418152D02*
X118135714Y-97513390D01*
X118135714Y-97513390D02*
X118088095Y-97561009D01*
X118088095Y-97561009D02*
X117992857Y-97608628D01*
X117992857Y-97608628D02*
X117611905Y-97608628D01*
X119088095Y-97084819D02*
X118611905Y-97084819D01*
X118611905Y-97084819D02*
X118564286Y-97561009D01*
X118564286Y-97561009D02*
X118611905Y-97513390D01*
X118611905Y-97513390D02*
X118707143Y-97465771D01*
X118707143Y-97465771D02*
X118945238Y-97465771D01*
X118945238Y-97465771D02*
X119040476Y-97513390D01*
X119040476Y-97513390D02*
X119088095Y-97561009D01*
X119088095Y-97561009D02*
X119135714Y-97656247D01*
X119135714Y-97656247D02*
X119135714Y-97894342D01*
X119135714Y-97894342D02*
X119088095Y-97989580D01*
X119088095Y-97989580D02*
X119040476Y-98037200D01*
X119040476Y-98037200D02*
X118945238Y-98084819D01*
X118945238Y-98084819D02*
X118707143Y-98084819D01*
X118707143Y-98084819D02*
X118611905Y-98037200D01*
X118611905Y-98037200D02*
X118564286Y-97989580D01*
X102959523Y-106104819D02*
X102626190Y-105628628D01*
X102388095Y-106104819D02*
X102388095Y-105104819D01*
X102388095Y-105104819D02*
X102769047Y-105104819D01*
X102769047Y-105104819D02*
X102864285Y-105152438D01*
X102864285Y-105152438D02*
X102911904Y-105200057D01*
X102911904Y-105200057D02*
X102959523Y-105295295D01*
X102959523Y-105295295D02*
X102959523Y-105438152D01*
X102959523Y-105438152D02*
X102911904Y-105533390D01*
X102911904Y-105533390D02*
X102864285Y-105581009D01*
X102864285Y-105581009D02*
X102769047Y-105628628D01*
X102769047Y-105628628D02*
X102388095Y-105628628D01*
X103292857Y-105104819D02*
X103911904Y-105104819D01*
X103911904Y-105104819D02*
X103578571Y-105485771D01*
X103578571Y-105485771D02*
X103721428Y-105485771D01*
X103721428Y-105485771D02*
X103816666Y-105533390D01*
X103816666Y-105533390D02*
X103864285Y-105581009D01*
X103864285Y-105581009D02*
X103911904Y-105676247D01*
X103911904Y-105676247D02*
X103911904Y-105914342D01*
X103911904Y-105914342D02*
X103864285Y-106009580D01*
X103864285Y-106009580D02*
X103816666Y-106057200D01*
X103816666Y-106057200D02*
X103721428Y-106104819D01*
X103721428Y-106104819D02*
X103435714Y-106104819D01*
X103435714Y-106104819D02*
X103340476Y-106057200D01*
X103340476Y-106057200D02*
X103292857Y-106009580D01*
X104292857Y-106057200D02*
X104435714Y-106104819D01*
X104435714Y-106104819D02*
X104673809Y-106104819D01*
X104673809Y-106104819D02*
X104769047Y-106057200D01*
X104769047Y-106057200D02*
X104816666Y-106009580D01*
X104816666Y-106009580D02*
X104864285Y-105914342D01*
X104864285Y-105914342D02*
X104864285Y-105819104D01*
X104864285Y-105819104D02*
X104816666Y-105723866D01*
X104816666Y-105723866D02*
X104769047Y-105676247D01*
X104769047Y-105676247D02*
X104673809Y-105628628D01*
X104673809Y-105628628D02*
X104483333Y-105581009D01*
X104483333Y-105581009D02*
X104388095Y-105533390D01*
X104388095Y-105533390D02*
X104340476Y-105485771D01*
X104340476Y-105485771D02*
X104292857Y-105390533D01*
X104292857Y-105390533D02*
X104292857Y-105295295D01*
X104292857Y-105295295D02*
X104340476Y-105200057D01*
X104340476Y-105200057D02*
X104388095Y-105152438D01*
X104388095Y-105152438D02*
X104483333Y-105104819D01*
X104483333Y-105104819D02*
X104721428Y-105104819D01*
X104721428Y-105104819D02*
X104864285Y-105152438D01*
X105197619Y-105104819D02*
X105435714Y-106104819D01*
X105435714Y-106104819D02*
X105626190Y-105390533D01*
X105626190Y-105390533D02*
X105816666Y-106104819D01*
X105816666Y-106104819D02*
X106054762Y-105104819D01*
X106959523Y-106104819D02*
X106388095Y-106104819D01*
X106673809Y-106104819D02*
X106673809Y-105104819D01*
X106673809Y-105104819D02*
X106578571Y-105247676D01*
X106578571Y-105247676D02*
X106483333Y-105342914D01*
X106483333Y-105342914D02*
X106388095Y-105390533D01*
X132721428Y-105152440D02*
X132626190Y-105104821D01*
X132626190Y-105104821D02*
X132483333Y-105104821D01*
X132483333Y-105104821D02*
X132340476Y-105152440D01*
X132340476Y-105152440D02*
X132245238Y-105247678D01*
X132245238Y-105247678D02*
X132197619Y-105342916D01*
X132197619Y-105342916D02*
X132150000Y-105533392D01*
X132150000Y-105533392D02*
X132150000Y-105676249D01*
X132150000Y-105676249D02*
X132197619Y-105866725D01*
X132197619Y-105866725D02*
X132245238Y-105961963D01*
X132245238Y-105961963D02*
X132340476Y-106057202D01*
X132340476Y-106057202D02*
X132483333Y-106104821D01*
X132483333Y-106104821D02*
X132578571Y-106104821D01*
X132578571Y-106104821D02*
X132721428Y-106057202D01*
X132721428Y-106057202D02*
X132769047Y-106009582D01*
X132769047Y-106009582D02*
X132769047Y-105676249D01*
X132769047Y-105676249D02*
X132578571Y-105676249D01*
X133197619Y-105104821D02*
X133197619Y-105914344D01*
X133197619Y-105914344D02*
X133245238Y-106009582D01*
X133245238Y-106009582D02*
X133292857Y-106057202D01*
X133292857Y-106057202D02*
X133388095Y-106104821D01*
X133388095Y-106104821D02*
X133578571Y-106104821D01*
X133578571Y-106104821D02*
X133673809Y-106057202D01*
X133673809Y-106057202D02*
X133721428Y-106009582D01*
X133721428Y-106009582D02*
X133769047Y-105914344D01*
X133769047Y-105914344D02*
X133769047Y-105104821D01*
X134245238Y-106104821D02*
X134245238Y-105104821D01*
X134721428Y-106104821D02*
X134721428Y-105104821D01*
X134721428Y-105104821D02*
X134959523Y-105104821D01*
X134959523Y-105104821D02*
X135102380Y-105152440D01*
X135102380Y-105152440D02*
X135197618Y-105247678D01*
X135197618Y-105247678D02*
X135245237Y-105342916D01*
X135245237Y-105342916D02*
X135292856Y-105533392D01*
X135292856Y-105533392D02*
X135292856Y-105676249D01*
X135292856Y-105676249D02*
X135245237Y-105866725D01*
X135245237Y-105866725D02*
X135197618Y-105961963D01*
X135197618Y-105961963D02*
X135102380Y-106057202D01*
X135102380Y-106057202D02*
X134959523Y-106104821D01*
X134959523Y-106104821D02*
X134721428Y-106104821D01*
X135721428Y-105581011D02*
X136054761Y-105581011D01*
X136197618Y-106104821D02*
X135721428Y-106104821D01*
X135721428Y-106104821D02*
X135721428Y-105104821D01*
X135721428Y-105104821D02*
X136197618Y-105104821D01*
X137149999Y-106104821D02*
X136578571Y-106104821D01*
X136864285Y-106104821D02*
X136864285Y-105104821D01*
X136864285Y-105104821D02*
X136769047Y-105247678D01*
X136769047Y-105247678D02*
X136673809Y-105342916D01*
X136673809Y-105342916D02*
X136578571Y-105390535D01*
X77261905Y-96494819D02*
X77261905Y-95494819D01*
X77261905Y-95494819D02*
X77500000Y-95494819D01*
X77500000Y-95494819D02*
X77642857Y-95542438D01*
X77642857Y-95542438D02*
X77738095Y-95637676D01*
X77738095Y-95637676D02*
X77785714Y-95732914D01*
X77785714Y-95732914D02*
X77833333Y-95923390D01*
X77833333Y-95923390D02*
X77833333Y-96066247D01*
X77833333Y-96066247D02*
X77785714Y-96256723D01*
X77785714Y-96256723D02*
X77738095Y-96351961D01*
X77738095Y-96351961D02*
X77642857Y-96447200D01*
X77642857Y-96447200D02*
X77500000Y-96494819D01*
X77500000Y-96494819D02*
X77261905Y-96494819D01*
X78690476Y-95828152D02*
X78690476Y-96494819D01*
X78452381Y-95447200D02*
X78214286Y-96161485D01*
X78214286Y-96161485D02*
X78833333Y-96161485D01*
X162816666Y-105581009D02*
X162959523Y-105628628D01*
X162959523Y-105628628D02*
X163007142Y-105676247D01*
X163007142Y-105676247D02*
X163054761Y-105771485D01*
X163054761Y-105771485D02*
X163054761Y-105914342D01*
X163054761Y-105914342D02*
X163007142Y-106009580D01*
X163007142Y-106009580D02*
X162959523Y-106057200D01*
X162959523Y-106057200D02*
X162864285Y-106104819D01*
X162864285Y-106104819D02*
X162483333Y-106104819D01*
X162483333Y-106104819D02*
X162483333Y-105104819D01*
X162483333Y-105104819D02*
X162816666Y-105104819D01*
X162816666Y-105104819D02*
X162911904Y-105152438D01*
X162911904Y-105152438D02*
X162959523Y-105200057D01*
X162959523Y-105200057D02*
X163007142Y-105295295D01*
X163007142Y-105295295D02*
X163007142Y-105390533D01*
X163007142Y-105390533D02*
X162959523Y-105485771D01*
X162959523Y-105485771D02*
X162911904Y-105533390D01*
X162911904Y-105533390D02*
X162816666Y-105581009D01*
X162816666Y-105581009D02*
X162483333Y-105581009D01*
X163435714Y-105819104D02*
X163911904Y-105819104D01*
X163340476Y-106104819D02*
X163673809Y-105104819D01*
X163673809Y-105104819D02*
X164007142Y-106104819D01*
X164911904Y-106009580D02*
X164864285Y-106057200D01*
X164864285Y-106057200D02*
X164721428Y-106104819D01*
X164721428Y-106104819D02*
X164626190Y-106104819D01*
X164626190Y-106104819D02*
X164483333Y-106057200D01*
X164483333Y-106057200D02*
X164388095Y-105961961D01*
X164388095Y-105961961D02*
X164340476Y-105866723D01*
X164340476Y-105866723D02*
X164292857Y-105676247D01*
X164292857Y-105676247D02*
X164292857Y-105533390D01*
X164292857Y-105533390D02*
X164340476Y-105342914D01*
X164340476Y-105342914D02*
X164388095Y-105247676D01*
X164388095Y-105247676D02*
X164483333Y-105152438D01*
X164483333Y-105152438D02*
X164626190Y-105104819D01*
X164626190Y-105104819D02*
X164721428Y-105104819D01*
X164721428Y-105104819D02*
X164864285Y-105152438D01*
X164864285Y-105152438D02*
X164911904Y-105200057D01*
X165340476Y-106104819D02*
X165340476Y-105104819D01*
X165911904Y-106104819D02*
X165483333Y-105533390D01*
X165911904Y-105104819D02*
X165340476Y-105676247D01*
X166864285Y-106104819D02*
X166292857Y-106104819D01*
X166578571Y-106104819D02*
X166578571Y-105104819D01*
X166578571Y-105104819D02*
X166483333Y-105247676D01*
X166483333Y-105247676D02*
X166388095Y-105342914D01*
X166388095Y-105342914D02*
X166292857Y-105390533D01*
X197261905Y-96494819D02*
X197261905Y-95494819D01*
X197261905Y-95494819D02*
X197500000Y-95494819D01*
X197500000Y-95494819D02*
X197642857Y-95542438D01*
X197642857Y-95542438D02*
X197738095Y-95637676D01*
X197738095Y-95637676D02*
X197785714Y-95732914D01*
X197785714Y-95732914D02*
X197833333Y-95923390D01*
X197833333Y-95923390D02*
X197833333Y-96066247D01*
X197833333Y-96066247D02*
X197785714Y-96256723D01*
X197785714Y-96256723D02*
X197738095Y-96351961D01*
X197738095Y-96351961D02*
X197642857Y-96447200D01*
X197642857Y-96447200D02*
X197500000Y-96494819D01*
X197500000Y-96494819D02*
X197261905Y-96494819D01*
X198785714Y-96494819D02*
X198214286Y-96494819D01*
X198500000Y-96494819D02*
X198500000Y-95494819D01*
X198500000Y-95494819D02*
X198404762Y-95637676D01*
X198404762Y-95637676D02*
X198309524Y-95732914D01*
X198309524Y-95732914D02*
X198214286Y-95780533D01*
X72959523Y-106104819D02*
X72483333Y-106104819D01*
X72483333Y-106104819D02*
X72483333Y-105104819D01*
X73197619Y-105104819D02*
X73816666Y-105104819D01*
X73816666Y-105104819D02*
X73483333Y-105485771D01*
X73483333Y-105485771D02*
X73626190Y-105485771D01*
X73626190Y-105485771D02*
X73721428Y-105533390D01*
X73721428Y-105533390D02*
X73769047Y-105581009D01*
X73769047Y-105581009D02*
X73816666Y-105676247D01*
X73816666Y-105676247D02*
X73816666Y-105914342D01*
X73816666Y-105914342D02*
X73769047Y-106009580D01*
X73769047Y-106009580D02*
X73721428Y-106057200D01*
X73721428Y-106057200D02*
X73626190Y-106104819D01*
X73626190Y-106104819D02*
X73340476Y-106104819D01*
X73340476Y-106104819D02*
X73245238Y-106057200D01*
X73245238Y-106057200D02*
X73197619Y-106009580D01*
X74197619Y-106057200D02*
X74340476Y-106104819D01*
X74340476Y-106104819D02*
X74578571Y-106104819D01*
X74578571Y-106104819D02*
X74673809Y-106057200D01*
X74673809Y-106057200D02*
X74721428Y-106009580D01*
X74721428Y-106009580D02*
X74769047Y-105914342D01*
X74769047Y-105914342D02*
X74769047Y-105819104D01*
X74769047Y-105819104D02*
X74721428Y-105723866D01*
X74721428Y-105723866D02*
X74673809Y-105676247D01*
X74673809Y-105676247D02*
X74578571Y-105628628D01*
X74578571Y-105628628D02*
X74388095Y-105581009D01*
X74388095Y-105581009D02*
X74292857Y-105533390D01*
X74292857Y-105533390D02*
X74245238Y-105485771D01*
X74245238Y-105485771D02*
X74197619Y-105390533D01*
X74197619Y-105390533D02*
X74197619Y-105295295D01*
X74197619Y-105295295D02*
X74245238Y-105200057D01*
X74245238Y-105200057D02*
X74292857Y-105152438D01*
X74292857Y-105152438D02*
X74388095Y-105104819D01*
X74388095Y-105104819D02*
X74626190Y-105104819D01*
X74626190Y-105104819D02*
X74769047Y-105152438D01*
X75102381Y-105104819D02*
X75340476Y-106104819D01*
X75340476Y-106104819D02*
X75530952Y-105390533D01*
X75530952Y-105390533D02*
X75721428Y-106104819D01*
X75721428Y-106104819D02*
X75959524Y-105104819D01*
X76864285Y-106104819D02*
X76292857Y-106104819D01*
X76578571Y-106104819D02*
X76578571Y-105104819D01*
X76578571Y-105104819D02*
X76483333Y-105247676D01*
X76483333Y-105247676D02*
X76388095Y-105342914D01*
X76388095Y-105342914D02*
X76292857Y-105390533D01*
D11*
X219023808Y-96457419D02*
X219595236Y-96457419D01*
X219309522Y-97457419D02*
X219309522Y-96457419D01*
X220071427Y-97457419D02*
X219976189Y-97409800D01*
X219976189Y-97409800D02*
X219928570Y-97362180D01*
X219928570Y-97362180D02*
X219880951Y-97266942D01*
X219880951Y-97266942D02*
X219880951Y-96981228D01*
X219880951Y-96981228D02*
X219928570Y-96885990D01*
X219928570Y-96885990D02*
X219976189Y-96838371D01*
X219976189Y-96838371D02*
X220071427Y-96790752D01*
X220071427Y-96790752D02*
X220214284Y-96790752D01*
X220214284Y-96790752D02*
X220309522Y-96838371D01*
X220309522Y-96838371D02*
X220357141Y-96885990D01*
X220357141Y-96885990D02*
X220404760Y-96981228D01*
X220404760Y-96981228D02*
X220404760Y-97266942D01*
X220404760Y-97266942D02*
X220357141Y-97362180D01*
X220357141Y-97362180D02*
X220309522Y-97409800D01*
X220309522Y-97409800D02*
X220214284Y-97457419D01*
X220214284Y-97457419D02*
X220071427Y-97457419D01*
X221261903Y-96790752D02*
X221261903Y-97457419D01*
X220833332Y-96790752D02*
X220833332Y-97314561D01*
X220833332Y-97314561D02*
X220880951Y-97409800D01*
X220880951Y-97409800D02*
X220976189Y-97457419D01*
X220976189Y-97457419D02*
X221119046Y-97457419D01*
X221119046Y-97457419D02*
X221214284Y-97409800D01*
X221214284Y-97409800D02*
X221261903Y-97362180D01*
X221738094Y-97457419D02*
X221738094Y-96790752D01*
X221738094Y-96981228D02*
X221785713Y-96885990D01*
X221785713Y-96885990D02*
X221833332Y-96838371D01*
X221833332Y-96838371D02*
X221928570Y-96790752D01*
X221928570Y-96790752D02*
X222023808Y-96790752D01*
X222357142Y-96790752D02*
X222357142Y-97457419D01*
X222357142Y-96885990D02*
X222404761Y-96838371D01*
X222404761Y-96838371D02*
X222499999Y-96790752D01*
X222499999Y-96790752D02*
X222642856Y-96790752D01*
X222642856Y-96790752D02*
X222738094Y-96838371D01*
X222738094Y-96838371D02*
X222785713Y-96933609D01*
X222785713Y-96933609D02*
X222785713Y-97457419D01*
X223690475Y-97457419D02*
X223690475Y-96933609D01*
X223690475Y-96933609D02*
X223642856Y-96838371D01*
X223642856Y-96838371D02*
X223547618Y-96790752D01*
X223547618Y-96790752D02*
X223357142Y-96790752D01*
X223357142Y-96790752D02*
X223261904Y-96838371D01*
X223690475Y-97409800D02*
X223595237Y-97457419D01*
X223595237Y-97457419D02*
X223357142Y-97457419D01*
X223357142Y-97457419D02*
X223261904Y-97409800D01*
X223261904Y-97409800D02*
X223214285Y-97314561D01*
X223214285Y-97314561D02*
X223214285Y-97219323D01*
X223214285Y-97219323D02*
X223261904Y-97124085D01*
X223261904Y-97124085D02*
X223357142Y-97076466D01*
X223357142Y-97076466D02*
X223595237Y-97076466D01*
X223595237Y-97076466D02*
X223690475Y-97028847D01*
X224166666Y-97457419D02*
X224166666Y-96790752D01*
X224166666Y-96885990D02*
X224214285Y-96838371D01*
X224214285Y-96838371D02*
X224309523Y-96790752D01*
X224309523Y-96790752D02*
X224452380Y-96790752D01*
X224452380Y-96790752D02*
X224547618Y-96838371D01*
X224547618Y-96838371D02*
X224595237Y-96933609D01*
X224595237Y-96933609D02*
X224595237Y-97457419D01*
X224595237Y-96933609D02*
X224642856Y-96838371D01*
X224642856Y-96838371D02*
X224738094Y-96790752D01*
X224738094Y-96790752D02*
X224880951Y-96790752D01*
X224880951Y-96790752D02*
X224976190Y-96838371D01*
X224976190Y-96838371D02*
X225023809Y-96933609D01*
X225023809Y-96933609D02*
X225023809Y-97457419D01*
X225880951Y-97409800D02*
X225785713Y-97457419D01*
X225785713Y-97457419D02*
X225595237Y-97457419D01*
X225595237Y-97457419D02*
X225499999Y-97409800D01*
X225499999Y-97409800D02*
X225452380Y-97314561D01*
X225452380Y-97314561D02*
X225452380Y-96933609D01*
X225452380Y-96933609D02*
X225499999Y-96838371D01*
X225499999Y-96838371D02*
X225595237Y-96790752D01*
X225595237Y-96790752D02*
X225785713Y-96790752D01*
X225785713Y-96790752D02*
X225880951Y-96838371D01*
X225880951Y-96838371D02*
X225928570Y-96933609D01*
X225928570Y-96933609D02*
X225928570Y-97028847D01*
X225928570Y-97028847D02*
X225452380Y-97124085D01*
X226357142Y-96790752D02*
X226357142Y-97457419D01*
X226357142Y-96885990D02*
X226404761Y-96838371D01*
X226404761Y-96838371D02*
X226499999Y-96790752D01*
X226499999Y-96790752D02*
X226642856Y-96790752D01*
X226642856Y-96790752D02*
X226738094Y-96838371D01*
X226738094Y-96838371D02*
X226785713Y-96933609D01*
X226785713Y-96933609D02*
X226785713Y-97457419D01*
X227119047Y-96790752D02*
X227499999Y-96790752D01*
X227261904Y-96457419D02*
X227261904Y-97314561D01*
X227261904Y-97314561D02*
X227309523Y-97409800D01*
X227309523Y-97409800D02*
X227404761Y-97457419D01*
X227404761Y-97457419D02*
X227499999Y-97457419D01*
X227595238Y-97552657D02*
X228357142Y-97552657D01*
X229071428Y-97457419D02*
X228595238Y-97457419D01*
X228595238Y-97457419D02*
X228595238Y-96457419D01*
X229547619Y-97457419D02*
X229452381Y-97409800D01*
X229452381Y-97409800D02*
X229404762Y-97362180D01*
X229404762Y-97362180D02*
X229357143Y-97266942D01*
X229357143Y-97266942D02*
X229357143Y-96981228D01*
X229357143Y-96981228D02*
X229404762Y-96885990D01*
X229404762Y-96885990D02*
X229452381Y-96838371D01*
X229452381Y-96838371D02*
X229547619Y-96790752D01*
X229547619Y-96790752D02*
X229690476Y-96790752D01*
X229690476Y-96790752D02*
X229785714Y-96838371D01*
X229785714Y-96838371D02*
X229833333Y-96885990D01*
X229833333Y-96885990D02*
X229880952Y-96981228D01*
X229880952Y-96981228D02*
X229880952Y-97266942D01*
X229880952Y-97266942D02*
X229833333Y-97362180D01*
X229833333Y-97362180D02*
X229785714Y-97409800D01*
X229785714Y-97409800D02*
X229690476Y-97457419D01*
X229690476Y-97457419D02*
X229547619Y-97457419D01*
X230738095Y-97409800D02*
X230642857Y-97457419D01*
X230642857Y-97457419D02*
X230452381Y-97457419D01*
X230452381Y-97457419D02*
X230357143Y-97409800D01*
X230357143Y-97409800D02*
X230309524Y-97362180D01*
X230309524Y-97362180D02*
X230261905Y-97266942D01*
X230261905Y-97266942D02*
X230261905Y-96981228D01*
X230261905Y-96981228D02*
X230309524Y-96885990D01*
X230309524Y-96885990D02*
X230357143Y-96838371D01*
X230357143Y-96838371D02*
X230452381Y-96790752D01*
X230452381Y-96790752D02*
X230642857Y-96790752D01*
X230642857Y-96790752D02*
X230738095Y-96838371D01*
X231166667Y-97457419D02*
X231166667Y-96457419D01*
X231261905Y-97076466D02*
X231547619Y-97457419D01*
X231547619Y-96790752D02*
X231166667Y-97171704D01*
X232119048Y-97457419D02*
X232023810Y-97409800D01*
X232023810Y-97409800D02*
X231976191Y-97362180D01*
X231976191Y-97362180D02*
X231928572Y-97266942D01*
X231928572Y-97266942D02*
X231928572Y-96981228D01*
X231928572Y-96981228D02*
X231976191Y-96885990D01*
X231976191Y-96885990D02*
X232023810Y-96838371D01*
X232023810Y-96838371D02*
X232119048Y-96790752D01*
X232119048Y-96790752D02*
X232261905Y-96790752D01*
X232261905Y-96790752D02*
X232357143Y-96838371D01*
X232357143Y-96838371D02*
X232404762Y-96885990D01*
X232404762Y-96885990D02*
X232452381Y-96981228D01*
X232452381Y-96981228D02*
X232452381Y-97266942D01*
X232452381Y-97266942D02*
X232404762Y-97362180D01*
X232404762Y-97362180D02*
X232357143Y-97409800D01*
X232357143Y-97409800D02*
X232261905Y-97457419D01*
X232261905Y-97457419D02*
X232119048Y-97457419D01*
X233309524Y-96790752D02*
X233309524Y-97457419D01*
X232880953Y-96790752D02*
X232880953Y-97314561D01*
X232880953Y-97314561D02*
X232928572Y-97409800D01*
X232928572Y-97409800D02*
X233023810Y-97457419D01*
X233023810Y-97457419D02*
X233166667Y-97457419D01*
X233166667Y-97457419D02*
X233261905Y-97409800D01*
X233261905Y-97409800D02*
X233309524Y-97362180D01*
X233642858Y-96790752D02*
X234023810Y-96790752D01*
X233785715Y-96457419D02*
X233785715Y-97314561D01*
X233785715Y-97314561D02*
X233833334Y-97409800D01*
X233833334Y-97409800D02*
X233928572Y-97457419D01*
X233928572Y-97457419D02*
X234023810Y-97457419D01*
X234880953Y-97457419D02*
X234309525Y-97457419D01*
X234595239Y-97457419D02*
X234595239Y-96457419D01*
X234595239Y-96457419D02*
X234500001Y-96600276D01*
X234500001Y-96600276D02*
X234404763Y-96695514D01*
X234404763Y-96695514D02*
X234309525Y-96743133D01*
D12*
%TO.C,R3*%
X144310000Y-100000000D02*
X145080000Y-100000000D01*
X152390000Y-100000000D02*
X151620000Y-100000000D01*
X145080000Y-98630000D02*
X151620000Y-98630000D01*
X151620000Y-101370000D01*
X145080000Y-101370000D01*
X145080000Y-98630000D01*
%TO.C,R2*%
X174310000Y-100000000D02*
X175080000Y-100000000D01*
X182390000Y-100000000D02*
X181620000Y-100000000D01*
X175080000Y-98630000D02*
X181620000Y-98630000D01*
X181620000Y-101370000D01*
X175080000Y-101370000D01*
X175080000Y-98630000D01*
%TO.C,START1*%
X191015000Y-104015000D02*
X204985000Y-104015000D01*
X191015000Y-117985000D02*
X191015000Y-104015000D01*
X204985000Y-104015000D02*
X204985000Y-117985000D01*
X204985000Y-117985000D02*
X191015000Y-117985000D01*
%TO.C,D3*%
X135440000Y-98455000D02*
X135440000Y-101545000D01*
X135440000Y-98455170D02*
G75*
G02*
X140990000Y-100000000I2560000J-1544830D01*
G01*
X140990000Y-100000000D02*
G75*
G02*
X135440000Y-101544830I-2990000J0D01*
G01*
X140500000Y-100000000D02*
G75*
G02*
X135500000Y-100000000I-2500000J0D01*
G01*
X135500000Y-100000000D02*
G75*
G02*
X140500000Y-100000000I2500000J0D01*
G01*
%TO.C,R1*%
X204310000Y-100000000D02*
X205080000Y-100000000D01*
X212390000Y-100000000D02*
X211620000Y-100000000D01*
X205080000Y-98630000D02*
X211620000Y-98630000D01*
X211620000Y-101370000D01*
X205080000Y-101370000D01*
X205080000Y-98630000D01*
%TO.C,D2*%
X165440000Y-98455000D02*
X165440000Y-101545000D01*
X165440000Y-98455170D02*
G75*
G02*
X170990000Y-100000000I2560000J-1544830D01*
G01*
X170990000Y-100000000D02*
G75*
G02*
X165440000Y-101544830I-2990000J0D01*
G01*
X170500000Y-100000000D02*
G75*
G02*
X165500000Y-100000000I-2500000J0D01*
G01*
X165500000Y-100000000D02*
G75*
G02*
X170500000Y-100000000I2500000J0D01*
G01*
%TO.C,R4*%
X84310000Y-100000000D02*
X85080000Y-100000000D01*
X92390000Y-100000000D02*
X91620000Y-100000000D01*
X85080000Y-98630000D02*
X91620000Y-98630000D01*
X91620000Y-101370000D01*
X85080000Y-101370000D01*
X85080000Y-98630000D01*
%TO.C,D5*%
X105440000Y-98455000D02*
X105440000Y-101545000D01*
X105440000Y-98455170D02*
G75*
G02*
X110990000Y-100000000I2560000J-1544830D01*
G01*
X110990000Y-100000000D02*
G75*
G02*
X105440000Y-101544830I-2990000J0D01*
G01*
X110500000Y-100000000D02*
G75*
G02*
X105500000Y-100000000I-2500000J0D01*
G01*
X105500000Y-100000000D02*
G75*
G02*
X110500000Y-100000000I2500000J0D01*
G01*
%TO.C,R5*%
X114310000Y-100000000D02*
X115080000Y-100000000D01*
X122390000Y-100000000D02*
X121620000Y-100000000D01*
X115080000Y-98630000D02*
X121620000Y-98630000D01*
X121620000Y-101370000D01*
X115080000Y-101370000D01*
X115080000Y-98630000D01*
%TO.C,R3SW1*%
X101015000Y-104015000D02*
X114985000Y-104015000D01*
X101015000Y-117985000D02*
X101015000Y-104015000D01*
X114985000Y-104015000D02*
X114985000Y-117985000D01*
X114985000Y-117985000D02*
X101015000Y-117985000D01*
%TO.C,GUIDE1*%
X131015000Y-104015000D02*
X144985000Y-104015000D01*
X131015000Y-117985000D02*
X131015000Y-104015000D01*
X144985000Y-104015000D02*
X144985000Y-117985000D01*
X144985000Y-117985000D02*
X131015000Y-117985000D01*
%TO.C,D4*%
X75440000Y-98455000D02*
X75440000Y-101545000D01*
X75440000Y-98455170D02*
G75*
G02*
X80990000Y-100000000I2560000J-1544830D01*
G01*
X80990000Y-100000000D02*
G75*
G02*
X75440000Y-101544830I-2990000J0D01*
G01*
X80500000Y-100000000D02*
G75*
G02*
X75500000Y-100000000I-2500000J0D01*
G01*
X75500000Y-100000000D02*
G75*
G02*
X80500000Y-100000000I2500000J0D01*
G01*
%TO.C,BACK1*%
X161015000Y-104015000D02*
X174985000Y-104015000D01*
X161015000Y-117985000D02*
X161015000Y-104015000D01*
X174985000Y-104015000D02*
X174985000Y-117985000D01*
X174985000Y-117985000D02*
X161015000Y-117985000D01*
%TO.C,D1*%
X195440000Y-98455000D02*
X195440000Y-101545000D01*
X195440000Y-98455170D02*
G75*
G02*
X200990000Y-100000000I2560000J-1544830D01*
G01*
X200990000Y-100000000D02*
G75*
G02*
X195440000Y-101544830I-2990000J0D01*
G01*
X200500000Y-100000000D02*
G75*
G02*
X195500000Y-100000000I-2500000J0D01*
G01*
X195500000Y-100000000D02*
G75*
G02*
X200500000Y-100000000I2500000J0D01*
G01*
%TO.C,L3SW1*%
X71015000Y-104015000D02*
X84985000Y-104015000D01*
X71015000Y-117985000D02*
X71015000Y-104015000D01*
X84985000Y-104015000D02*
X84985000Y-117985000D01*
X84985000Y-117985000D02*
X71015000Y-117985000D01*
%TO.C,Tournament_Lockout1*%
D11*
X234500000Y-107000002D02*
X221500000Y-107000002D01*
X221500000Y-99000002D01*
X234500000Y-99000002D01*
X234500000Y-107000002D01*
%TD*%
M02*
