M48
; DRILL file {KiCad 9.0.6} date 2026-08-18T17:13:25-0400
; FORMAT={-:-/ absolute / metric / decimal}
; #@! TF.CreationDate,2026-08-18T17:13:25-04:00
; #@! TF.GenerationSoftware,Kicad,Pcbnew,9.0.6
; #@! TF.FileFunction,Plated,1,2,PTH
FMAT,2
METRIC
; #@! TA.AperFunction,Plated,PTH,ComponentDrill
T1C0.750
; #@! TA.AperFunction,Plated,PTH,ComponentDrill
T2C0.800
; #@! TA.AperFunction,Plated,PTH,ComponentDrill
T3C0.900
; #@! TA.AperFunction,Plated,PTH,ComponentDrill
T4C1.500
%
G90
G05
T1
X107.3Y-104.55
X107.3Y-106.55
X107.3Y-108.55
X107.3Y-110.55
X107.3Y-112.55
X107.3Y-114.55
T2
X127.27Y-124.0
X135.27Y-74.0
X137.43Y-124.0
X145.43Y-74.0
X160.27Y-57.417
X170.43Y-57.417
X190.27Y-56.417
X200.43Y-56.417
T3
X120.73Y-124.0
X123.27Y-124.0
X128.73Y-74.0
X131.27Y-74.0
X153.73Y-57.417
X156.27Y-57.417
X183.73Y-56.417
X186.27Y-56.417
T4
X118.19Y-132.46
X124.54Y-129.92
X126.19Y-82.46
X132.54Y-79.92
X151.19Y-65.877
X157.54Y-63.337
X181.19Y-64.877
X187.54Y-62.337
M30
