%TF.GenerationSoftware,KiCad,Pcbnew,9.0.6*%
%TF.CreationDate,2026-08-18T17:13:53-04:00*%
%TF.ProjectId,Movement_Button_PCB,4d6f7665-6d65-46e7-945f-427574746f6e,rev?*%
%TF.SameCoordinates,Original*%
%TF.FileFunction,Soldermask,Bot*%
%TF.FilePolarity,Negative*%
%FSLAX46Y46*%
G04 Gerber Fmt 4.6, Leading zero omitted, Abs format (unit mm)*
G04 Created by KiCad (PCBNEW 9.0.6) date 2026-08-18 17:13:53*
%MOMM*%
%LPD*%
G01*
G04 APERTURE LIST*
G04 Aperture macros list*
%AMRoundRect*
0 Rectangle with rounded corners*
0 $1 Rounding radius*
0 $2 $3 $4 $5 $6 $7 $8 $9 X,Y pos of 4 corners*
0 Add a 4 corners polygon primitive as box body*
4,1,4,$2,$3,$4,$5,$6,$7,$8,$9,$2,$3,0*
0 Add four circle primitives for the rounded corners*
1,1,$1+$1,$2,$3*
1,1,$1+$1,$4,$5*
1,1,$1+$1,$6,$7*
1,1,$1+$1,$8,$9*
0 Add four rect primitives between the rounded corners*
20,1,$1+$1,$2,$3,$4,$5,0*
20,1,$1+$1,$4,$5,$6,$7,0*
20,1,$1+$1,$6,$7,$8,$9,0*
20,1,$1+$1,$8,$9,$2,$3,0*%
G04 Aperture macros list end*
%ADD10C,1.700000*%
%ADD11C,4.000000*%
%ADD12C,2.200000*%
%ADD13R,1.800000X1.800000*%
%ADD14C,1.800000*%
%ADD15C,1.600000*%
%ADD16RoundRect,0.250000X0.625000X-0.350000X0.625000X0.350000X-0.625000X0.350000X-0.625000X-0.350000X0*%
%ADD17O,1.750000X1.200000*%
G04 APERTURE END LIST*
D10*
%TO.C,DOWN1*%
X149920000Y-68416876D03*
D11*
X155000000Y-68416876D03*
D10*
X160080000Y-68416876D03*
D12*
X157540000Y-63336876D03*
X151190000Y-65876876D03*
%TD*%
D13*
%TO.C,D6*%
X120730000Y-124000000D03*
D14*
X123270000Y-124000000D03*
%TD*%
D10*
%TO.C,LEFT1*%
X124920000Y-85000000D03*
D11*
X130000000Y-85000000D03*
D10*
X135080000Y-85000000D03*
D12*
X132540000Y-79920000D03*
X126190000Y-82460000D03*
%TD*%
D13*
%TO.C,D9*%
X128730000Y-74000000D03*
D14*
X131270000Y-74000000D03*
%TD*%
D13*
%TO.C,D7*%
X153730000Y-57416876D03*
D14*
X156270000Y-57416876D03*
%TD*%
D15*
%TO.C,R8*%
X190270000Y-56416876D03*
X200430000Y-56416876D03*
%TD*%
%TO.C,R6*%
X127270000Y-124000000D03*
X137430000Y-124000000D03*
%TD*%
D13*
%TO.C,D8*%
X183730000Y-56416876D03*
D14*
X186270000Y-56416876D03*
%TD*%
D15*
%TO.C,R9*%
X135270000Y-74000000D03*
X145430000Y-74000000D03*
%TD*%
%TO.C,R7*%
X160270000Y-57416876D03*
X170430000Y-57416876D03*
%TD*%
D10*
%TO.C,UP1*%
X116920000Y-135000000D03*
D11*
X122000000Y-135000000D03*
D10*
X127080000Y-135000000D03*
D12*
X124540000Y-129920000D03*
X118190000Y-132460000D03*
%TD*%
D10*
%TO.C,RIGHT1*%
X179920000Y-67416876D03*
D11*
X185000000Y-67416876D03*
D10*
X190080000Y-67416876D03*
D12*
X187540000Y-62336876D03*
X181190000Y-64876876D03*
%TD*%
D16*
%TO.C,J6*%
X107300000Y-114550000D03*
D17*
X107300000Y-112550000D03*
X107300000Y-110550000D03*
X107300000Y-108550000D03*
X107300000Y-106550000D03*
X107300000Y-104550000D03*
%TD*%
M02*
