%TF.GenerationSoftware,KiCad,Pcbnew,9.0.6*%
%TF.CreationDate,2026-08-18T14:58:09-04:00*%
%TF.ProjectId,Action_Button_PCB,41637469-6f6e-45f4-9275-74746f6e5f50,rev?*%
%TF.SameCoordinates,Original*%
%TF.FileFunction,Soldermask,Top*%
%TF.FilePolarity,Negative*%
%FSLAX46Y46*%
G04 Gerber Fmt 4.6, Leading zero omitted, Abs format (unit mm)*
G04 Created by KiCad (PCBNEW 9.0.6) date 2026-08-18 14:58:09*
%MOMM*%
%LPD*%
G01*
G04 APERTURE LIST*
G04 Aperture macros list*
%AMRoundRect*
0 Rectangle with rounded corners*
0 $1 Rounding radius*
0 $2 $3 $4 $5 $6 $7 $8 $9 X,Y pos of 4 corners*
0 Add a 4 corners polygon primitive as box body*
4,1,4,$2,$3,$4,$5,$6,$7,$8,$9,$2,$3,0*
0 Add four circle primitives for the rounded corners*
1,1,$1+$1,$2,$3*
1,1,$1+$1,$4,$5*
1,1,$1+$1,$6,$7*
1,1,$1+$1,$8,$9*
0 Add four rect primitives between the rounded corners*
20,1,$1+$1,$2,$3,$4,$5,0*
20,1,$1+$1,$4,$5,$6,$7,0*
20,1,$1+$1,$6,$7,$8,$9,0*
20,1,$1+$1,$8,$9,$2,$3,0*%
%AMFreePoly0*
4,1,37,0.800000,0.796148,0.878414,0.796148,1.032228,0.765552,1.177117,0.705537,1.307515,0.618408,1.418408,0.507515,1.505537,0.377117,1.565552,0.232228,1.596148,0.078414,1.596148,-0.078414,1.565552,-0.232228,1.505537,-0.377117,1.418408,-0.507515,1.307515,-0.618408,1.177117,-0.705537,1.032228,-0.765552,0.878414,-0.796148,0.800000,-0.796148,0.800000,-0.800000,-1.400000,-0.800000,
-1.403843,-0.796157,-1.439018,-0.796157,-1.511114,-0.766294,-1.566294,-0.711114,-1.596157,-0.639018,-1.596157,-0.603843,-1.600000,-0.600000,-1.600000,0.600000,-1.596157,0.603843,-1.596157,0.639018,-1.566294,0.711114,-1.511114,0.766294,-1.439018,0.796157,-1.403843,0.796157,-1.400000,0.800000,0.800000,0.800000,0.800000,0.796148,0.800000,0.796148,$1*%
%AMFreePoly1*
4,1,37,1.403843,0.796157,1.439018,0.796157,1.511114,0.766294,1.566294,0.711114,1.596157,0.639018,1.596157,0.603843,1.600000,0.600000,1.600000,-0.600000,1.596157,-0.603843,1.596157,-0.639018,1.566294,-0.711114,1.511114,-0.766294,1.439018,-0.796157,1.403843,-0.796157,1.400000,-0.800000,-0.800000,-0.800000,-0.800000,-0.796148,-0.878414,-0.796148,-1.032228,-0.765552,-1.177117,-0.705537,
-1.307515,-0.618408,-1.418408,-0.507515,-1.505537,-0.377117,-1.565552,-0.232228,-1.596148,-0.078414,-1.596148,0.078414,-1.565552,0.232228,-1.505537,0.377117,-1.418408,0.507515,-1.307515,0.618408,-1.177117,0.705537,-1.032228,0.765552,-0.878414,0.796148,-0.800000,0.796148,-0.800000,0.800000,1.400000,0.800000,1.403843,0.796157,1.403843,0.796157,$1*%
%AMFreePoly2*
4,1,37,0.603843,0.796157,0.639018,0.796157,0.711114,0.766294,0.766294,0.711114,0.796157,0.639018,0.796157,0.603843,0.800000,0.600000,0.800000,-0.600000,0.796157,-0.603843,0.796157,-0.639018,0.766294,-0.711114,0.711114,-0.766294,0.639018,-0.796157,0.603843,-0.796157,0.600000,-0.800000,0.000000,-0.800000,0.000000,-0.796148,-0.078414,-0.796148,-0.232228,-0.765552,-0.377117,-0.705537,
-0.507515,-0.618408,-0.618408,-0.507515,-0.705537,-0.377117,-0.765552,-0.232228,-0.796148,-0.078414,-0.796148,0.078414,-0.765552,0.232228,-0.705537,0.377117,-0.618408,0.507515,-0.507515,0.618408,-0.377117,0.705537,-0.232228,0.765552,-0.078414,0.796148,0.000000,0.796148,0.000000,0.800000,0.600000,0.800000,0.603843,0.796157,0.603843,0.796157,$1*%
%AMFreePoly3*
4,1,37,0.000000,0.796148,0.078414,0.796148,0.232228,0.765552,0.377117,0.705537,0.507515,0.618408,0.618408,0.507515,0.705537,0.377117,0.765552,0.232228,0.796148,0.078414,0.796148,-0.078414,0.765552,-0.232228,0.705537,-0.377117,0.618408,-0.507515,0.507515,-0.618408,0.377117,-0.705537,0.232228,-0.765552,0.078414,-0.796148,0.000000,-0.796148,0.000000,-0.800000,-0.600000,-0.800000,
-0.603843,-0.796157,-0.639018,-0.796157,-0.711114,-0.766294,-0.766294,-0.711114,-0.796157,-0.639018,-0.796157,-0.603843,-0.800000,-0.600000,-0.800000,0.600000,-0.796157,0.603843,-0.796157,0.639018,-0.766294,0.711114,-0.711114,0.766294,-0.639018,0.796157,-0.603843,0.796157,-0.600000,0.800000,0.000000,0.800000,0.000000,0.796148,0.000000,0.796148,$1*%
G04 Aperture macros list end*
%ADD10C,2.200000*%
%ADD11C,1.850000*%
%ADD12FreePoly0,270.000000*%
%ADD13RoundRect,0.200000X-0.600000X0.600000X-0.600000X-0.600000X0.600000X-0.600000X0.600000X0.600000X0*%
%ADD14RoundRect,0.800000X-0.000010X0.800000X-0.000010X-0.800000X0.000010X-0.800000X0.000010X0.800000X0*%
%ADD15C,1.600000*%
%ADD16FreePoly1,270.000000*%
%ADD17FreePoly2,270.000000*%
%ADD18FreePoly3,270.000000*%
%ADD19C,1.700000*%
%ADD20C,4.000000*%
%ADD21R,1.800000X1.800000*%
%ADD22C,1.800000*%
%ADD23RoundRect,0.250000X0.625000X-0.350000X0.625000X0.350000X-0.625000X0.350000X-0.625000X-0.350000X0*%
%ADD24O,1.750000X1.200000*%
%ADD25RoundRect,0.250000X0.350000X0.625000X-0.350000X0.625000X-0.350000X-0.625000X0.350000X-0.625000X0*%
%ADD26O,1.200000X1.750000*%
G04 APERTURE END LIST*
D10*
%TO.C,A2*%
X158105918Y-119265000D03*
D11*
X155075918Y-119565000D03*
X155075918Y-124415000D03*
D10*
X158105918Y-124715000D03*
D12*
X158235918Y-112300000D03*
D13*
X158235918Y-113100000D03*
D14*
X155695918Y-112300000D03*
D15*
X155695918Y-113100000D03*
D16*
X153155918Y-112300000D03*
D17*
X153155918Y-113100000D03*
D14*
X150615918Y-112300000D03*
D15*
X150615918Y-113100000D03*
D14*
X148075918Y-112300000D03*
D15*
X148075918Y-113100000D03*
D14*
X145535918Y-112300000D03*
D15*
X145535918Y-113100000D03*
D14*
X142995918Y-112300000D03*
D15*
X142995918Y-113100000D03*
D16*
X140455918Y-112300000D03*
D17*
X140455918Y-113100000D03*
D14*
X137915918Y-112300000D03*
D15*
X137915918Y-113100000D03*
D14*
X135375918Y-112300000D03*
D15*
X135375918Y-113100000D03*
D14*
X132835918Y-112300000D03*
D15*
X132835918Y-113100000D03*
D14*
X130295918Y-112300000D03*
D15*
X130295918Y-113100000D03*
D16*
X127755918Y-112300000D03*
D17*
X127755918Y-113100000D03*
D14*
X125215918Y-112300000D03*
D15*
X125215918Y-113100000D03*
D14*
X122675918Y-112300000D03*
D15*
X122675918Y-113100000D03*
D14*
X120135918Y-112300000D03*
D15*
X120135918Y-113100000D03*
D14*
X117595918Y-112300000D03*
D15*
X117595918Y-113100000D03*
D16*
X115055918Y-112300000D03*
D17*
X115055918Y-113100000D03*
D14*
X112515918Y-112300000D03*
D15*
X112515918Y-113100000D03*
D14*
X109975918Y-112300000D03*
D15*
X109975918Y-113100000D03*
X109975918Y-130880000D03*
D14*
X109975918Y-131680000D03*
D15*
X112515918Y-130880000D03*
D14*
X112515918Y-131680000D03*
D18*
X115055918Y-130880000D03*
D12*
X115055918Y-131680000D03*
D15*
X117595918Y-130880000D03*
D14*
X117595918Y-131680000D03*
D15*
X120135918Y-130880000D03*
D14*
X120135918Y-131680000D03*
D15*
X122675918Y-130880000D03*
D14*
X122675918Y-131680000D03*
D15*
X125215918Y-130880000D03*
D14*
X125215918Y-131680000D03*
D18*
X127755918Y-130880000D03*
D12*
X127755918Y-131680000D03*
D15*
X130295918Y-130880000D03*
D14*
X130295918Y-131680000D03*
D15*
X132835918Y-130880000D03*
D14*
X132835918Y-131680000D03*
D15*
X135375918Y-130880000D03*
D14*
X135375918Y-131680000D03*
D15*
X137915918Y-130880000D03*
D14*
X137915918Y-131680000D03*
D18*
X140455918Y-130880000D03*
D12*
X140455918Y-131680000D03*
D15*
X142995918Y-130880000D03*
D14*
X142995918Y-131680000D03*
D15*
X145535918Y-130880000D03*
D14*
X145535918Y-131680000D03*
D15*
X148075918Y-130880000D03*
D14*
X148075918Y-131680000D03*
D15*
X150615918Y-130880000D03*
D14*
X150615918Y-131680000D03*
D18*
X153155918Y-130880000D03*
D12*
X153155918Y-131680000D03*
D15*
X155695918Y-130880000D03*
D14*
X155695918Y-131680000D03*
D15*
X158235918Y-130880000D03*
D14*
X158235918Y-131680000D03*
%TD*%
D10*
%TO.C,RT1*%
X114324979Y-85660000D03*
X120674979Y-83120000D03*
D19*
X123214979Y-88200000D03*
D20*
X118134979Y-88200000D03*
D19*
X113054979Y-88200000D03*
%TD*%
D21*
%TO.C,D3*%
X116859979Y-77200000D03*
D22*
X119399979Y-77200000D03*
%TD*%
D15*
%TO.C,R5*%
X191422878Y-46200000D03*
X201582878Y-46200000D03*
%TD*%
D19*
%TO.C,Y1*%
X147536858Y-47200000D03*
D20*
X152616858Y-47200000D03*
D19*
X157696858Y-47200000D03*
D10*
X155156858Y-42120000D03*
X148806858Y-44660000D03*
%TD*%
D21*
%TO.C,D4*%
X82567122Y-84200000D03*
D22*
X85107122Y-84200000D03*
%TD*%
D19*
%TO.C,LT1*%
X78762122Y-95200000D03*
D20*
X83842122Y-95200000D03*
D19*
X88922122Y-95200000D03*
D10*
X86382122Y-90120000D03*
X80032122Y-92660000D03*
%TD*%
D15*
%TO.C,R2*%
X157881858Y-71200000D03*
X168041858Y-71200000D03*
%TD*%
D19*
%TO.C,LB1*%
X78762122Y-60200000D03*
D20*
X83842122Y-60200000D03*
D19*
X88922122Y-60200000D03*
D10*
X86382122Y-55120000D03*
X80032122Y-57660000D03*
%TD*%
D15*
%TO.C,R4*%
X89107122Y-84200000D03*
X99267122Y-84200000D03*
%TD*%
D21*
%TO.C,D8*%
X82567122Y-49200000D03*
D22*
X85107122Y-49200000D03*
%TD*%
D19*
%TO.C,A1*%
X181077878Y-92200000D03*
D20*
X186157878Y-92200000D03*
D19*
X191237878Y-92200000D03*
D10*
X188697878Y-87120000D03*
X182347878Y-89660000D03*
%TD*%
D15*
%TO.C,R8*%
X89107122Y-49200000D03*
X99267122Y-49200000D03*
%TD*%
D21*
%TO.C,D6*%
X151346858Y-36200000D03*
D22*
X153886858Y-36200000D03*
%TD*%
D15*
%TO.C,R6*%
X157886858Y-36200000D03*
X168046858Y-36200000D03*
%TD*%
D21*
%TO.C,D1*%
X184887878Y-81200000D03*
D22*
X187427878Y-81200000D03*
%TD*%
D15*
%TO.C,R1*%
X191427878Y-81200000D03*
X201587878Y-81200000D03*
%TD*%
D19*
%TO.C,X1*%
X181077878Y-57200000D03*
D20*
X186157878Y-57200000D03*
D19*
X191237878Y-57200000D03*
D10*
X188697878Y-52120000D03*
X182347878Y-54660000D03*
%TD*%
D19*
%TO.C,B1*%
X147536858Y-82200000D03*
D20*
X152616858Y-82200000D03*
D19*
X157696858Y-82200000D03*
D10*
X155156858Y-77120000D03*
X148806858Y-79660000D03*
%TD*%
D21*
%TO.C,D7*%
X116864979Y-42200000D03*
D22*
X119404979Y-42200000D03*
%TD*%
D15*
%TO.C,R7*%
X123404979Y-42200000D03*
X133564979Y-42200000D03*
%TD*%
D21*
%TO.C,D2*%
X151341858Y-71200000D03*
D22*
X153881858Y-71200000D03*
%TD*%
D21*
%TO.C,D5*%
X184882878Y-46200000D03*
D22*
X187422878Y-46200000D03*
%TD*%
D15*
%TO.C,R3*%
X123399979Y-77200000D03*
X133559979Y-77200000D03*
%TD*%
D19*
%TO.C,RB1*%
X113054979Y-53200000D03*
D20*
X118134979Y-53200000D03*
D19*
X123214979Y-53200000D03*
D10*
X120674979Y-48120000D03*
X114324979Y-50660000D03*
%TD*%
D23*
%TO.C,J1*%
X202190000Y-127160000D03*
D24*
X202190000Y-125160000D03*
X202190000Y-123160000D03*
X202190000Y-121160000D03*
X202190000Y-119160000D03*
X202190000Y-117160000D03*
%TD*%
D25*
%TO.C,J2*%
X201550000Y-37200000D03*
D26*
X199550000Y-37200000D03*
X197550000Y-37200000D03*
X195550000Y-37200000D03*
X193550000Y-37200000D03*
X191550000Y-37200000D03*
X189550000Y-37200000D03*
%TD*%
D25*
%TO.C,J3*%
X80450000Y-37200000D03*
D26*
X78450000Y-37200000D03*
X76450000Y-37200000D03*
X74450000Y-37200000D03*
X72450000Y-37200000D03*
X70450000Y-37200000D03*
X68450000Y-37200000D03*
%TD*%
M02*
