%TF.GenerationSoftware,KiCad,Pcbnew,9.0.6*%
%TF.CreationDate,2026-08-18T14:58:08-04:00*%
%TF.ProjectId,Action_Button_PCB,41637469-6f6e-45f4-9275-74746f6e5f50,rev?*%
%TF.SameCoordinates,Original*%
%TF.FileFunction,Copper,L1,Top*%
%TF.FilePolarity,Positive*%
%FSLAX46Y46*%
G04 Gerber Fmt 4.6, Leading zero omitted, Abs format (unit mm)*
G04 Created by KiCad (PCBNEW 9.0.6) date 2026-08-18 14:58:08*
%MOMM*%
%LPD*%
G01*
G04 APERTURE LIST*
G04 Aperture macros list*
%AMRoundRect*
0 Rectangle with rounded corners*
0 $1 Rounding radius*
0 $2 $3 $4 $5 $6 $7 $8 $9 X,Y pos of 4 corners*
0 Add a 4 corners polygon primitive as box body*
4,1,4,$2,$3,$4,$5,$6,$7,$8,$9,$2,$3,0*
0 Add four circle primitives for the rounded corners*
1,1,$1+$1,$2,$3*
1,1,$1+$1,$4,$5*
1,1,$1+$1,$6,$7*
1,1,$1+$1,$8,$9*
0 Add four rect primitives between the rounded corners*
20,1,$1+$1,$2,$3,$4,$5,0*
20,1,$1+$1,$4,$5,$6,$7,0*
20,1,$1+$1,$6,$7,$8,$9,0*
20,1,$1+$1,$8,$9,$2,$3,0*%
%AMFreePoly0*
4,1,37,0.800000,0.796148,0.878414,0.796148,1.032228,0.765552,1.177117,0.705537,1.307515,0.618408,1.418408,0.507515,1.505537,0.377117,1.565552,0.232228,1.596148,0.078414,1.596148,-0.078414,1.565552,-0.232228,1.505537,-0.377117,1.418408,-0.507515,1.307515,-0.618408,1.177117,-0.705537,1.032228,-0.765552,0.878414,-0.796148,0.800000,-0.796148,0.800000,-0.800000,-1.400000,-0.800000,
-1.403843,-0.796157,-1.439018,-0.796157,-1.511114,-0.766294,-1.566294,-0.711114,-1.596157,-0.639018,-1.596157,-0.603843,-1.600000,-0.600000,-1.600000,0.600000,-1.596157,0.603843,-1.596157,0.639018,-1.566294,0.711114,-1.511114,0.766294,-1.439018,0.796157,-1.403843,0.796157,-1.400000,0.800000,0.800000,0.800000,0.800000,0.796148,0.800000,0.796148,$1*%
%AMFreePoly1*
4,1,37,1.403843,0.796157,1.439018,0.796157,1.511114,0.766294,1.566294,0.711114,1.596157,0.639018,1.596157,0.603843,1.600000,0.600000,1.600000,-0.600000,1.596157,-0.603843,1.596157,-0.639018,1.566294,-0.711114,1.511114,-0.766294,1.439018,-0.796157,1.403843,-0.796157,1.400000,-0.800000,-0.800000,-0.800000,-0.800000,-0.796148,-0.878414,-0.796148,-1.032228,-0.765552,-1.177117,-0.705537,
-1.307515,-0.618408,-1.418408,-0.507515,-1.505537,-0.377117,-1.565552,-0.232228,-1.596148,-0.078414,-1.596148,0.078414,-1.565552,0.232228,-1.505537,0.377117,-1.418408,0.507515,-1.307515,0.618408,-1.177117,0.705537,-1.032228,0.765552,-0.878414,0.796148,-0.800000,0.796148,-0.800000,0.800000,1.400000,0.800000,1.403843,0.796157,1.403843,0.796157,$1*%
%AMFreePoly2*
4,1,37,0.603843,0.796157,0.639018,0.796157,0.711114,0.766294,0.766294,0.711114,0.796157,0.639018,0.796157,0.603843,0.800000,0.600000,0.800000,-0.600000,0.796157,-0.603843,0.796157,-0.639018,0.766294,-0.711114,0.711114,-0.766294,0.639018,-0.796157,0.603843,-0.796157,0.600000,-0.800000,0.000000,-0.800000,0.000000,-0.796148,-0.078414,-0.796148,-0.232228,-0.765552,-0.377117,-0.705537,
-0.507515,-0.618408,-0.618408,-0.507515,-0.705537,-0.377117,-0.765552,-0.232228,-0.796148,-0.078414,-0.796148,0.078414,-0.765552,0.232228,-0.705537,0.377117,-0.618408,0.507515,-0.507515,0.618408,-0.377117,0.705537,-0.232228,0.765552,-0.078414,0.796148,0.000000,0.796148,0.000000,0.800000,0.600000,0.800000,0.603843,0.796157,0.603843,0.796157,$1*%
%AMFreePoly3*
4,1,37,0.000000,0.796148,0.078414,0.796148,0.232228,0.765552,0.377117,0.705537,0.507515,0.618408,0.618408,0.507515,0.705537,0.377117,0.765552,0.232228,0.796148,0.078414,0.796148,-0.078414,0.765552,-0.232228,0.705537,-0.377117,0.618408,-0.507515,0.507515,-0.618408,0.377117,-0.705537,0.232228,-0.765552,0.078414,-0.796148,0.000000,-0.796148,0.000000,-0.800000,-0.600000,-0.800000,
-0.603843,-0.796157,-0.639018,-0.796157,-0.711114,-0.766294,-0.766294,-0.711114,-0.796157,-0.639018,-0.796157,-0.603843,-0.800000,-0.600000,-0.800000,0.600000,-0.796157,0.603843,-0.796157,0.639018,-0.766294,0.711114,-0.711114,0.766294,-0.639018,0.796157,-0.603843,0.796157,-0.600000,0.800000,0.000000,0.800000,0.000000,0.796148,0.000000,0.796148,$1*%
G04 Aperture macros list end*
%TA.AperFunction,SMDPad,CuDef*%
%ADD10FreePoly0,270.000000*%
%TD*%
%TA.AperFunction,ComponentPad*%
%ADD11RoundRect,0.200000X-0.600000X0.600000X-0.600000X-0.600000X0.600000X-0.600000X0.600000X0.600000X0*%
%TD*%
%TA.AperFunction,SMDPad,CuDef*%
%ADD12RoundRect,0.800000X-0.000010X0.800000X-0.000010X-0.800000X0.000010X-0.800000X0.000010X0.800000X0*%
%TD*%
%TA.AperFunction,ComponentPad*%
%ADD13C,1.600000*%
%TD*%
%TA.AperFunction,SMDPad,CuDef*%
%ADD14FreePoly1,270.000000*%
%TD*%
%TA.AperFunction,ComponentPad*%
%ADD15FreePoly2,270.000000*%
%TD*%
%TA.AperFunction,ComponentPad*%
%ADD16FreePoly3,270.000000*%
%TD*%
%TA.AperFunction,ComponentPad*%
%ADD17C,2.200000*%
%TD*%
%TA.AperFunction,ComponentPad*%
%ADD18R,1.800000X1.800000*%
%TD*%
%TA.AperFunction,ComponentPad*%
%ADD19C,1.800000*%
%TD*%
%TA.AperFunction,ComponentPad*%
%ADD20RoundRect,0.250000X0.625000X-0.350000X0.625000X0.350000X-0.625000X0.350000X-0.625000X-0.350000X0*%
%TD*%
%TA.AperFunction,ComponentPad*%
%ADD21O,1.750000X1.200000*%
%TD*%
%TA.AperFunction,ComponentPad*%
%ADD22RoundRect,0.250000X0.350000X0.625000X-0.350000X0.625000X-0.350000X-0.625000X0.350000X-0.625000X0*%
%TD*%
%TA.AperFunction,ComponentPad*%
%ADD23O,1.200000X1.750000*%
%TD*%
%TA.AperFunction,ViaPad*%
%ADD24C,0.600000*%
%TD*%
%TA.AperFunction,Conductor*%
%ADD25C,0.200000*%
%TD*%
G04 APERTURE END LIST*
D10*
%TO.P,A2,1,GPIO0*%
%TO.N,/Rotary_Encoder_CLK*%
X158235918Y-112300000D03*
D11*
X158235918Y-113100000D03*
D12*
%TO.P,A2,2,GPIO1*%
%TO.N,/Rotary_Encoder_DT*%
X155695918Y-112300000D03*
D13*
X155695918Y-113100000D03*
D14*
%TO.P,A2,3,GND*%
%TO.N,GND*%
X153155918Y-112300000D03*
D15*
X153155918Y-113100000D03*
D12*
%TO.P,A2,4,GPIO2*%
%TO.N,/Up*%
X150615918Y-112300000D03*
D13*
X150615918Y-113100000D03*
D12*
%TO.P,A2,5,GPIO3*%
%TO.N,/Down*%
X148075918Y-112300000D03*
D13*
X148075918Y-113100000D03*
D12*
%TO.P,A2,6,GPIO4*%
%TO.N,/Right*%
X145535918Y-112300000D03*
D13*
X145535918Y-113100000D03*
D12*
%TO.P,A2,7,GPIO5*%
%TO.N,/Left*%
X142995918Y-112300000D03*
D13*
X142995918Y-113100000D03*
D14*
%TO.P,A2,8,GND*%
%TO.N,GND*%
X140455918Y-112300000D03*
D15*
X140455918Y-113100000D03*
D12*
%TO.P,A2,9,GPIO6*%
%TO.N,A*%
X137915918Y-112300000D03*
D13*
X137915918Y-113100000D03*
D12*
%TO.P,A2,10,GPIO7*%
%TO.N,B*%
X135375918Y-112300000D03*
D13*
X135375918Y-113100000D03*
D12*
%TO.P,A2,11,GPIO8*%
%TO.N,RT*%
X132835918Y-112300000D03*
D13*
X132835918Y-113100000D03*
D12*
%TO.P,A2,12,GPIO9*%
%TO.N,LT*%
X130295918Y-112300000D03*
D13*
X130295918Y-113100000D03*
D14*
%TO.P,A2,13,GND*%
%TO.N,GND*%
X127755918Y-112300000D03*
D15*
X127755918Y-113100000D03*
D12*
%TO.P,A2,14,GPIO10*%
%TO.N,X*%
X125215918Y-112300000D03*
D13*
X125215918Y-113100000D03*
D12*
%TO.P,A2,15,GPIO11*%
%TO.N,Y*%
X122675918Y-112300000D03*
D13*
X122675918Y-113100000D03*
D12*
%TO.P,A2,16,GPIO12*%
%TO.N,RB*%
X120135918Y-112300000D03*
D13*
X120135918Y-113100000D03*
D12*
%TO.P,A2,17,GPIO13*%
%TO.N,LB*%
X117595918Y-112300000D03*
D13*
X117595918Y-113100000D03*
D14*
%TO.P,A2,18,GND*%
%TO.N,GND*%
X115055918Y-112300000D03*
D15*
X115055918Y-113100000D03*
D12*
%TO.P,A2,19,GPIO14*%
%TO.N,/SDA*%
X112515918Y-112300000D03*
D13*
X112515918Y-113100000D03*
D12*
%TO.P,A2,20,GPIO15*%
%TO.N,/SCK*%
X109975918Y-112300000D03*
D13*
X109975918Y-113100000D03*
%TO.P,A2,21,GPIO16*%
%TO.N,/Options*%
X109975918Y-130880000D03*
D12*
X109975918Y-131680000D03*
D13*
%TO.P,A2,22,GPIO17*%
%TO.N,/Start*%
X112515918Y-130880000D03*
D12*
X112515918Y-131680000D03*
D16*
%TO.P,A2,23,GND*%
%TO.N,GND*%
X115055918Y-130880000D03*
D10*
X115055918Y-131680000D03*
D13*
%TO.P,A2,24,GPIO18*%
%TO.N,/L3*%
X117595918Y-130880000D03*
D12*
X117595918Y-131680000D03*
D13*
%TO.P,A2,25,GPIO19*%
%TO.N,/R3*%
X120135918Y-130880000D03*
D12*
X120135918Y-131680000D03*
D13*
%TO.P,A2,26,GPIO20*%
%TO.N,/Guide*%
X122675918Y-130880000D03*
D12*
X122675918Y-131680000D03*
D13*
%TO.P,A2,27,GPIO21*%
%TO.N,/Encoder_Press*%
X125215918Y-130880000D03*
D12*
X125215918Y-131680000D03*
D16*
%TO.P,A2,28,GND*%
%TO.N,GND*%
X127755918Y-130880000D03*
D10*
X127755918Y-131680000D03*
D13*
%TO.P,A2,29,GPIO22*%
%TO.N,unconnected-(A2-GPIO22-Pad29)*%
X130295918Y-130880000D03*
D12*
X130295918Y-131680000D03*
D13*
%TO.P,A2,30,RUN*%
%TO.N,unconnected-(A2-RUN-Pad30)*%
X132835918Y-130880000D03*
D12*
X132835918Y-131680000D03*
D13*
%TO.P,A2,31,GPIO26_ADC0*%
%TO.N,unconnected-(A2-GPIO26_ADC0-Pad31)*%
X135375918Y-130880000D03*
D12*
X135375918Y-131680000D03*
D13*
%TO.P,A2,32,GPIO27_ADC1*%
%TO.N,unconnected-(A2-GPIO27_ADC1-Pad32)*%
X137915918Y-130880000D03*
D12*
X137915918Y-131680000D03*
D16*
%TO.P,A2,33,AGND*%
%TO.N,unconnected-(A2-AGND-Pad33)*%
X140455918Y-130880000D03*
D10*
X140455918Y-131680000D03*
D13*
%TO.P,A2,34,GPIO28_ADC2*%
%TO.N,unconnected-(A2-GPIO28_ADC2-Pad34)*%
X142995918Y-130880000D03*
D12*
X142995918Y-131680000D03*
D13*
%TO.P,A2,35,ADC_VREF*%
%TO.N,unconnected-(A2-ADC_VREF-Pad35)*%
X145535918Y-130880000D03*
D12*
X145535918Y-131680000D03*
D13*
%TO.P,A2,36,3V3*%
%TO.N,3v3*%
X148075918Y-130880000D03*
D12*
X148075918Y-131680000D03*
D13*
%TO.P,A2,37,3V3_EN*%
%TO.N,unconnected-(A2-3V3_EN-Pad37)*%
X150615918Y-130880000D03*
D12*
X150615918Y-131680000D03*
D16*
%TO.P,A2,38,GND*%
%TO.N,GND*%
X153155918Y-130880000D03*
D10*
X153155918Y-131680000D03*
D13*
%TO.P,A2,39,VSYS*%
%TO.N,unconnected-(A2-VSYS-Pad39)*%
X155695918Y-130880000D03*
D12*
X155695918Y-131680000D03*
D13*
%TO.P,A2,40,VBUS*%
%TO.N,unconnected-(A2-VBUS-Pad40)*%
X158235918Y-130880000D03*
D12*
X158235918Y-131680000D03*
%TD*%
D17*
%TO.P,RT1,2,B*%
%TO.N,GND*%
X114324979Y-85660000D03*
%TO.P,RT1,1,A*%
%TO.N,RT*%
X120674979Y-83120000D03*
%TD*%
D18*
%TO.P,D3,1,K*%
%TO.N,RT*%
X116859979Y-77200000D03*
D19*
%TO.P,D3,2,A*%
%TO.N,Net-(D3-A)*%
X119399979Y-77200000D03*
%TD*%
D13*
%TO.P,R5,1*%
%TO.N,Net-(D5-A)*%
X191422878Y-46200000D03*
%TO.P,R5,2*%
%TO.N,3v3*%
X201582878Y-46200000D03*
%TD*%
D17*
%TO.P,Y1,1,A*%
%TO.N,Y*%
X155156858Y-42120000D03*
%TO.P,Y1,2,B*%
%TO.N,GND*%
X148806858Y-44660000D03*
%TD*%
D18*
%TO.P,D4,1,K*%
%TO.N,LT*%
X82567122Y-84200000D03*
D19*
%TO.P,D4,2,A*%
%TO.N,Net-(D4-A)*%
X85107122Y-84200000D03*
%TD*%
D17*
%TO.P,LT1,1,A*%
%TO.N,LT*%
X86382122Y-90120000D03*
%TO.P,LT1,2,B*%
%TO.N,GND*%
X80032122Y-92660000D03*
%TD*%
D13*
%TO.P,R2,1*%
%TO.N,Net-(D2-A)*%
X157881858Y-71200000D03*
%TO.P,R2,2*%
%TO.N,3v3*%
X168041858Y-71200000D03*
%TD*%
D17*
%TO.P,LB1,1,A*%
%TO.N,LB*%
X86382122Y-55120000D03*
%TO.P,LB1,2,B*%
%TO.N,GND*%
X80032122Y-57660000D03*
%TD*%
D13*
%TO.P,R4,1*%
%TO.N,Net-(D4-A)*%
X89107122Y-84200000D03*
%TO.P,R4,2*%
%TO.N,3v3*%
X99267122Y-84200000D03*
%TD*%
D18*
%TO.P,D8,1,K*%
%TO.N,LB*%
X82567122Y-49200000D03*
D19*
%TO.P,D8,2,A*%
%TO.N,Net-(D8-A)*%
X85107122Y-49200000D03*
%TD*%
D17*
%TO.P,A1,1,A*%
%TO.N,A*%
X188697878Y-87120000D03*
%TO.P,A1,2,B*%
%TO.N,GND*%
X182347878Y-89660000D03*
%TD*%
D13*
%TO.P,R8,1*%
%TO.N,Net-(D8-A)*%
X89107122Y-49200000D03*
%TO.P,R8,2*%
%TO.N,3v3*%
X99267122Y-49200000D03*
%TD*%
D18*
%TO.P,D6,1,K*%
%TO.N,Y*%
X151346858Y-36200000D03*
D19*
%TO.P,D6,2,A*%
%TO.N,Net-(D6-A)*%
X153886858Y-36200000D03*
%TD*%
D13*
%TO.P,R6,1*%
%TO.N,Net-(D6-A)*%
X157886858Y-36200000D03*
%TO.P,R6,2*%
%TO.N,3v3*%
X168046858Y-36200000D03*
%TD*%
D18*
%TO.P,D1,1,K*%
%TO.N,A*%
X184887878Y-81200000D03*
D19*
%TO.P,D1,2,A*%
%TO.N,Net-(D1-A)*%
X187427878Y-81200000D03*
%TD*%
D13*
%TO.P,R1,1*%
%TO.N,Net-(D1-A)*%
X191427878Y-81200000D03*
%TO.P,R1,2*%
%TO.N,3v3*%
X201587878Y-81200000D03*
%TD*%
D17*
%TO.P,X1,1,A*%
%TO.N,X*%
X188697878Y-52120000D03*
%TO.P,X1,2,B*%
%TO.N,GND*%
X182347878Y-54660000D03*
%TD*%
%TO.P,B1,1,A*%
%TO.N,B*%
X155156858Y-77120000D03*
%TO.P,B1,2,B*%
%TO.N,GND*%
X148806858Y-79660000D03*
%TD*%
D18*
%TO.P,D7,1,K*%
%TO.N,RB*%
X116864979Y-42200000D03*
D19*
%TO.P,D7,2,A*%
%TO.N,Net-(D7-A)*%
X119404979Y-42200000D03*
%TD*%
D13*
%TO.P,R7,1*%
%TO.N,Net-(D7-A)*%
X123404979Y-42200000D03*
%TO.P,R7,2*%
%TO.N,3v3*%
X133564979Y-42200000D03*
%TD*%
D18*
%TO.P,D2,1,K*%
%TO.N,B*%
X151341858Y-71200000D03*
D19*
%TO.P,D2,2,A*%
%TO.N,Net-(D2-A)*%
X153881858Y-71200000D03*
%TD*%
D18*
%TO.P,D5,1,K*%
%TO.N,X*%
X184882878Y-46200000D03*
D19*
%TO.P,D5,2,A*%
%TO.N,Net-(D5-A)*%
X187422878Y-46200000D03*
%TD*%
D13*
%TO.P,R3,1*%
%TO.N,Net-(D3-A)*%
X123399979Y-77200000D03*
%TO.P,R3,2*%
%TO.N,3v3*%
X133559979Y-77200000D03*
%TD*%
D17*
%TO.P,RB1,1,A*%
%TO.N,RB*%
X120674979Y-48120000D03*
%TO.P,RB1,2,B*%
%TO.N,GND*%
X114324979Y-50660000D03*
%TD*%
D20*
%TO.P,J1,1,Pin_1*%
%TO.N,GND*%
X202190000Y-127160000D03*
D21*
%TO.P,J1,2,Pin_2*%
%TO.N,3v3*%
X202190000Y-125160000D03*
%TO.P,J1,3,Pin_3*%
%TO.N,/Left*%
X202190000Y-123160000D03*
%TO.P,J1,4,Pin_4*%
%TO.N,/Right*%
X202190000Y-121160000D03*
%TO.P,J1,5,Pin_5*%
%TO.N,/Down*%
X202190000Y-119160000D03*
%TO.P,J1,6,Pin_6*%
%TO.N,/Up*%
X202190000Y-117160000D03*
%TD*%
D22*
%TO.P,J2,1,Pin_1*%
%TO.N,GND*%
X201550000Y-37200000D03*
D23*
%TO.P,J2,2,Pin_2*%
%TO.N,3v3*%
X199550000Y-37200000D03*
%TO.P,J2,3,Pin_3*%
%TO.N,/SCK*%
X197550000Y-37200000D03*
%TO.P,J2,4,Pin_4*%
%TO.N,/SDA*%
X195550000Y-37200000D03*
%TO.P,J2,5,Pin_5*%
%TO.N,/Rotary_Encoder_DT*%
X193550000Y-37200000D03*
%TO.P,J2,6,Pin_6*%
%TO.N,/Rotary_Encoder_CLK*%
X191550000Y-37200000D03*
%TO.P,J2,7,Pin_7*%
%TO.N,/Encoder_Press*%
X189550000Y-37200000D03*
%TD*%
D22*
%TO.P,J3,1,Pin_1*%
%TO.N,GND*%
X80450000Y-37200000D03*
D23*
%TO.P,J3,2,Pin_2*%
%TO.N,3v3*%
X78450000Y-37200000D03*
%TO.P,J3,3,Pin_3*%
%TO.N,/R3*%
X76450000Y-37200000D03*
%TO.P,J3,4,Pin_4*%
%TO.N,/L3*%
X74450000Y-37200000D03*
%TO.P,J3,5,Pin_5*%
%TO.N,/Guide*%
X72450000Y-37200000D03*
%TO.P,J3,6,Pin_6*%
%TO.N,/Options*%
X70450000Y-37200000D03*
%TO.P,J3,7,Pin_7*%
%TO.N,/Start*%
X68450000Y-37200000D03*
%TD*%
D24*
%TO.N,/SDA*%
X141000000Y-115000000D03*
X172000000Y-115000000D03*
%TO.N,/Encoder_Press*%
X124000000Y-115000000D03*
%TD*%
D25*
%TO.N,GND*%
X164159172Y-35099000D02*
X168502908Y-35099000D01*
X98811072Y-48099000D02*
X111763979Y-48099000D01*
X153155918Y-131685000D02*
X153155918Y-130880000D01*
X196350000Y-32000000D02*
X189000000Y-32000000D01*
X182201954Y-38798046D02*
X182201954Y-48798046D01*
X80032122Y-57660000D02*
X89250072Y-57660000D01*
X80032122Y-57660000D02*
X80032122Y-37617878D01*
X201550000Y-37200000D02*
X196350000Y-32000000D01*
X168502908Y-35099000D02*
X182201954Y-48798046D01*
X133108929Y-41099000D02*
X145245858Y-41099000D01*
X154598172Y-44660000D02*
X164159172Y-35099000D01*
X145245858Y-41099000D02*
X148806858Y-44660000D01*
X182201954Y-48798046D02*
X182347878Y-48943970D01*
X123547929Y-50660000D02*
X133108929Y-41099000D01*
X182347878Y-48943970D02*
X182347878Y-54660000D01*
X195769000Y-133581000D02*
X155051918Y-133581000D01*
X202190000Y-127160000D02*
X195769000Y-133581000D01*
X89250072Y-57660000D02*
X98811072Y-48099000D01*
X111763979Y-48099000D02*
X114324979Y-50660000D01*
X80032122Y-37617878D02*
X80450000Y-37200000D01*
X155051918Y-133581000D02*
X153155918Y-131685000D01*
X114324979Y-50660000D02*
X123547929Y-50660000D01*
X148806858Y-44660000D02*
X154598172Y-44660000D01*
X189000000Y-32000000D02*
X182201954Y-38798046D01*
%TO.N,A*%
X137915918Y-112475878D02*
X137915918Y-113100000D01*
X188697878Y-87120000D02*
X163271796Y-87120000D01*
X184887878Y-83310000D02*
X188697878Y-87120000D01*
X184887878Y-81200000D02*
X184887878Y-83310000D01*
X163271796Y-87120000D02*
X137915918Y-112475878D01*
%TO.N,B*%
X135375918Y-112117050D02*
X135375918Y-113100000D01*
X155156858Y-92336110D02*
X135375918Y-112117050D01*
X155156858Y-77120000D02*
X155156858Y-92336110D01*
X151341858Y-71200000D02*
X151341858Y-73305000D01*
X151341858Y-73305000D02*
X155156858Y-77120000D01*
%TO.N,RB*%
X116864979Y-42200000D02*
X116864979Y-44310000D01*
X116864979Y-44310000D02*
X120674979Y-48120000D01*
%TO.N,Net-(D1-A)*%
X187427878Y-81200000D02*
X191427878Y-81200000D01*
%TO.N,LB*%
X82567122Y-49200000D02*
X82567122Y-51305000D01*
X82567122Y-51305000D02*
X86382122Y-55120000D01*
%TO.N,Net-(D2-A)*%
X153881858Y-71200000D02*
X157881858Y-71200000D01*
%TO.N,Y*%
X151346858Y-36200000D02*
X151346858Y-38310000D01*
X151346858Y-38310000D02*
X155156858Y-42120000D01*
%TO.N,Net-(D3-A)*%
X119399979Y-77200000D02*
X123399979Y-77200000D01*
%TO.N,Net-(D4-A)*%
X89107122Y-84200000D02*
X85107122Y-84200000D01*
%TO.N,X*%
X184882878Y-46200000D02*
X184882878Y-48305000D01*
X184882878Y-48305000D02*
X188697878Y-52120000D01*
%TO.N,Net-(D5-A)*%
X187422878Y-46200000D02*
X191422878Y-46200000D01*
%TO.N,LT*%
X130295918Y-110295918D02*
X130295918Y-113100000D01*
X82567122Y-86305000D02*
X86382122Y-90120000D01*
X82567122Y-84200000D02*
X82567122Y-86305000D01*
X86382122Y-90120000D02*
X97262122Y-101000000D01*
X97262122Y-101000000D02*
X121000000Y-101000000D01*
X121000000Y-101000000D02*
X130295918Y-110295918D01*
%TO.N,Net-(D6-A)*%
X153886858Y-36200000D02*
X157886858Y-36200000D01*
%TO.N,RT*%
X116859979Y-77200000D02*
X116859979Y-79305000D01*
X120674979Y-83120000D02*
X132835918Y-95280939D01*
X132835918Y-95280939D02*
X132835918Y-113100000D01*
X116859979Y-79305000D02*
X120674979Y-83120000D01*
%TO.N,Net-(D7-A)*%
X119404979Y-42200000D02*
X123404979Y-42200000D01*
%TO.N,Net-(D8-A)*%
X85107122Y-49200000D02*
X89107122Y-49200000D01*
%TO.N,/Options*%
X70450000Y-91354082D02*
X109975918Y-130880000D01*
X70450000Y-37200000D02*
X70450000Y-91354082D01*
%TO.N,/Start*%
X112515918Y-131680000D02*
X112515918Y-130880000D01*
X110195918Y-134000000D02*
X112515918Y-131680000D01*
X68450000Y-96450000D02*
X106000000Y-134000000D01*
X68450000Y-37200000D02*
X68450000Y-96450000D01*
X106000000Y-134000000D02*
X110195918Y-134000000D01*
%TO.N,3v3*%
X133564979Y-77195000D02*
X133559979Y-77200000D01*
X168041858Y-71200000D02*
X191587878Y-71200000D01*
X81000000Y-72000000D02*
X96267122Y-72000000D01*
X133559979Y-77200000D02*
X144759979Y-66000000D01*
X78450000Y-37200000D02*
X77561122Y-38088878D01*
X77561122Y-38088878D02*
X77561122Y-68561122D01*
X99267122Y-69000000D02*
X99267122Y-84200000D01*
X168046858Y-36200000D02*
X168046858Y-66000000D01*
X99267122Y-49200000D02*
X99267122Y-69000000D01*
X133564979Y-42200000D02*
X133564979Y-72000000D01*
X197576000Y-129774000D02*
X149181918Y-129774000D01*
X111467122Y-72000000D02*
X133564979Y-72000000D01*
X168046858Y-66000000D02*
X168046858Y-71195000D01*
X202190000Y-125160000D02*
X197576000Y-129774000D01*
X149181918Y-129774000D02*
X148075918Y-130880000D01*
X96267122Y-72000000D02*
X99267122Y-69000000D01*
X77561122Y-68561122D02*
X81000000Y-72000000D01*
X191587878Y-71200000D02*
X201587878Y-81200000D01*
X168046858Y-71195000D02*
X168041858Y-71200000D01*
X133564979Y-72000000D02*
X133564979Y-77195000D01*
X144759979Y-66000000D02*
X168046858Y-66000000D01*
X201582878Y-81195000D02*
X201587878Y-81200000D01*
X99267122Y-84200000D02*
X111467122Y-72000000D01*
X201582878Y-46200000D02*
X201582878Y-81195000D01*
%TO.N,/Up*%
X150615918Y-113900000D02*
X150615918Y-113100000D01*
X202190000Y-117160000D02*
X153875918Y-117160000D01*
X153875918Y-117160000D02*
X150615918Y-113900000D01*
%TO.N,/Down*%
X202190000Y-119160000D02*
X200591000Y-117561000D01*
X200591000Y-117561000D02*
X152536918Y-117561000D01*
X152536918Y-117561000D02*
X148075918Y-113100000D01*
%TO.N,/Left*%
X148000000Y-128000000D02*
X142195919Y-122195919D01*
X142195919Y-113899999D02*
X142995918Y-113100000D01*
X202190000Y-123160000D02*
X197350000Y-128000000D01*
X142195919Y-122195919D02*
X142195919Y-113899999D01*
X197350000Y-128000000D02*
X148000000Y-128000000D01*
%TO.N,/Right*%
X178000000Y-127000000D02*
X183840000Y-121160000D01*
X145535918Y-113100000D02*
X143000000Y-115635918D01*
X148000000Y-127000000D02*
X178000000Y-127000000D01*
X143000000Y-115635918D02*
X143000000Y-122000000D01*
X183840000Y-121160000D02*
X202190000Y-121160000D01*
X143000000Y-122000000D02*
X148000000Y-127000000D01*
%TO.N,/Rotary_Encoder_CLK*%
X199449000Y-45099000D02*
X202038928Y-45099000D01*
X161900000Y-113100000D02*
X158235918Y-113100000D01*
X202688878Y-81656050D02*
X195823928Y-88521000D01*
X202038928Y-45099000D02*
X202688878Y-45748950D01*
X191550000Y-37200000D02*
X199449000Y-45099000D01*
X202688878Y-45748950D02*
X202688878Y-81656050D01*
X186479000Y-88521000D02*
X161900000Y-113100000D01*
X195823928Y-88521000D02*
X186479000Y-88521000D01*
%TO.N,/SDA*%
X204000000Y-45650000D02*
X195550000Y-37200000D01*
X113621918Y-114206000D02*
X112515918Y-113100000D01*
X172000000Y-115000000D02*
X174000000Y-113000000D01*
X174000000Y-113000000D02*
X183000000Y-113000000D01*
X140206000Y-114206000D02*
X113621918Y-114206000D01*
X183000000Y-113000000D02*
X204000000Y-92000000D01*
X141000000Y-115000000D02*
X140206000Y-114206000D01*
X204000000Y-92000000D02*
X204000000Y-45650000D01*
%TO.N,/Rotary_Encoder_DT*%
X202205028Y-44698000D02*
X203089878Y-45582850D01*
X156801918Y-114206000D02*
X155695918Y-113100000D01*
X203089878Y-82046470D02*
X170930348Y-114206000D01*
X193550000Y-37200000D02*
X201048000Y-44698000D01*
X201048000Y-44698000D02*
X202205028Y-44698000D01*
X170930348Y-114206000D02*
X156801918Y-114206000D01*
X203089878Y-45582850D02*
X203089878Y-82046470D01*
%TO.N,/Encoder_Press*%
X124000000Y-115000000D02*
X125215918Y-116215918D01*
X125215918Y-116215918D02*
X125215918Y-130880000D01*
%TD*%
M02*
