%TF.GenerationSoftware,KiCad,Pcbnew,9.0.6*%
%TF.CreationDate,2026-08-18T15:07:15-04:00*%
%TF.ProjectId,Action_Button_PCB,41637469-6f6e-45f4-9275-74746f6e5f50,rev?*%
%TF.SameCoordinates,Original*%
%TF.FileFunction,Profile,NP*%
%FSLAX46Y46*%
G04 Gerber Fmt 4.6, Leading zero omitted, Abs format (unit mm)*
G04 Created by KiCad (PCBNEW 9.0.6) date 2026-08-18 15:07:15*
%MOMM*%
%LPD*%
G01*
G04 APERTURE LIST*
%TA.AperFunction,Profile*%
%ADD10C,0.200000*%
%TD*%
%TA.AperFunction,Profile*%
%ADD11C,0.010050*%
%TD*%
G04 APERTURE END LIST*
D10*
X62000000Y-136000000D02*
X208000000Y-136000000D01*
X60000000Y-31000000D02*
G75*
G02*
X61999999Y-29000000I2000000J0D01*
G01*
D11*
X210005025Y-29000000D02*
G75*
G02*
X209994975Y-29000000I-5025J0D01*
G01*
X209994975Y-29000000D02*
G75*
G02*
X210005025Y-29000000I5025J0D01*
G01*
D10*
X61999999Y-29000000D02*
X208000000Y-29000000D01*
X208500000Y-32000000D02*
G75*
G02*
X205500000Y-32000000I-1500000J0D01*
G01*
X205500000Y-32000000D02*
G75*
G02*
X208500000Y-32000000I1500000J0D01*
G01*
D11*
X60005025Y-29000000D02*
G75*
G02*
X59994975Y-29000000I-5025J0D01*
G01*
X59994975Y-29000000D02*
G75*
G02*
X60005025Y-29000000I5025J0D01*
G01*
D10*
X210000000Y-134000000D02*
G75*
G02*
X208000000Y-136000000I-2000000J0D01*
G01*
X60000000Y-134000000D02*
X60000000Y-31000000D01*
X208000000Y-29000000D02*
G75*
G02*
X210000000Y-31000000I0J-2000000D01*
G01*
X62000000Y-136000000D02*
G75*
G02*
X60000000Y-134000000I0J2000000D01*
G01*
D11*
X60005025Y-136000000D02*
G75*
G02*
X59994975Y-136000000I-5025J0D01*
G01*
X59994975Y-136000000D02*
G75*
G02*
X60005025Y-136000000I5025J0D01*
G01*
D10*
X208500000Y-133000000D02*
G75*
G02*
X205500000Y-133000000I-1500000J0D01*
G01*
X205500000Y-133000000D02*
G75*
G02*
X208500000Y-133000000I1500000J0D01*
G01*
X64500000Y-133000000D02*
G75*
G02*
X61500000Y-133000000I-1500000J0D01*
G01*
X61500000Y-133000000D02*
G75*
G02*
X64500000Y-133000000I1500000J0D01*
G01*
X210000000Y-134000000D02*
X210000000Y-31000000D01*
X64500000Y-32000000D02*
G75*
G02*
X61500000Y-32000000I-1500000J0D01*
G01*
X61500000Y-32000000D02*
G75*
G02*
X64500000Y-32000000I1500000J0D01*
G01*
M02*
