%TF.GenerationSoftware,KiCad,Pcbnew,9.0.6*%
%TF.CreationDate,2026-08-18T15:07:15-04:00*%
%TF.ProjectId,Action_Button_PCB,41637469-6f6e-45f4-9275-74746f6e5f50,rev?*%
%TF.SameCoordinates,Original*%
%TF.FileFunction,Legend,Top*%
%TF.FilePolarity,Positive*%
%FSLAX46Y46*%
G04 Gerber Fmt 4.6, Leading zero omitted, Abs format (unit mm)*
G04 Created by KiCad (PCBNEW 9.0.6) date 2026-08-18 15:07:15*
%MOMM*%
%LPD*%
G01*
G04 APERTURE LIST*
%ADD10C,0.150000*%
%ADD11C,0.120000*%
G04 APERTURE END LIST*
D10*
X109171813Y-134026660D02*
X109171813Y-134502850D01*
X108886098Y-133931422D02*
X109886098Y-134264755D01*
X109886098Y-134264755D02*
X108886098Y-134598088D01*
X109790860Y-134883803D02*
X109838479Y-134931422D01*
X109838479Y-134931422D02*
X109886098Y-135026660D01*
X109886098Y-135026660D02*
X109886098Y-135264755D01*
X109886098Y-135264755D02*
X109838479Y-135359993D01*
X109838479Y-135359993D02*
X109790860Y-135407612D01*
X109790860Y-135407612D02*
X109695622Y-135455231D01*
X109695622Y-135455231D02*
X109600384Y-135455231D01*
X109600384Y-135455231D02*
X109457527Y-135407612D01*
X109457527Y-135407612D02*
X108886098Y-134836184D01*
X108886098Y-134836184D02*
X108886098Y-135455231D01*
X113237359Y-83304819D02*
X112904026Y-82828628D01*
X112665931Y-83304819D02*
X112665931Y-82304819D01*
X112665931Y-82304819D02*
X113046883Y-82304819D01*
X113046883Y-82304819D02*
X113142121Y-82352438D01*
X113142121Y-82352438D02*
X113189740Y-82400057D01*
X113189740Y-82400057D02*
X113237359Y-82495295D01*
X113237359Y-82495295D02*
X113237359Y-82638152D01*
X113237359Y-82638152D02*
X113189740Y-82733390D01*
X113189740Y-82733390D02*
X113142121Y-82781009D01*
X113142121Y-82781009D02*
X113046883Y-82828628D01*
X113046883Y-82828628D02*
X112665931Y-82828628D01*
X113523074Y-82304819D02*
X114094502Y-82304819D01*
X113808788Y-83304819D02*
X113808788Y-82304819D01*
X114951645Y-83304819D02*
X114380217Y-83304819D01*
X114665931Y-83304819D02*
X114665931Y-82304819D01*
X114665931Y-82304819D02*
X114570693Y-82447676D01*
X114570693Y-82447676D02*
X114475455Y-82542914D01*
X114475455Y-82542914D02*
X114380217Y-82590533D01*
X117391884Y-73694819D02*
X117391884Y-72694819D01*
X117391884Y-72694819D02*
X117629979Y-72694819D01*
X117629979Y-72694819D02*
X117772836Y-72742438D01*
X117772836Y-72742438D02*
X117868074Y-72837676D01*
X117868074Y-72837676D02*
X117915693Y-72932914D01*
X117915693Y-72932914D02*
X117963312Y-73123390D01*
X117963312Y-73123390D02*
X117963312Y-73266247D01*
X117963312Y-73266247D02*
X117915693Y-73456723D01*
X117915693Y-73456723D02*
X117868074Y-73551961D01*
X117868074Y-73551961D02*
X117772836Y-73647200D01*
X117772836Y-73647200D02*
X117629979Y-73694819D01*
X117629979Y-73694819D02*
X117391884Y-73694819D01*
X118296646Y-72694819D02*
X118915693Y-72694819D01*
X118915693Y-72694819D02*
X118582360Y-73075771D01*
X118582360Y-73075771D02*
X118725217Y-73075771D01*
X118725217Y-73075771D02*
X118820455Y-73123390D01*
X118820455Y-73123390D02*
X118868074Y-73171009D01*
X118868074Y-73171009D02*
X118915693Y-73266247D01*
X118915693Y-73266247D02*
X118915693Y-73504342D01*
X118915693Y-73504342D02*
X118868074Y-73599580D01*
X118868074Y-73599580D02*
X118820455Y-73647200D01*
X118820455Y-73647200D02*
X118725217Y-73694819D01*
X118725217Y-73694819D02*
X118439503Y-73694819D01*
X118439503Y-73694819D02*
X118344265Y-73647200D01*
X118344265Y-73647200D02*
X118296646Y-73599580D01*
X196336211Y-44284819D02*
X196002878Y-43808628D01*
X195764783Y-44284819D02*
X195764783Y-43284819D01*
X195764783Y-43284819D02*
X196145735Y-43284819D01*
X196145735Y-43284819D02*
X196240973Y-43332438D01*
X196240973Y-43332438D02*
X196288592Y-43380057D01*
X196288592Y-43380057D02*
X196336211Y-43475295D01*
X196336211Y-43475295D02*
X196336211Y-43618152D01*
X196336211Y-43618152D02*
X196288592Y-43713390D01*
X196288592Y-43713390D02*
X196240973Y-43761009D01*
X196240973Y-43761009D02*
X196145735Y-43808628D01*
X196145735Y-43808628D02*
X195764783Y-43808628D01*
X197240973Y-43284819D02*
X196764783Y-43284819D01*
X196764783Y-43284819D02*
X196717164Y-43761009D01*
X196717164Y-43761009D02*
X196764783Y-43713390D01*
X196764783Y-43713390D02*
X196860021Y-43665771D01*
X196860021Y-43665771D02*
X197098116Y-43665771D01*
X197098116Y-43665771D02*
X197193354Y-43713390D01*
X197193354Y-43713390D02*
X197240973Y-43761009D01*
X197240973Y-43761009D02*
X197288592Y-43856247D01*
X197288592Y-43856247D02*
X197288592Y-44094342D01*
X197288592Y-44094342D02*
X197240973Y-44189580D01*
X197240973Y-44189580D02*
X197193354Y-44237200D01*
X197193354Y-44237200D02*
X197098116Y-44284819D01*
X197098116Y-44284819D02*
X196860021Y-44284819D01*
X196860021Y-44284819D02*
X196764783Y-44237200D01*
X196764783Y-44237200D02*
X196717164Y-44189580D01*
X146790667Y-41828628D02*
X146790667Y-42304819D01*
X146457334Y-41304819D02*
X146790667Y-41828628D01*
X146790667Y-41828628D02*
X147124000Y-41304819D01*
X147981143Y-42304819D02*
X147409715Y-42304819D01*
X147695429Y-42304819D02*
X147695429Y-41304819D01*
X147695429Y-41304819D02*
X147600191Y-41447676D01*
X147600191Y-41447676D02*
X147504953Y-41542914D01*
X147504953Y-41542914D02*
X147409715Y-41590533D01*
X83099027Y-80694819D02*
X83099027Y-79694819D01*
X83099027Y-79694819D02*
X83337122Y-79694819D01*
X83337122Y-79694819D02*
X83479979Y-79742438D01*
X83479979Y-79742438D02*
X83575217Y-79837676D01*
X83575217Y-79837676D02*
X83622836Y-79932914D01*
X83622836Y-79932914D02*
X83670455Y-80123390D01*
X83670455Y-80123390D02*
X83670455Y-80266247D01*
X83670455Y-80266247D02*
X83622836Y-80456723D01*
X83622836Y-80456723D02*
X83575217Y-80551961D01*
X83575217Y-80551961D02*
X83479979Y-80647200D01*
X83479979Y-80647200D02*
X83337122Y-80694819D01*
X83337122Y-80694819D02*
X83099027Y-80694819D01*
X84527598Y-80028152D02*
X84527598Y-80694819D01*
X84289503Y-79647200D02*
X84051408Y-80361485D01*
X84051408Y-80361485D02*
X84670455Y-80361485D01*
X78944502Y-90304819D02*
X78468312Y-90304819D01*
X78468312Y-90304819D02*
X78468312Y-89304819D01*
X79134979Y-89304819D02*
X79706407Y-89304819D01*
X79420693Y-90304819D02*
X79420693Y-89304819D01*
X80563550Y-90304819D02*
X79992122Y-90304819D01*
X80277836Y-90304819D02*
X80277836Y-89304819D01*
X80277836Y-89304819D02*
X80182598Y-89447676D01*
X80182598Y-89447676D02*
X80087360Y-89542914D01*
X80087360Y-89542914D02*
X79992122Y-89590533D01*
X162795191Y-69284819D02*
X162461858Y-68808628D01*
X162223763Y-69284819D02*
X162223763Y-68284819D01*
X162223763Y-68284819D02*
X162604715Y-68284819D01*
X162604715Y-68284819D02*
X162699953Y-68332438D01*
X162699953Y-68332438D02*
X162747572Y-68380057D01*
X162747572Y-68380057D02*
X162795191Y-68475295D01*
X162795191Y-68475295D02*
X162795191Y-68618152D01*
X162795191Y-68618152D02*
X162747572Y-68713390D01*
X162747572Y-68713390D02*
X162699953Y-68761009D01*
X162699953Y-68761009D02*
X162604715Y-68808628D01*
X162604715Y-68808628D02*
X162223763Y-68808628D01*
X163176144Y-68380057D02*
X163223763Y-68332438D01*
X163223763Y-68332438D02*
X163319001Y-68284819D01*
X163319001Y-68284819D02*
X163557096Y-68284819D01*
X163557096Y-68284819D02*
X163652334Y-68332438D01*
X163652334Y-68332438D02*
X163699953Y-68380057D01*
X163699953Y-68380057D02*
X163747572Y-68475295D01*
X163747572Y-68475295D02*
X163747572Y-68570533D01*
X163747572Y-68570533D02*
X163699953Y-68713390D01*
X163699953Y-68713390D02*
X163128525Y-69284819D01*
X163128525Y-69284819D02*
X163747572Y-69284819D01*
X78825455Y-55304819D02*
X78349265Y-55304819D01*
X78349265Y-55304819D02*
X78349265Y-54304819D01*
X79492122Y-54781009D02*
X79634979Y-54828628D01*
X79634979Y-54828628D02*
X79682598Y-54876247D01*
X79682598Y-54876247D02*
X79730217Y-54971485D01*
X79730217Y-54971485D02*
X79730217Y-55114342D01*
X79730217Y-55114342D02*
X79682598Y-55209580D01*
X79682598Y-55209580D02*
X79634979Y-55257200D01*
X79634979Y-55257200D02*
X79539741Y-55304819D01*
X79539741Y-55304819D02*
X79158789Y-55304819D01*
X79158789Y-55304819D02*
X79158789Y-54304819D01*
X79158789Y-54304819D02*
X79492122Y-54304819D01*
X79492122Y-54304819D02*
X79587360Y-54352438D01*
X79587360Y-54352438D02*
X79634979Y-54400057D01*
X79634979Y-54400057D02*
X79682598Y-54495295D01*
X79682598Y-54495295D02*
X79682598Y-54590533D01*
X79682598Y-54590533D02*
X79634979Y-54685771D01*
X79634979Y-54685771D02*
X79587360Y-54733390D01*
X79587360Y-54733390D02*
X79492122Y-54781009D01*
X79492122Y-54781009D02*
X79158789Y-54781009D01*
X80682598Y-55304819D02*
X80111170Y-55304819D01*
X80396884Y-55304819D02*
X80396884Y-54304819D01*
X80396884Y-54304819D02*
X80301646Y-54447676D01*
X80301646Y-54447676D02*
X80206408Y-54542914D01*
X80206408Y-54542914D02*
X80111170Y-54590533D01*
X94020455Y-82284819D02*
X93687122Y-81808628D01*
X93449027Y-82284819D02*
X93449027Y-81284819D01*
X93449027Y-81284819D02*
X93829979Y-81284819D01*
X93829979Y-81284819D02*
X93925217Y-81332438D01*
X93925217Y-81332438D02*
X93972836Y-81380057D01*
X93972836Y-81380057D02*
X94020455Y-81475295D01*
X94020455Y-81475295D02*
X94020455Y-81618152D01*
X94020455Y-81618152D02*
X93972836Y-81713390D01*
X93972836Y-81713390D02*
X93925217Y-81761009D01*
X93925217Y-81761009D02*
X93829979Y-81808628D01*
X93829979Y-81808628D02*
X93449027Y-81808628D01*
X94877598Y-81618152D02*
X94877598Y-82284819D01*
X94639503Y-81237200D02*
X94401408Y-81951485D01*
X94401408Y-81951485D02*
X95020455Y-81951485D01*
X83099027Y-45694819D02*
X83099027Y-44694819D01*
X83099027Y-44694819D02*
X83337122Y-44694819D01*
X83337122Y-44694819D02*
X83479979Y-44742438D01*
X83479979Y-44742438D02*
X83575217Y-44837676D01*
X83575217Y-44837676D02*
X83622836Y-44932914D01*
X83622836Y-44932914D02*
X83670455Y-45123390D01*
X83670455Y-45123390D02*
X83670455Y-45266247D01*
X83670455Y-45266247D02*
X83622836Y-45456723D01*
X83622836Y-45456723D02*
X83575217Y-45551961D01*
X83575217Y-45551961D02*
X83479979Y-45647200D01*
X83479979Y-45647200D02*
X83337122Y-45694819D01*
X83337122Y-45694819D02*
X83099027Y-45694819D01*
X84241884Y-45123390D02*
X84146646Y-45075771D01*
X84146646Y-45075771D02*
X84099027Y-45028152D01*
X84099027Y-45028152D02*
X84051408Y-44932914D01*
X84051408Y-44932914D02*
X84051408Y-44885295D01*
X84051408Y-44885295D02*
X84099027Y-44790057D01*
X84099027Y-44790057D02*
X84146646Y-44742438D01*
X84146646Y-44742438D02*
X84241884Y-44694819D01*
X84241884Y-44694819D02*
X84432360Y-44694819D01*
X84432360Y-44694819D02*
X84527598Y-44742438D01*
X84527598Y-44742438D02*
X84575217Y-44790057D01*
X84575217Y-44790057D02*
X84622836Y-44885295D01*
X84622836Y-44885295D02*
X84622836Y-44932914D01*
X84622836Y-44932914D02*
X84575217Y-45028152D01*
X84575217Y-45028152D02*
X84527598Y-45075771D01*
X84527598Y-45075771D02*
X84432360Y-45123390D01*
X84432360Y-45123390D02*
X84241884Y-45123390D01*
X84241884Y-45123390D02*
X84146646Y-45171009D01*
X84146646Y-45171009D02*
X84099027Y-45218628D01*
X84099027Y-45218628D02*
X84051408Y-45313866D01*
X84051408Y-45313866D02*
X84051408Y-45504342D01*
X84051408Y-45504342D02*
X84099027Y-45599580D01*
X84099027Y-45599580D02*
X84146646Y-45647200D01*
X84146646Y-45647200D02*
X84241884Y-45694819D01*
X84241884Y-45694819D02*
X84432360Y-45694819D01*
X84432360Y-45694819D02*
X84527598Y-45647200D01*
X84527598Y-45647200D02*
X84575217Y-45599580D01*
X84575217Y-45599580D02*
X84622836Y-45504342D01*
X84622836Y-45504342D02*
X84622836Y-45313866D01*
X84622836Y-45313866D02*
X84575217Y-45218628D01*
X84575217Y-45218628D02*
X84527598Y-45171009D01*
X84527598Y-45171009D02*
X84432360Y-45123390D01*
X180093592Y-87019104D02*
X180569782Y-87019104D01*
X179998354Y-87304819D02*
X180331687Y-86304819D01*
X180331687Y-86304819D02*
X180665020Y-87304819D01*
X181522163Y-87304819D02*
X180950735Y-87304819D01*
X181236449Y-87304819D02*
X181236449Y-86304819D01*
X181236449Y-86304819D02*
X181141211Y-86447676D01*
X181141211Y-86447676D02*
X181045973Y-86542914D01*
X181045973Y-86542914D02*
X180950735Y-86590533D01*
X94020455Y-47284819D02*
X93687122Y-46808628D01*
X93449027Y-47284819D02*
X93449027Y-46284819D01*
X93449027Y-46284819D02*
X93829979Y-46284819D01*
X93829979Y-46284819D02*
X93925217Y-46332438D01*
X93925217Y-46332438D02*
X93972836Y-46380057D01*
X93972836Y-46380057D02*
X94020455Y-46475295D01*
X94020455Y-46475295D02*
X94020455Y-46618152D01*
X94020455Y-46618152D02*
X93972836Y-46713390D01*
X93972836Y-46713390D02*
X93925217Y-46761009D01*
X93925217Y-46761009D02*
X93829979Y-46808628D01*
X93829979Y-46808628D02*
X93449027Y-46808628D01*
X94591884Y-46713390D02*
X94496646Y-46665771D01*
X94496646Y-46665771D02*
X94449027Y-46618152D01*
X94449027Y-46618152D02*
X94401408Y-46522914D01*
X94401408Y-46522914D02*
X94401408Y-46475295D01*
X94401408Y-46475295D02*
X94449027Y-46380057D01*
X94449027Y-46380057D02*
X94496646Y-46332438D01*
X94496646Y-46332438D02*
X94591884Y-46284819D01*
X94591884Y-46284819D02*
X94782360Y-46284819D01*
X94782360Y-46284819D02*
X94877598Y-46332438D01*
X94877598Y-46332438D02*
X94925217Y-46380057D01*
X94925217Y-46380057D02*
X94972836Y-46475295D01*
X94972836Y-46475295D02*
X94972836Y-46522914D01*
X94972836Y-46522914D02*
X94925217Y-46618152D01*
X94925217Y-46618152D02*
X94877598Y-46665771D01*
X94877598Y-46665771D02*
X94782360Y-46713390D01*
X94782360Y-46713390D02*
X94591884Y-46713390D01*
X94591884Y-46713390D02*
X94496646Y-46761009D01*
X94496646Y-46761009D02*
X94449027Y-46808628D01*
X94449027Y-46808628D02*
X94401408Y-46903866D01*
X94401408Y-46903866D02*
X94401408Y-47094342D01*
X94401408Y-47094342D02*
X94449027Y-47189580D01*
X94449027Y-47189580D02*
X94496646Y-47237200D01*
X94496646Y-47237200D02*
X94591884Y-47284819D01*
X94591884Y-47284819D02*
X94782360Y-47284819D01*
X94782360Y-47284819D02*
X94877598Y-47237200D01*
X94877598Y-47237200D02*
X94925217Y-47189580D01*
X94925217Y-47189580D02*
X94972836Y-47094342D01*
X94972836Y-47094342D02*
X94972836Y-46903866D01*
X94972836Y-46903866D02*
X94925217Y-46808628D01*
X94925217Y-46808628D02*
X94877598Y-46761009D01*
X94877598Y-46761009D02*
X94782360Y-46713390D01*
X151878763Y-32694819D02*
X151878763Y-31694819D01*
X151878763Y-31694819D02*
X152116858Y-31694819D01*
X152116858Y-31694819D02*
X152259715Y-31742438D01*
X152259715Y-31742438D02*
X152354953Y-31837676D01*
X152354953Y-31837676D02*
X152402572Y-31932914D01*
X152402572Y-31932914D02*
X152450191Y-32123390D01*
X152450191Y-32123390D02*
X152450191Y-32266247D01*
X152450191Y-32266247D02*
X152402572Y-32456723D01*
X152402572Y-32456723D02*
X152354953Y-32551961D01*
X152354953Y-32551961D02*
X152259715Y-32647200D01*
X152259715Y-32647200D02*
X152116858Y-32694819D01*
X152116858Y-32694819D02*
X151878763Y-32694819D01*
X153307334Y-31694819D02*
X153116858Y-31694819D01*
X153116858Y-31694819D02*
X153021620Y-31742438D01*
X153021620Y-31742438D02*
X152974001Y-31790057D01*
X152974001Y-31790057D02*
X152878763Y-31932914D01*
X152878763Y-31932914D02*
X152831144Y-32123390D01*
X152831144Y-32123390D02*
X152831144Y-32504342D01*
X152831144Y-32504342D02*
X152878763Y-32599580D01*
X152878763Y-32599580D02*
X152926382Y-32647200D01*
X152926382Y-32647200D02*
X153021620Y-32694819D01*
X153021620Y-32694819D02*
X153212096Y-32694819D01*
X153212096Y-32694819D02*
X153307334Y-32647200D01*
X153307334Y-32647200D02*
X153354953Y-32599580D01*
X153354953Y-32599580D02*
X153402572Y-32504342D01*
X153402572Y-32504342D02*
X153402572Y-32266247D01*
X153402572Y-32266247D02*
X153354953Y-32171009D01*
X153354953Y-32171009D02*
X153307334Y-32123390D01*
X153307334Y-32123390D02*
X153212096Y-32075771D01*
X153212096Y-32075771D02*
X153021620Y-32075771D01*
X153021620Y-32075771D02*
X152926382Y-32123390D01*
X152926382Y-32123390D02*
X152878763Y-32171009D01*
X152878763Y-32171009D02*
X152831144Y-32266247D01*
X162800191Y-34284819D02*
X162466858Y-33808628D01*
X162228763Y-34284819D02*
X162228763Y-33284819D01*
X162228763Y-33284819D02*
X162609715Y-33284819D01*
X162609715Y-33284819D02*
X162704953Y-33332438D01*
X162704953Y-33332438D02*
X162752572Y-33380057D01*
X162752572Y-33380057D02*
X162800191Y-33475295D01*
X162800191Y-33475295D02*
X162800191Y-33618152D01*
X162800191Y-33618152D02*
X162752572Y-33713390D01*
X162752572Y-33713390D02*
X162704953Y-33761009D01*
X162704953Y-33761009D02*
X162609715Y-33808628D01*
X162609715Y-33808628D02*
X162228763Y-33808628D01*
X163657334Y-33284819D02*
X163466858Y-33284819D01*
X163466858Y-33284819D02*
X163371620Y-33332438D01*
X163371620Y-33332438D02*
X163324001Y-33380057D01*
X163324001Y-33380057D02*
X163228763Y-33522914D01*
X163228763Y-33522914D02*
X163181144Y-33713390D01*
X163181144Y-33713390D02*
X163181144Y-34094342D01*
X163181144Y-34094342D02*
X163228763Y-34189580D01*
X163228763Y-34189580D02*
X163276382Y-34237200D01*
X163276382Y-34237200D02*
X163371620Y-34284819D01*
X163371620Y-34284819D02*
X163562096Y-34284819D01*
X163562096Y-34284819D02*
X163657334Y-34237200D01*
X163657334Y-34237200D02*
X163704953Y-34189580D01*
X163704953Y-34189580D02*
X163752572Y-34094342D01*
X163752572Y-34094342D02*
X163752572Y-33856247D01*
X163752572Y-33856247D02*
X163704953Y-33761009D01*
X163704953Y-33761009D02*
X163657334Y-33713390D01*
X163657334Y-33713390D02*
X163562096Y-33665771D01*
X163562096Y-33665771D02*
X163371620Y-33665771D01*
X163371620Y-33665771D02*
X163276382Y-33713390D01*
X163276382Y-33713390D02*
X163228763Y-33761009D01*
X163228763Y-33761009D02*
X163181144Y-33856247D01*
X185419783Y-77694819D02*
X185419783Y-76694819D01*
X185419783Y-76694819D02*
X185657878Y-76694819D01*
X185657878Y-76694819D02*
X185800735Y-76742438D01*
X185800735Y-76742438D02*
X185895973Y-76837676D01*
X185895973Y-76837676D02*
X185943592Y-76932914D01*
X185943592Y-76932914D02*
X185991211Y-77123390D01*
X185991211Y-77123390D02*
X185991211Y-77266247D01*
X185991211Y-77266247D02*
X185943592Y-77456723D01*
X185943592Y-77456723D02*
X185895973Y-77551961D01*
X185895973Y-77551961D02*
X185800735Y-77647200D01*
X185800735Y-77647200D02*
X185657878Y-77694819D01*
X185657878Y-77694819D02*
X185419783Y-77694819D01*
X186943592Y-77694819D02*
X186372164Y-77694819D01*
X186657878Y-77694819D02*
X186657878Y-76694819D01*
X186657878Y-76694819D02*
X186562640Y-76837676D01*
X186562640Y-76837676D02*
X186467402Y-76932914D01*
X186467402Y-76932914D02*
X186372164Y-76980533D01*
X196341211Y-79284819D02*
X196007878Y-78808628D01*
X195769783Y-79284819D02*
X195769783Y-78284819D01*
X195769783Y-78284819D02*
X196150735Y-78284819D01*
X196150735Y-78284819D02*
X196245973Y-78332438D01*
X196245973Y-78332438D02*
X196293592Y-78380057D01*
X196293592Y-78380057D02*
X196341211Y-78475295D01*
X196341211Y-78475295D02*
X196341211Y-78618152D01*
X196341211Y-78618152D02*
X196293592Y-78713390D01*
X196293592Y-78713390D02*
X196245973Y-78761009D01*
X196245973Y-78761009D02*
X196150735Y-78808628D01*
X196150735Y-78808628D02*
X195769783Y-78808628D01*
X197293592Y-79284819D02*
X196722164Y-79284819D01*
X197007878Y-79284819D02*
X197007878Y-78284819D01*
X197007878Y-78284819D02*
X196912640Y-78427676D01*
X196912640Y-78427676D02*
X196817402Y-78522914D01*
X196817402Y-78522914D02*
X196722164Y-78570533D01*
X179998354Y-51304819D02*
X180665020Y-52304819D01*
X180665020Y-51304819D02*
X179998354Y-52304819D01*
X181569782Y-52304819D02*
X180998354Y-52304819D01*
X181284068Y-52304819D02*
X181284068Y-51304819D01*
X181284068Y-51304819D02*
X181188830Y-51447676D01*
X181188830Y-51447676D02*
X181093592Y-51542914D01*
X181093592Y-51542914D02*
X180998354Y-51590533D01*
X146862096Y-76781009D02*
X147004953Y-76828628D01*
X147004953Y-76828628D02*
X147052572Y-76876247D01*
X147052572Y-76876247D02*
X147100191Y-76971485D01*
X147100191Y-76971485D02*
X147100191Y-77114342D01*
X147100191Y-77114342D02*
X147052572Y-77209580D01*
X147052572Y-77209580D02*
X147004953Y-77257200D01*
X147004953Y-77257200D02*
X146909715Y-77304819D01*
X146909715Y-77304819D02*
X146528763Y-77304819D01*
X146528763Y-77304819D02*
X146528763Y-76304819D01*
X146528763Y-76304819D02*
X146862096Y-76304819D01*
X146862096Y-76304819D02*
X146957334Y-76352438D01*
X146957334Y-76352438D02*
X147004953Y-76400057D01*
X147004953Y-76400057D02*
X147052572Y-76495295D01*
X147052572Y-76495295D02*
X147052572Y-76590533D01*
X147052572Y-76590533D02*
X147004953Y-76685771D01*
X147004953Y-76685771D02*
X146957334Y-76733390D01*
X146957334Y-76733390D02*
X146862096Y-76781009D01*
X146862096Y-76781009D02*
X146528763Y-76781009D01*
X148052572Y-77304819D02*
X147481144Y-77304819D01*
X147766858Y-77304819D02*
X147766858Y-76304819D01*
X147766858Y-76304819D02*
X147671620Y-76447676D01*
X147671620Y-76447676D02*
X147576382Y-76542914D01*
X147576382Y-76542914D02*
X147481144Y-76590533D01*
X117396884Y-38694819D02*
X117396884Y-37694819D01*
X117396884Y-37694819D02*
X117634979Y-37694819D01*
X117634979Y-37694819D02*
X117777836Y-37742438D01*
X117777836Y-37742438D02*
X117873074Y-37837676D01*
X117873074Y-37837676D02*
X117920693Y-37932914D01*
X117920693Y-37932914D02*
X117968312Y-38123390D01*
X117968312Y-38123390D02*
X117968312Y-38266247D01*
X117968312Y-38266247D02*
X117920693Y-38456723D01*
X117920693Y-38456723D02*
X117873074Y-38551961D01*
X117873074Y-38551961D02*
X117777836Y-38647200D01*
X117777836Y-38647200D02*
X117634979Y-38694819D01*
X117634979Y-38694819D02*
X117396884Y-38694819D01*
X118301646Y-37694819D02*
X118968312Y-37694819D01*
X118968312Y-37694819D02*
X118539741Y-38694819D01*
X128318312Y-40284819D02*
X127984979Y-39808628D01*
X127746884Y-40284819D02*
X127746884Y-39284819D01*
X127746884Y-39284819D02*
X128127836Y-39284819D01*
X128127836Y-39284819D02*
X128223074Y-39332438D01*
X128223074Y-39332438D02*
X128270693Y-39380057D01*
X128270693Y-39380057D02*
X128318312Y-39475295D01*
X128318312Y-39475295D02*
X128318312Y-39618152D01*
X128318312Y-39618152D02*
X128270693Y-39713390D01*
X128270693Y-39713390D02*
X128223074Y-39761009D01*
X128223074Y-39761009D02*
X128127836Y-39808628D01*
X128127836Y-39808628D02*
X127746884Y-39808628D01*
X128651646Y-39284819D02*
X129318312Y-39284819D01*
X129318312Y-39284819D02*
X128889741Y-40284819D01*
X151873763Y-67694819D02*
X151873763Y-66694819D01*
X151873763Y-66694819D02*
X152111858Y-66694819D01*
X152111858Y-66694819D02*
X152254715Y-66742438D01*
X152254715Y-66742438D02*
X152349953Y-66837676D01*
X152349953Y-66837676D02*
X152397572Y-66932914D01*
X152397572Y-66932914D02*
X152445191Y-67123390D01*
X152445191Y-67123390D02*
X152445191Y-67266247D01*
X152445191Y-67266247D02*
X152397572Y-67456723D01*
X152397572Y-67456723D02*
X152349953Y-67551961D01*
X152349953Y-67551961D02*
X152254715Y-67647200D01*
X152254715Y-67647200D02*
X152111858Y-67694819D01*
X152111858Y-67694819D02*
X151873763Y-67694819D01*
X152826144Y-66790057D02*
X152873763Y-66742438D01*
X152873763Y-66742438D02*
X152969001Y-66694819D01*
X152969001Y-66694819D02*
X153207096Y-66694819D01*
X153207096Y-66694819D02*
X153302334Y-66742438D01*
X153302334Y-66742438D02*
X153349953Y-66790057D01*
X153349953Y-66790057D02*
X153397572Y-66885295D01*
X153397572Y-66885295D02*
X153397572Y-66980533D01*
X153397572Y-66980533D02*
X153349953Y-67123390D01*
X153349953Y-67123390D02*
X152778525Y-67694819D01*
X152778525Y-67694819D02*
X153397572Y-67694819D01*
X185414783Y-42694819D02*
X185414783Y-41694819D01*
X185414783Y-41694819D02*
X185652878Y-41694819D01*
X185652878Y-41694819D02*
X185795735Y-41742438D01*
X185795735Y-41742438D02*
X185890973Y-41837676D01*
X185890973Y-41837676D02*
X185938592Y-41932914D01*
X185938592Y-41932914D02*
X185986211Y-42123390D01*
X185986211Y-42123390D02*
X185986211Y-42266247D01*
X185986211Y-42266247D02*
X185938592Y-42456723D01*
X185938592Y-42456723D02*
X185890973Y-42551961D01*
X185890973Y-42551961D02*
X185795735Y-42647200D01*
X185795735Y-42647200D02*
X185652878Y-42694819D01*
X185652878Y-42694819D02*
X185414783Y-42694819D01*
X186890973Y-41694819D02*
X186414783Y-41694819D01*
X186414783Y-41694819D02*
X186367164Y-42171009D01*
X186367164Y-42171009D02*
X186414783Y-42123390D01*
X186414783Y-42123390D02*
X186510021Y-42075771D01*
X186510021Y-42075771D02*
X186748116Y-42075771D01*
X186748116Y-42075771D02*
X186843354Y-42123390D01*
X186843354Y-42123390D02*
X186890973Y-42171009D01*
X186890973Y-42171009D02*
X186938592Y-42266247D01*
X186938592Y-42266247D02*
X186938592Y-42504342D01*
X186938592Y-42504342D02*
X186890973Y-42599580D01*
X186890973Y-42599580D02*
X186843354Y-42647200D01*
X186843354Y-42647200D02*
X186748116Y-42694819D01*
X186748116Y-42694819D02*
X186510021Y-42694819D01*
X186510021Y-42694819D02*
X186414783Y-42647200D01*
X186414783Y-42647200D02*
X186367164Y-42599580D01*
X128313312Y-75284819D02*
X127979979Y-74808628D01*
X127741884Y-75284819D02*
X127741884Y-74284819D01*
X127741884Y-74284819D02*
X128122836Y-74284819D01*
X128122836Y-74284819D02*
X128218074Y-74332438D01*
X128218074Y-74332438D02*
X128265693Y-74380057D01*
X128265693Y-74380057D02*
X128313312Y-74475295D01*
X128313312Y-74475295D02*
X128313312Y-74618152D01*
X128313312Y-74618152D02*
X128265693Y-74713390D01*
X128265693Y-74713390D02*
X128218074Y-74761009D01*
X128218074Y-74761009D02*
X128122836Y-74808628D01*
X128122836Y-74808628D02*
X127741884Y-74808628D01*
X128646646Y-74284819D02*
X129265693Y-74284819D01*
X129265693Y-74284819D02*
X128932360Y-74665771D01*
X128932360Y-74665771D02*
X129075217Y-74665771D01*
X129075217Y-74665771D02*
X129170455Y-74713390D01*
X129170455Y-74713390D02*
X129218074Y-74761009D01*
X129218074Y-74761009D02*
X129265693Y-74856247D01*
X129265693Y-74856247D02*
X129265693Y-75094342D01*
X129265693Y-75094342D02*
X129218074Y-75189580D01*
X129218074Y-75189580D02*
X129170455Y-75237200D01*
X129170455Y-75237200D02*
X129075217Y-75284819D01*
X129075217Y-75284819D02*
X128789503Y-75284819D01*
X128789503Y-75284819D02*
X128694265Y-75237200D01*
X128694265Y-75237200D02*
X128646646Y-75189580D01*
X113118312Y-48304819D02*
X112784979Y-47828628D01*
X112546884Y-48304819D02*
X112546884Y-47304819D01*
X112546884Y-47304819D02*
X112927836Y-47304819D01*
X112927836Y-47304819D02*
X113023074Y-47352438D01*
X113023074Y-47352438D02*
X113070693Y-47400057D01*
X113070693Y-47400057D02*
X113118312Y-47495295D01*
X113118312Y-47495295D02*
X113118312Y-47638152D01*
X113118312Y-47638152D02*
X113070693Y-47733390D01*
X113070693Y-47733390D02*
X113023074Y-47781009D01*
X113023074Y-47781009D02*
X112927836Y-47828628D01*
X112927836Y-47828628D02*
X112546884Y-47828628D01*
X113880217Y-47781009D02*
X114023074Y-47828628D01*
X114023074Y-47828628D02*
X114070693Y-47876247D01*
X114070693Y-47876247D02*
X114118312Y-47971485D01*
X114118312Y-47971485D02*
X114118312Y-48114342D01*
X114118312Y-48114342D02*
X114070693Y-48209580D01*
X114070693Y-48209580D02*
X114023074Y-48257200D01*
X114023074Y-48257200D02*
X113927836Y-48304819D01*
X113927836Y-48304819D02*
X113546884Y-48304819D01*
X113546884Y-48304819D02*
X113546884Y-47304819D01*
X113546884Y-47304819D02*
X113880217Y-47304819D01*
X113880217Y-47304819D02*
X113975455Y-47352438D01*
X113975455Y-47352438D02*
X114023074Y-47400057D01*
X114023074Y-47400057D02*
X114070693Y-47495295D01*
X114070693Y-47495295D02*
X114070693Y-47590533D01*
X114070693Y-47590533D02*
X114023074Y-47685771D01*
X114023074Y-47685771D02*
X113975455Y-47733390D01*
X113975455Y-47733390D02*
X113880217Y-47781009D01*
X113880217Y-47781009D02*
X113546884Y-47781009D01*
X115070693Y-48304819D02*
X114499265Y-48304819D01*
X114784979Y-48304819D02*
X114784979Y-47304819D01*
X114784979Y-47304819D02*
X114689741Y-47447676D01*
X114689741Y-47447676D02*
X114594503Y-47542914D01*
X114594503Y-47542914D02*
X114499265Y-47590533D01*
D11*
%TO.C,A2*%
X157175918Y-111380000D02*
X157175918Y-110900000D01*
X157175918Y-111380000D02*
X156755918Y-111380000D01*
X154635918Y-111380000D02*
X154215918Y-111380000D01*
X152095918Y-111380000D02*
X151675918Y-111380000D01*
X149555918Y-111380000D02*
X149135918Y-111380000D01*
X147015918Y-111380000D02*
X146595918Y-111380000D01*
X144475918Y-111380000D02*
X144055918Y-111380000D01*
X141935918Y-111380000D02*
X141515918Y-111380000D01*
X139395918Y-111380000D02*
X138975918Y-111380000D01*
X136855918Y-111380000D02*
X136435918Y-111380000D01*
X134315918Y-111380000D02*
X133895918Y-111380000D01*
X131775918Y-111380000D02*
X131355918Y-111380000D01*
X129235918Y-111380000D02*
X128815918Y-111380000D01*
X126695918Y-111380000D02*
X126275918Y-111380000D01*
X124155918Y-111380000D02*
X123735918Y-111380000D01*
X121615918Y-111380000D02*
X121195918Y-111380000D01*
X119075918Y-111380000D02*
X118655918Y-111380000D01*
X116535918Y-111380000D02*
X116115918Y-111380000D01*
X113995918Y-111380000D02*
X113575918Y-111380000D01*
X111455918Y-111380000D02*
X111035918Y-111380000D01*
X159295918Y-111410324D02*
X159295918Y-110900000D01*
X159295855Y-111720000D02*
X159652918Y-111720000D01*
X157175918Y-111720000D02*
X156755918Y-111720000D01*
X154635918Y-111720000D02*
X154215918Y-111720000D01*
X152095918Y-111720000D02*
X151675918Y-111720000D01*
X149555918Y-111720000D02*
X149135918Y-111720000D01*
X147015918Y-111720000D02*
X146595918Y-111720000D01*
X144475918Y-111720000D02*
X144055918Y-111720000D01*
X141935918Y-111720000D02*
X141515918Y-111720000D01*
X139395918Y-111720000D02*
X138975918Y-111720000D01*
X136855918Y-111720000D02*
X136435918Y-111720000D01*
X134315918Y-111720000D02*
X133895918Y-111720000D01*
X131775918Y-111720000D02*
X131355918Y-111720000D01*
X129235918Y-111720000D02*
X128815918Y-111720000D01*
X126695918Y-111720000D02*
X126275918Y-111720000D01*
X124155918Y-111720000D02*
X123735918Y-111720000D01*
X121615918Y-111720000D02*
X121195918Y-111720000D01*
X119075918Y-111720000D02*
X118655918Y-111720000D01*
X116535918Y-111720000D02*
X116115918Y-111720000D01*
X113995918Y-111720000D02*
X113575918Y-111720000D01*
X111455918Y-111720000D02*
X111035918Y-111720000D01*
X108915981Y-111720000D02*
X108558918Y-111720000D01*
X159715918Y-111990000D02*
X159715918Y-114480000D01*
X108495918Y-111990000D02*
X108495918Y-115827939D01*
X159715918Y-114480000D02*
X158802398Y-114480000D01*
X159715918Y-114480000D02*
X159715918Y-115827940D01*
X156409438Y-114480000D02*
X111802398Y-114480000D01*
X109409438Y-114480000D02*
X108495918Y-114480000D01*
X159715918Y-116752061D02*
X159715918Y-117755000D01*
X159715918Y-117755000D02*
X159715918Y-126225000D01*
X159715918Y-118090000D02*
X158799918Y-118090000D01*
X156411918Y-118090000D02*
X155195918Y-118090000D01*
X155195918Y-118090000D02*
X155195918Y-118386090D01*
X108495918Y-118390000D02*
X108495918Y-116752061D01*
X155195918Y-120743910D02*
X155195918Y-123236090D01*
X108495918Y-125590000D02*
X108495918Y-118390000D01*
X155195918Y-125593910D02*
X155195918Y-125890000D01*
X159715918Y-125890000D02*
X158799918Y-125890000D01*
X156411918Y-125890000D02*
X155195918Y-125890000D01*
X159715918Y-126225000D02*
X159715918Y-127227939D01*
X108495918Y-127227939D02*
X108495918Y-125590000D01*
X159715918Y-128152061D02*
X159715918Y-129500000D01*
X108495918Y-128152061D02*
X108495918Y-131990000D01*
X159715918Y-129500000D02*
X158802398Y-129500000D01*
X156409438Y-129500000D02*
X111802398Y-129500000D01*
X109409438Y-129500000D02*
X108495918Y-129500000D01*
X159715918Y-131990000D02*
X159715918Y-129500000D01*
X159295855Y-132260000D02*
X159652918Y-132260000D01*
X157175918Y-132260000D02*
X156755918Y-132260000D01*
X154635918Y-132260000D02*
X154215918Y-132260000D01*
X152095918Y-132260000D02*
X151675918Y-132260000D01*
X149555918Y-132260000D02*
X149135918Y-132260000D01*
X147015918Y-132260000D02*
X146595918Y-132260000D01*
X144475918Y-132260000D02*
X144055918Y-132260000D01*
X141935918Y-132260000D02*
X141515918Y-132260000D01*
X139395918Y-132260000D02*
X138975918Y-132260000D01*
X136855918Y-132260000D02*
X136435918Y-132260000D01*
X134315918Y-132260000D02*
X133895918Y-132260000D01*
X131775918Y-132260000D02*
X131355918Y-132260000D01*
X129235918Y-132260000D02*
X128815918Y-132260000D01*
X126695918Y-132260000D02*
X126275918Y-132260000D01*
X124155918Y-132260000D02*
X123735918Y-132260000D01*
X121615918Y-132260000D02*
X121195918Y-132260000D01*
X119075918Y-132260000D02*
X118655918Y-132260000D01*
X116535918Y-132260000D02*
X116115918Y-132260000D01*
X113995918Y-132260000D02*
X113575918Y-132260000D01*
X111455918Y-132260000D02*
X111035918Y-132260000D01*
X108915981Y-132260000D02*
X108558918Y-132260000D01*
X157175918Y-132600000D02*
X156755918Y-132600000D01*
X154635918Y-132600000D02*
X154215918Y-132600000D01*
X152095918Y-132600000D02*
X151675918Y-132600000D01*
X149555918Y-132600000D02*
X149135918Y-132600000D01*
X147015918Y-132600000D02*
X146595918Y-132600000D01*
X144475918Y-132600000D02*
X144055918Y-132600000D01*
X141935918Y-132600000D02*
X141515918Y-132600000D01*
X139395918Y-132600000D02*
X138975918Y-132600000D01*
X136855918Y-132600000D02*
X136435918Y-132600000D01*
X134315918Y-132600000D02*
X133895918Y-132600000D01*
X131775918Y-132600000D02*
X131355918Y-132600000D01*
X129235918Y-132600000D02*
X128815918Y-132600000D01*
X126695918Y-132600000D02*
X126275918Y-132600000D01*
X124155918Y-132600000D02*
X123735918Y-132600000D01*
X121615918Y-132600000D02*
X121195918Y-132600000D01*
X119075918Y-132600000D02*
X118655918Y-132600000D01*
X116535918Y-132600000D02*
X116115918Y-132600000D01*
X113995918Y-132600000D02*
X113575918Y-132600000D01*
X111455918Y-132600000D02*
X111035918Y-132600000D01*
X159295918Y-111410324D02*
G75*
G02*
X159715918Y-111990000I-190051J-579692D01*
G01*
X108495918Y-111990000D02*
G75*
G02*
X108915981Y-111410324I610002J-1D01*
G01*
X159715918Y-131990000D02*
G75*
G02*
X159295855Y-132569676I-610000J0D01*
G01*
X108915981Y-132569676D02*
G75*
G02*
X108495849Y-131990000I189837J579676D01*
G01*
%TO.C,RT1*%
X125119979Y-95185000D02*
X111149979Y-95185000D01*
X125119979Y-81215000D02*
X125119979Y-95185000D01*
X111149979Y-95185000D02*
X111149979Y-81215000D01*
X111149979Y-81215000D02*
X125119979Y-81215000D01*
%TO.C,D3*%
X115569979Y-75655000D02*
X115569979Y-78745000D01*
X115569979Y-75655170D02*
G75*
G02*
X121119979Y-77200000I2560000J-1544830D01*
G01*
X121119979Y-77200000D02*
G75*
G02*
X115569979Y-78744830I-2990000J0D01*
G01*
X120629979Y-77200000D02*
G75*
G02*
X115629979Y-77200000I-2500000J0D01*
G01*
X115629979Y-77200000D02*
G75*
G02*
X120629979Y-77200000I2500000J0D01*
G01*
%TO.C,R5*%
X192462878Y-46200000D02*
X193232878Y-46200000D01*
X200542878Y-46200000D02*
X199772878Y-46200000D01*
X193232878Y-44830000D02*
X199772878Y-44830000D01*
X199772878Y-47570000D01*
X193232878Y-47570000D01*
X193232878Y-44830000D01*
%TO.C,Y1*%
X145631858Y-40215000D02*
X159601858Y-40215000D01*
X145631858Y-54185000D02*
X145631858Y-40215000D01*
X159601858Y-40215000D02*
X159601858Y-54185000D01*
X159601858Y-54185000D02*
X145631858Y-54185000D01*
%TO.C,D4*%
X81277122Y-82655000D02*
X81277122Y-85745000D01*
X81277122Y-82655170D02*
G75*
G02*
X86827122Y-84200000I2560000J-1544830D01*
G01*
X86827122Y-84200000D02*
G75*
G02*
X81277122Y-85744830I-2990000J0D01*
G01*
X86337122Y-84200000D02*
G75*
G02*
X81337122Y-84200000I-2500000J0D01*
G01*
X81337122Y-84200000D02*
G75*
G02*
X86337122Y-84200000I2500000J0D01*
G01*
%TO.C,LT1*%
X76857122Y-88215000D02*
X90827122Y-88215000D01*
X76857122Y-102185000D02*
X76857122Y-88215000D01*
X90827122Y-88215000D02*
X90827122Y-102185000D01*
X90827122Y-102185000D02*
X76857122Y-102185000D01*
%TO.C,R2*%
X158921858Y-71200000D02*
X159691858Y-71200000D01*
X167001858Y-71200000D02*
X166231858Y-71200000D01*
X159691858Y-69830000D02*
X166231858Y-69830000D01*
X166231858Y-72570000D01*
X159691858Y-72570000D01*
X159691858Y-69830000D01*
%TO.C,LB1*%
X76857122Y-53215000D02*
X90827122Y-53215000D01*
X76857122Y-67185000D02*
X76857122Y-53215000D01*
X90827122Y-53215000D02*
X90827122Y-67185000D01*
X90827122Y-67185000D02*
X76857122Y-67185000D01*
%TO.C,R4*%
X90147122Y-84200000D02*
X90917122Y-84200000D01*
X98227122Y-84200000D02*
X97457122Y-84200000D01*
X90917122Y-82830000D02*
X97457122Y-82830000D01*
X97457122Y-85570000D01*
X90917122Y-85570000D01*
X90917122Y-82830000D01*
%TO.C,D8*%
X81277122Y-47655000D02*
X81277122Y-50745000D01*
X81277122Y-47655170D02*
G75*
G02*
X86827122Y-49200000I2560000J-1544830D01*
G01*
X86827122Y-49200000D02*
G75*
G02*
X81277122Y-50744830I-2990000J0D01*
G01*
X86337122Y-49200000D02*
G75*
G02*
X81337122Y-49200000I-2500000J0D01*
G01*
X81337122Y-49200000D02*
G75*
G02*
X86337122Y-49200000I2500000J0D01*
G01*
%TO.C,A1*%
X179172878Y-85215000D02*
X193142878Y-85215000D01*
X179172878Y-99185000D02*
X179172878Y-85215000D01*
X193142878Y-85215000D02*
X193142878Y-99185000D01*
X193142878Y-99185000D02*
X179172878Y-99185000D01*
%TO.C,R8*%
X90147122Y-49200000D02*
X90917122Y-49200000D01*
X98227122Y-49200000D02*
X97457122Y-49200000D01*
X90917122Y-47830000D02*
X97457122Y-47830000D01*
X97457122Y-50570000D01*
X90917122Y-50570000D01*
X90917122Y-47830000D01*
%TO.C,D6*%
X150056858Y-34655000D02*
X150056858Y-37745000D01*
X150056858Y-34655170D02*
G75*
G02*
X155606858Y-36200000I2560000J-1544830D01*
G01*
X155606858Y-36200000D02*
G75*
G02*
X150056858Y-37744830I-2990000J0D01*
G01*
X155116858Y-36200000D02*
G75*
G02*
X150116858Y-36200000I-2500000J0D01*
G01*
X150116858Y-36200000D02*
G75*
G02*
X155116858Y-36200000I2500000J0D01*
G01*
%TO.C,R6*%
X158926858Y-36200000D02*
X159696858Y-36200000D01*
X167006858Y-36200000D02*
X166236858Y-36200000D01*
X159696858Y-34830000D02*
X166236858Y-34830000D01*
X166236858Y-37570000D01*
X159696858Y-37570000D01*
X159696858Y-34830000D01*
%TO.C,D1*%
X183597878Y-79655000D02*
X183597878Y-82745000D01*
X183597878Y-79655170D02*
G75*
G02*
X189147878Y-81200000I2560000J-1544830D01*
G01*
X189147878Y-81200000D02*
G75*
G02*
X183597878Y-82744830I-2990000J0D01*
G01*
X188657878Y-81200000D02*
G75*
G02*
X183657878Y-81200000I-2500000J0D01*
G01*
X183657878Y-81200000D02*
G75*
G02*
X188657878Y-81200000I2500000J0D01*
G01*
%TO.C,R1*%
X192467878Y-81200000D02*
X193237878Y-81200000D01*
X200547878Y-81200000D02*
X199777878Y-81200000D01*
X193237878Y-79830000D02*
X199777878Y-79830000D01*
X199777878Y-82570000D01*
X193237878Y-82570000D01*
X193237878Y-79830000D01*
%TO.C,X1*%
X179172878Y-50215000D02*
X193142878Y-50215000D01*
X179172878Y-64185000D02*
X179172878Y-50215000D01*
X193142878Y-50215000D02*
X193142878Y-64185000D01*
X193142878Y-64185000D02*
X179172878Y-64185000D01*
%TO.C,B1*%
X145631858Y-75215000D02*
X159601858Y-75215000D01*
X145631858Y-89185000D02*
X145631858Y-75215000D01*
X159601858Y-75215000D02*
X159601858Y-89185000D01*
X159601858Y-89185000D02*
X145631858Y-89185000D01*
%TO.C,D7*%
X115574979Y-40655000D02*
X115574979Y-43745000D01*
X115574979Y-40655170D02*
G75*
G02*
X121124979Y-42200000I2560000J-1544830D01*
G01*
X121124979Y-42200000D02*
G75*
G02*
X115574979Y-43744830I-2990000J0D01*
G01*
X120634979Y-42200000D02*
G75*
G02*
X115634979Y-42200000I-2500000J0D01*
G01*
X115634979Y-42200000D02*
G75*
G02*
X120634979Y-42200000I2500000J0D01*
G01*
%TO.C,R7*%
X124444979Y-42200000D02*
X125214979Y-42200000D01*
X132524979Y-42200000D02*
X131754979Y-42200000D01*
X125214979Y-40830000D02*
X131754979Y-40830000D01*
X131754979Y-43570000D01*
X125214979Y-43570000D01*
X125214979Y-40830000D01*
%TO.C,D2*%
X150051858Y-69655000D02*
X150051858Y-72745000D01*
X150051858Y-69655170D02*
G75*
G02*
X155601858Y-71200000I2560000J-1544830D01*
G01*
X155601858Y-71200000D02*
G75*
G02*
X150051858Y-72744830I-2990000J0D01*
G01*
X155111858Y-71200000D02*
G75*
G02*
X150111858Y-71200000I-2500000J0D01*
G01*
X150111858Y-71200000D02*
G75*
G02*
X155111858Y-71200000I2500000J0D01*
G01*
%TO.C,D5*%
X183592878Y-44655000D02*
X183592878Y-47745000D01*
X183592878Y-44655170D02*
G75*
G02*
X189142878Y-46200000I2560000J-1544830D01*
G01*
X189142878Y-46200000D02*
G75*
G02*
X183592878Y-47744830I-2990000J0D01*
G01*
X188652878Y-46200000D02*
G75*
G02*
X183652878Y-46200000I-2500000J0D01*
G01*
X183652878Y-46200000D02*
G75*
G02*
X188652878Y-46200000I2500000J0D01*
G01*
%TO.C,R3*%
X124439979Y-77200000D02*
X125209979Y-77200000D01*
X132519979Y-77200000D02*
X131749979Y-77200000D01*
X125209979Y-75830000D02*
X131749979Y-75830000D01*
X131749979Y-78570000D01*
X125209979Y-78570000D01*
X125209979Y-75830000D01*
%TO.C,RB1*%
X111149979Y-46215000D02*
X125119979Y-46215000D01*
X111149979Y-60185000D02*
X111149979Y-46215000D01*
X125119979Y-46215000D02*
X125119979Y-60185000D01*
X125119979Y-60185000D02*
X111149979Y-60185000D01*
%TD*%
M02*
