M48
; DRILL file {KiCad 9.0.6} date 2026-08-18T15:08:24-0400
; FORMAT={-:-/ absolute / metric / decimal}
; #@! TF.CreationDate,2026-08-18T15:08:24-04:00
; #@! TF.GenerationSoftware,Kicad,Pcbnew,9.0.6
; #@! TF.FileFunction,Plated,1,2,PTH
FMAT,2
METRIC
; #@! TA.AperFunction,Plated,PTH,ViaDrill
T1C0.300
; #@! TA.AperFunction,Plated,PTH,ComponentDrill
T2C0.750
; #@! TA.AperFunction,Plated,PTH,ComponentDrill
T3C0.800
; #@! TA.AperFunction,Plated,PTH,ComponentDrill
T4C0.900
; #@! TA.AperFunction,Plated,PTH,ComponentDrill
T5C1.000
; #@! TA.AperFunction,Plated,PTH,ComponentDrill
T6C1.500
%
G90
G05
T1
X124.0Y-115.0
X141.0Y-115.0
X172.0Y-115.0
T2
X68.45Y-37.2
X70.45Y-37.2
X72.45Y-37.2
X74.45Y-37.2
X76.45Y-37.2
X78.45Y-37.2
X80.45Y-37.2
X189.55Y-37.2
X191.55Y-37.2
X193.55Y-37.2
X195.55Y-37.2
X197.55Y-37.2
X199.55Y-37.2
X201.55Y-37.2
X202.19Y-117.16
X202.19Y-119.16
X202.19Y-121.16
X202.19Y-123.16
X202.19Y-125.16
X202.19Y-127.16
T3
X89.107Y-49.2
X89.107Y-84.2
X99.267Y-49.2
X99.267Y-84.2
X123.4Y-77.2
X123.405Y-42.2
X133.56Y-77.2
X133.565Y-42.2
X157.882Y-71.2
X157.887Y-36.2
X168.042Y-71.2
X168.047Y-36.2
X191.423Y-46.2
X191.428Y-81.2
X201.583Y-46.2
X201.588Y-81.2
T4
X82.567Y-49.2
X82.567Y-84.2
X85.107Y-49.2
X85.107Y-84.2
X116.86Y-77.2
X116.865Y-42.2
X119.4Y-77.2
X119.405Y-42.2
X151.342Y-71.2
X151.347Y-36.2
X153.882Y-71.2
X153.887Y-36.2
X184.883Y-46.2
X184.888Y-81.2
X187.423Y-46.2
X187.428Y-81.2
T5
X109.976Y-113.1
X109.976Y-130.88
X112.516Y-113.1
X112.516Y-130.88
X115.056Y-113.1
X115.056Y-130.88
X117.596Y-113.1
X117.596Y-130.88
X120.136Y-113.1
X120.136Y-130.88
X122.676Y-113.1
X122.676Y-130.88
X125.216Y-113.1
X125.216Y-130.88
X127.756Y-113.1
X127.756Y-130.88
X130.296Y-113.1
X130.296Y-130.88
X132.836Y-113.1
X132.836Y-130.88
X135.376Y-113.1
X135.376Y-130.88
X137.916Y-113.1
X137.916Y-130.88
X140.456Y-113.1
X140.456Y-130.88
X142.996Y-113.1
X142.996Y-130.88
X145.536Y-113.1
X145.536Y-130.88
X148.076Y-113.1
X148.076Y-130.88
X150.616Y-113.1
X150.616Y-130.88
X153.156Y-113.1
X153.156Y-130.88
X155.696Y-113.1
X155.696Y-130.88
X158.236Y-113.1
X158.236Y-130.88
T6
X80.032Y-57.66
X80.032Y-92.66
X86.382Y-55.12
X86.382Y-90.12
X114.325Y-50.66
X114.325Y-85.66
X120.675Y-48.12
X120.675Y-83.12
X148.807Y-44.66
X148.807Y-79.66
X155.157Y-42.12
X155.157Y-77.12
X182.348Y-54.66
X182.348Y-89.66
X188.698Y-52.12
X188.698Y-87.12
M30
